M48
; DRILL file KiCad 10.0.1 date 2026-05-12T15:44:31
; FORMAT={-:-/ absolute / metric / decimal}
; #@! TF.CreationDate,2026-05-12T15:44:31-07:00
; #@! TF.GenerationSoftware,Kicad,Pcbnew,10.0.1
; #@! TF.FileFunction,Plated,1,2,PTH
FMAT,2
METRIC
; #@! TA.AperFunction,Plated,PTH,ViaDrill
T1C0.300
; #@! TA.AperFunction,Plated,PTH,ComponentDrill
T2C0.800
; #@! TA.AperFunction,Plated,PTH,ComponentDrill
T3C0.950
; #@! TA.AperFunction,Plated,PTH,ComponentDrill
T4C1.000
%
G90
G05
T1
X74.597Y-52.403
X74.692Y-49.8
T2
X56.591Y-26.863
X56.7Y-37.0
X56.7Y-39.54
X59.131Y-26.863
T3
X115.73Y-31.618
X115.73Y-34.118
X115.73Y-36.618
X115.73Y-39.118
X115.919Y-48.19
X115.919Y-50.69
X115.919Y-53.19
X115.919Y-55.69
T4
X24.56Y-19.33
X24.56Y-21.87
X24.56Y-24.41
X24.56Y-26.95
X24.56Y-29.49
X24.56Y-32.03
X24.56Y-34.57
X24.56Y-37.11
X24.56Y-39.65
X24.56Y-42.19
X24.56Y-44.73
X24.56Y-47.27
X24.56Y-49.81
X24.56Y-52.35
X24.56Y-54.89
X24.56Y-57.43
X27.1Y-19.33
X27.1Y-21.87
X27.1Y-24.41
X27.1Y-26.95
X27.1Y-29.49
X27.1Y-32.03
X27.1Y-34.57
X27.1Y-37.11
X27.1Y-39.65
X27.1Y-42.19
X27.1Y-44.73
X27.1Y-47.27
X27.1Y-49.81
X27.1Y-52.35
X27.1Y-54.89
X27.1Y-57.43
X47.42Y-29.49
X47.42Y-32.03
X47.42Y-34.57
X47.42Y-37.11
X47.42Y-39.65
X47.42Y-42.19
X47.42Y-44.73
X47.42Y-47.27
X47.42Y-49.81
X47.42Y-52.35
X47.42Y-54.89
X47.42Y-57.43
X49.96Y-29.49
X49.96Y-32.03
X49.96Y-34.57
X49.96Y-37.11
X49.96Y-39.65
X49.96Y-42.19
X49.96Y-44.73
X49.96Y-47.27
X49.96Y-49.81
X49.96Y-52.35
X49.96Y-54.89
X49.96Y-57.43
X56.7Y-44.5
X56.7Y-49.8
X56.7Y-52.34
X59.432Y-57.676
X63.392Y-57.676
X65.932Y-57.676
X68.472Y-57.676
X68.5Y-42.184
X68.5Y-45.934
X71.04Y-42.184
X71.04Y-45.934
X74.676Y-57.658
X79.586Y-20.022
X79.586Y-22.562
X79.586Y-25.102
X79.586Y-27.642
X79.586Y-30.182
X79.586Y-32.722
X79.586Y-35.262
X79.586Y-37.802
X79.586Y-40.342
X79.586Y-42.882
X79.586Y-45.422
X79.586Y-47.962
X79.586Y-50.502
X79.586Y-53.042
X82.126Y-20.022
X82.126Y-22.562
X82.126Y-25.102
X82.126Y-27.642
X82.126Y-30.182
X82.126Y-32.722
X82.126Y-35.262
X82.126Y-37.802
X82.126Y-40.342
X82.126Y-42.882
X82.126Y-45.422
X82.126Y-47.962
X82.126Y-50.502
X82.126Y-53.042
X101.126Y-19.982
X101.126Y-22.522
X101.126Y-25.062
X101.126Y-27.602
X101.126Y-30.142
X101.126Y-32.682
X101.126Y-35.222
X101.126Y-37.762
X101.126Y-40.302
X101.126Y-42.842
X101.126Y-45.382
X101.126Y-47.922
X101.126Y-50.462
X101.126Y-53.002
X103.666Y-19.982
X103.666Y-22.522
X103.666Y-25.062
X103.666Y-27.602
X103.666Y-30.142
X103.666Y-32.682
X103.666Y-35.222
X103.666Y-37.762
X103.666Y-40.302
X103.666Y-42.842
X103.666Y-45.382
X103.666Y-47.922
X103.666Y-50.462
X103.666Y-53.002
X113.651Y-22.058
X116.151Y-22.058
M30
