%TF.GenerationSoftware,KiCad,Pcbnew,10.0.1*%
%TF.CreationDate,2026-08-19T12:09:17-07:00*%
%TF.ProjectId,TMC5272-BOB,544d4335-3237-4322-9d42-4f422e6b6963,rev?*%
%TF.SameCoordinates,Original*%
%TF.FileFunction,Soldermask,Bot*%
%TF.FilePolarity,Negative*%
%FSLAX46Y46*%
G04 Gerber Fmt 4.6, Leading zero omitted, Abs format (unit mm)*
G04 Created by KiCad (PCBNEW 10.0.1) date 2026-08-19 12:09:17*
%MOMM*%
%LPD*%
G01*
G04 APERTURE LIST*
G04 Aperture macros list*
%AMRoundRect*
0 Rectangle with rounded corners*
0 $1 Rounding radius*
0 $2 $3 $4 $5 $6 $7 $8 $9 X,Y pos of 4 corners*
0 Add a 4 corners polygon primitive as box body*
4,1,4,$2,$3,$4,$5,$6,$7,$8,$9,$2,$3,0*
0 Add four circle primitives for the rounded corners*
1,1,$1+$1,$2,$3*
1,1,$1+$1,$4,$5*
1,1,$1+$1,$6,$7*
1,1,$1+$1,$8,$9*
0 Add four rect primitives between the rounded corners*
20,1,$1+$1,$2,$3,$4,$5,0*
20,1,$1+$1,$4,$5,$6,$7,0*
20,1,$1+$1,$6,$7,$8,$9,0*
20,1,$1+$1,$8,$9,$2,$3,0*%
G04 Aperture macros list end*
%ADD10RoundRect,0.050800X-0.850000X-0.850000X0.850000X-0.850000X0.850000X0.850000X-0.850000X0.850000X0*%
%ADD11C,1.801600*%
%ADD12C,2.301600*%
%ADD13C,1.501600*%
%ADD14O,2.051600X1.801600*%
%ADD15RoundRect,0.264941X-0.760859X0.635859X-0.760859X-0.635859X0.760859X-0.635859X0.760859X0.635859X0*%
%ADD16C,1.301600*%
%ADD17RoundRect,0.050800X-0.850000X0.850000X-0.850000X-0.850000X0.850000X-0.850000X0.850000X0.850000X0*%
%ADD18O,1.801600X2.101600*%
%ADD19RoundRect,0.264941X-0.635859X-0.785859X0.635859X-0.785859X0.635859X0.785859X-0.635859X0.785859X0*%
%ADD20RoundRect,0.050800X0.850000X-0.850000X0.850000X0.850000X-0.850000X0.850000X-0.850000X-0.850000X0*%
G04 APERTURE END LIST*
D10*
%TO.C,J3*%
X27100000Y-19330000D03*
D11*
X24560000Y-19330000D03*
X27100000Y-21870000D03*
X24560000Y-21870000D03*
X27100000Y-24410000D03*
X24560000Y-24410000D03*
X27100000Y-26950000D03*
X24560000Y-26950000D03*
X27100000Y-29490000D03*
X24560000Y-29490000D03*
X27100000Y-32030000D03*
X24560000Y-32030000D03*
X27100000Y-34570000D03*
X24560000Y-34570000D03*
X27100000Y-37110000D03*
X24560000Y-37110000D03*
X27100000Y-39650000D03*
X24560000Y-39650000D03*
X27100000Y-42190000D03*
X24560000Y-42190000D03*
X27100000Y-44730000D03*
X24560000Y-44730000D03*
X27100000Y-47270000D03*
X24560000Y-47270000D03*
X27100000Y-49810000D03*
X24560000Y-49810000D03*
X27100000Y-52350000D03*
X24560000Y-52350000D03*
X27100000Y-54890000D03*
X24560000Y-54890000D03*
X27100000Y-57430000D03*
X24560000Y-57430000D03*
%TD*%
D12*
%TO.C,REF\u002A\u002A*%
X20574000Y-61214000D03*
%TD*%
D13*
%TO.C,JP1*%
X56700000Y-37000000D03*
X56700000Y-39540000D03*
%TD*%
D12*
%TO.C,REF\u002A\u002A*%
X20574000Y-15240000D03*
%TD*%
D14*
%TO.C,J10*%
X119815000Y-55690000D03*
X119815000Y-53190000D03*
X119815000Y-50690000D03*
D15*
X119815000Y-48190000D03*
D16*
X117815000Y-46590000D03*
%TD*%
D17*
%TO.C,J7*%
X71040000Y-42184000D03*
D11*
X68500000Y-42184000D03*
%TD*%
D18*
%TO.C,J24*%
X120047000Y-22058000D03*
D19*
X117547000Y-22058000D03*
%TD*%
D12*
%TO.C,REF\u002A\u002A*%
X122514000Y-61214000D03*
%TD*%
D10*
%TO.C,J22*%
X59432000Y-57676000D03*
%TD*%
%TO.C,J8*%
X56700000Y-49800000D03*
D11*
X56700000Y-52340000D03*
%TD*%
D10*
%TO.C,J1*%
X79586000Y-20022000D03*
D11*
X82126000Y-20022000D03*
X79586000Y-22562000D03*
X82126000Y-22562000D03*
X79586000Y-25102000D03*
X82126000Y-25102000D03*
X79586000Y-27642000D03*
X82126000Y-27642000D03*
X79586000Y-30182000D03*
X82126000Y-30182000D03*
X79586000Y-32722000D03*
X82126000Y-32722000D03*
X79586000Y-35262000D03*
X82126000Y-35262000D03*
X79586000Y-37802000D03*
X82126000Y-37802000D03*
X79586000Y-40342000D03*
X82126000Y-40342000D03*
X79586000Y-42882000D03*
X82126000Y-42882000D03*
X79586000Y-45422000D03*
X82126000Y-45422000D03*
X79586000Y-47962000D03*
X82126000Y-47962000D03*
X79586000Y-50502000D03*
X82126000Y-50502000D03*
X79586000Y-53042000D03*
X82126000Y-53042000D03*
%TD*%
D12*
%TO.C,REF\u002A\u002A*%
X122514000Y-15240000D03*
%TD*%
D10*
%TO.C,J26*%
X74676000Y-57658000D03*
%TD*%
%TO.C,J9*%
X56700000Y-44500000D03*
%TD*%
D11*
%TO.C,J2*%
X107526000Y-53042000D03*
X104986000Y-53042000D03*
X107526000Y-50502000D03*
X104986000Y-50502000D03*
X107526000Y-47962000D03*
X104986000Y-47962000D03*
X107526000Y-45422000D03*
X104986000Y-45422000D03*
X107526000Y-42882000D03*
X104986000Y-42882000D03*
X107526000Y-40342000D03*
X104986000Y-40342000D03*
X107526000Y-37802000D03*
X104986000Y-37802000D03*
X107526000Y-35262000D03*
X104986000Y-35262000D03*
X107526000Y-32722000D03*
X104986000Y-32722000D03*
X107526000Y-30182000D03*
X104986000Y-30182000D03*
X107526000Y-27642000D03*
X104986000Y-27642000D03*
X107526000Y-25102000D03*
X104986000Y-25102000D03*
X107526000Y-22562000D03*
X104986000Y-22562000D03*
X107526000Y-20022000D03*
D10*
X104986000Y-20022000D03*
%TD*%
D14*
%TO.C,J11*%
X119626000Y-39118000D03*
X119626000Y-36618000D03*
X119626000Y-34118000D03*
D15*
X119626000Y-31618000D03*
D16*
X117626000Y-30018000D03*
%TD*%
D17*
%TO.C,J5*%
X71040000Y-45934000D03*
D11*
X68500000Y-45934000D03*
%TD*%
D13*
%TO.C,JP2*%
X56591400Y-26862600D03*
X59131400Y-26862600D03*
%TD*%
D10*
%TO.C,J4*%
X47420000Y-29490000D03*
D11*
X49960000Y-29490000D03*
X47420000Y-32030000D03*
X49960000Y-32030000D03*
X47420000Y-34570000D03*
X49960000Y-34570000D03*
X47420000Y-37110000D03*
X49960000Y-37110000D03*
X47420000Y-39650000D03*
X49960000Y-39650000D03*
X47420000Y-42190000D03*
X49960000Y-42190000D03*
X47420000Y-44730000D03*
X49960000Y-44730000D03*
X47420000Y-47270000D03*
X49960000Y-47270000D03*
X47420000Y-49810000D03*
X49960000Y-49810000D03*
X47420000Y-52350000D03*
X49960000Y-52350000D03*
X47420000Y-54890000D03*
X49960000Y-54890000D03*
X47420000Y-57430000D03*
X49960000Y-57430000D03*
%TD*%
D20*
%TO.C,J6*%
X63392000Y-57676000D03*
D11*
X65932000Y-57676000D03*
X68472000Y-57676000D03*
%TD*%
M02*
