%TF.GenerationSoftware,KiCad,Pcbnew,10.0.1*%
%TF.CreationDate,2026-08-19T12:09:17-07:00*%
%TF.ProjectId,TMC5272-BOB,544d4335-3237-4322-9d42-4f422e6b6963,rev?*%
%TF.SameCoordinates,Original*%
%TF.FileFunction,Copper,L2,Bot*%
%TF.FilePolarity,Positive*%
%FSLAX46Y46*%
G04 Gerber Fmt 4.6, Leading zero omitted, Abs format (unit mm)*
G04 Created by KiCad (PCBNEW 10.0.1) date 2026-08-19 12:09:17*
%MOMM*%
%LPD*%
G01*
G04 APERTURE LIST*
G04 Aperture macros list*
%AMRoundRect*
0 Rectangle with rounded corners*
0 $1 Rounding radius*
0 $2 $3 $4 $5 $6 $7 $8 $9 X,Y pos of 4 corners*
0 Add a 4 corners polygon primitive as box body*
4,1,4,$2,$3,$4,$5,$6,$7,$8,$9,$2,$3,0*
0 Add four circle primitives for the rounded corners*
1,1,$1+$1,$2,$3*
1,1,$1+$1,$4,$5*
1,1,$1+$1,$6,$7*
1,1,$1+$1,$8,$9*
0 Add four rect primitives between the rounded corners*
20,1,$1+$1,$2,$3,$4,$5,0*
20,1,$1+$1,$4,$5,$6,$7,0*
20,1,$1+$1,$6,$7,$8,$9,0*
20,1,$1+$1,$8,$9,$2,$3,0*%
G04 Aperture macros list end*
%TA.AperFunction,ComponentPad*%
%ADD10R,1.700000X1.700000*%
%TD*%
%TA.AperFunction,ComponentPad*%
%ADD11C,1.700000*%
%TD*%
%TA.AperFunction,ComponentPad*%
%ADD12C,1.400000*%
%TD*%
%TA.AperFunction,ComponentPad*%
%ADD13O,1.950000X1.700000*%
%TD*%
%TA.AperFunction,ComponentPad*%
%ADD14RoundRect,0.250000X-0.725000X0.600000X-0.725000X-0.600000X0.725000X-0.600000X0.725000X0.600000X0*%
%TD*%
%TA.AperFunction,ComponentPad*%
%ADD15O,1.700000X2.000000*%
%TD*%
%TA.AperFunction,ComponentPad*%
%ADD16RoundRect,0.250000X-0.600000X-0.750000X0.600000X-0.750000X0.600000X0.750000X-0.600000X0.750000X0*%
%TD*%
%TA.AperFunction,ViaPad*%
%ADD17C,0.700000*%
%TD*%
%TA.AperFunction,Conductor*%
%ADD18C,0.200000*%
%TD*%
%TA.AperFunction,Conductor*%
%ADD19C,0.500000*%
%TD*%
%TA.AperFunction,Conductor*%
%ADD20C,0.400000*%
%TD*%
G04 APERTURE END LIST*
D10*
%TO.P,J3,1a,Pin_1a_1a*%
%TO.N,rst*%
X27100000Y-19330000D03*
D11*
%TO.P,J3,1b,Pin_1b_1b*%
X24560000Y-19330000D03*
%TO.P,J3,2a,Pin_2a_2a*%
%TO.N,3vo*%
X27100000Y-21870000D03*
%TO.P,J3,2b,Pin_2b_2b*%
X24560000Y-21870000D03*
%TO.P,J3,3a,Pin_3a_3a*%
%TO.N,/FTHR16_3*%
X27100000Y-24410000D03*
%TO.P,J3,3b,Pin_3b_3b*%
X24560000Y-24410000D03*
%TO.P,J3,4a,Pin_4a_4a*%
%TO.N,GND*%
X27100000Y-26950000D03*
%TO.P,J3,4b,Pin_4b_4b*%
X24560000Y-26950000D03*
%TO.P,J3,5a,Pin_5a_5a*%
%TO.N,/FTHR16_5*%
X27100000Y-29490000D03*
%TO.P,J3,5b,Pin_5b_5b*%
X24560000Y-29490000D03*
%TO.P,J3,6a,Pin_6a_6a*%
%TO.N,/FTHR16_6*%
X27100000Y-32030000D03*
%TO.P,J3,6b,Pin_6b_6b*%
X24560000Y-32030000D03*
%TO.P,J3,7a,Pin_7a_7a*%
%TO.N,/FTHR16_7*%
X27100000Y-34570000D03*
%TO.P,J3,7b,Pin_7b_7b*%
X24560000Y-34570000D03*
%TO.P,J3,8a,Pin_8a_8a*%
%TO.N,/FTHR16_8*%
X27100000Y-37110000D03*
%TO.P,J3,8b,Pin_8b_8b*%
X24560000Y-37110000D03*
%TO.P,J3,9a,Pin_9a_9a*%
%TO.N,/FTHR16_9*%
X27100000Y-39650000D03*
%TO.P,J3,9b,Pin_9b_9b*%
X24560000Y-39650000D03*
%TO.P,J3,10a,Pin_10a_10a*%
%TO.N,/FTHR16_10*%
X27100000Y-42190000D03*
%TO.P,J3,10b,Pin_10b_10b*%
X24560000Y-42190000D03*
%TO.P,J3,11a,Pin_11a_11a*%
%TO.N,sck*%
X27100000Y-44730000D03*
%TO.P,J3,11b,Pin_11b_11b*%
X24560000Y-44730000D03*
%TO.P,J3,12a,Pin_12a_12a*%
%TO.N,mosi*%
X27100000Y-47270000D03*
%TO.P,J3,12b,Pin_12b_12b*%
X24560000Y-47270000D03*
%TO.P,J3,13a,Pin_13a_13a*%
%TO.N,miso*%
X27100000Y-49810000D03*
%TO.P,J3,13b,Pin_13b_13b*%
X24560000Y-49810000D03*
%TO.P,J3,14a,Pin_14a_14a*%
%TO.N,rx*%
X27100000Y-52350000D03*
%TO.P,J3,14b,Pin_14b_14b*%
X24560000Y-52350000D03*
%TO.P,J3,15a,Pin_15a_15a*%
%TO.N,tx*%
X27100000Y-54890000D03*
%TO.P,J3,15b,Pin_15b_15b*%
X24560000Y-54890000D03*
%TO.P,J3,16a,Pin_16a_16a*%
%TO.N,GND*%
X27100000Y-57430000D03*
%TO.P,J3,16b,Pin_16b_16b*%
X24560000Y-57430000D03*
%TD*%
D12*
%TO.P,JP1,1,A_1*%
%TO.N,en*%
X56700000Y-37000000D03*
%TO.P,JP1,2,B_2*%
%TO.N,GND*%
X56700000Y-39540000D03*
%TD*%
D13*
%TO.P,J10,4,Pin_4_4*%
%TO.N,OB2*%
X119815000Y-55690000D03*
%TO.P,J10,3,Pin_3_3*%
%TO.N,OB1*%
X119815000Y-53190000D03*
%TO.P,J10,2,Pin_2_2*%
%TO.N,OA2*%
X119815000Y-50690000D03*
D14*
%TO.P,J10,1,Pin_1_1*%
%TO.N,OA1*%
X119815000Y-48190000D03*
%TD*%
D10*
%TO.P,J7,1,Pin_1_1*%
%TO.N,CLK*%
X71040000Y-42184000D03*
D11*
%TO.P,J7,2,Pin_2_2*%
%TO.N,GND*%
X68500000Y-42184000D03*
%TD*%
D15*
%TO.P,J24,2,Pin_2_2*%
%TO.N,GND*%
X120047000Y-22058000D03*
D16*
%TO.P,J24,1,Pin_1_1*%
%TO.N,+VM*%
X117547000Y-22058000D03*
%TD*%
D10*
%TO.P,J22,1,Pin_1_1*%
%TO.N,SPI_CS*%
X59432000Y-57676000D03*
%TD*%
%TO.P,J8,1,Pin_1_1*%
%TO.N,DIAG0*%
X56700000Y-49800000D03*
D11*
%TO.P,J8,2,Pin_2_2*%
%TO.N,DIAG1*%
X56700000Y-52340000D03*
%TD*%
D10*
%TO.P,J1,1a,Pin_1a_1a*%
%TO.N,+VCC_IO*%
X79586000Y-20022000D03*
D11*
%TO.P,J1,1b,Pin_1b_1b*%
X82126000Y-20022000D03*
%TO.P,J1,2a,Pin_2a_2a*%
%TO.N,GND*%
X79586000Y-22562000D03*
%TO.P,J1,2b,Pin_2b_2b*%
X82126000Y-22562000D03*
%TO.P,J1,3a,Pin_3a_3a*%
%TO.N,ENCA1*%
X79586000Y-25102000D03*
%TO.P,J1,3b,Pin_3b_3b*%
X82126000Y-25102000D03*
%TO.P,J1,4a,Pin_4a_4a*%
%TO.N,ENCB1{slash}REFL1{slash}STEP1*%
X79586000Y-27642000D03*
%TO.P,J1,4b,Pin_4b_4b*%
X82126000Y-27642000D03*
%TO.P,J1,5a,Pin_5a_5a*%
%TO.N,ENCN1{slash}REFR1{slash}DIR1*%
X79586000Y-30182000D03*
%TO.P,J1,5b,Pin_5b_5b*%
X82126000Y-30182000D03*
%TO.P,J1,6a,Pin_6a_6a*%
%TO.N,SPI_CS*%
X79586000Y-32722000D03*
%TO.P,J1,6b,Pin_6b_6b*%
X82126000Y-32722000D03*
%TO.P,J1,7a,Pin_7a_7a*%
%TO.N,SPI_SCK*%
X79586000Y-35262000D03*
%TO.P,J1,7b,Pin_7b_7b*%
X82126000Y-35262000D03*
%TO.P,J1,8a,Pin_8a_8a*%
%TO.N,SPI_MOSI*%
X79586000Y-37802000D03*
%TO.P,J1,8b,Pin_8b_8b*%
X82126000Y-37802000D03*
%TO.P,J1,9a,Pin_9a_9a*%
%TO.N,SPI_MISO*%
X79586000Y-40342000D03*
%TO.P,J1,9b,Pin_9b_9b*%
X82126000Y-40342000D03*
%TO.P,J1,10a,Pin_10a_10a*%
%TO.N,CLK*%
X79586000Y-42882000D03*
%TO.P,J1,10b,Pin_10b_10b*%
X82126000Y-42882000D03*
%TO.P,J1,11a,Pin_11a_11a*%
%TO.N,SLEEPn*%
X79586000Y-45422000D03*
%TO.P,J1,11b,Pin_11b_11b*%
X82126000Y-45422000D03*
%TO.P,J1,12a,Pin_12a_12a*%
%TO.N,ENCA2*%
X79586000Y-47962000D03*
%TO.P,J1,12b,Pin_12b_12b*%
X82126000Y-47962000D03*
%TO.P,J1,13a,Pin_13a_13a*%
%TO.N,ENCB2{slash}REFL2{slash}STEP2*%
X79586000Y-50502000D03*
%TO.P,J1,13b,Pin_13b_13b*%
X82126000Y-50502000D03*
%TO.P,J1,14a,Pin_14a_14a*%
%TO.N,ENCN2{slash}REFR2{slash}DIR2*%
X79586000Y-53042000D03*
%TO.P,J1,14b,Pin_14b_14b*%
X82126000Y-53042000D03*
%TD*%
D10*
%TO.P,J26,1,Pin_1_1*%
%TO.N,GND*%
X74676000Y-57658000D03*
%TD*%
%TO.P,J9,1,Pin_1_1*%
%TO.N,SPI_CS*%
X56700000Y-44500000D03*
%TD*%
D11*
%TO.P,J2,14b,Pin_14b_14b*%
%TO.N,DIAG1*%
X107526000Y-53042000D03*
%TO.P,J2,14a,Pin_14a_14a*%
X104986000Y-53042000D03*
%TO.P,J2,13b,Pin_13b_13b*%
%TO.N,DIAG0*%
X107526000Y-50502000D03*
%TO.P,J2,13a,Pin_13a_13a*%
X104986000Y-50502000D03*
%TO.P,J2,12b,Pin_12b_12b*%
%TO.N,GND*%
X107526000Y-47962000D03*
%TO.P,J2,12a,Pin_12a_12a*%
X104986000Y-47962000D03*
%TO.P,J2,11b,Pin_11b_11b*%
%TO.N,OB2*%
X107526000Y-45422000D03*
%TO.P,J2,11a,Pin_11a_11a*%
X104986000Y-45422000D03*
%TO.P,J2,10b,Pin_10b_10b*%
%TO.N,OB1*%
X107526000Y-42882000D03*
%TO.P,J2,10a,Pin_10a_10a*%
X104986000Y-42882000D03*
%TO.P,J2,9b,Pin_9b_9b*%
%TO.N,OA2*%
X107526000Y-40342000D03*
%TO.P,J2,9a,Pin_9a_9a*%
X104986000Y-40342000D03*
%TO.P,J2,8b,Pin_8b_8b*%
%TO.N,OA1*%
X107526000Y-37802000D03*
%TO.P,J2,8a,Pin_8a_8a*%
X104986000Y-37802000D03*
%TO.P,J2,7b,Pin_7b_7b*%
%TO.N,GND*%
X107526000Y-35262000D03*
%TO.P,J2,7a,Pin_7a_7a*%
X104986000Y-35262000D03*
%TO.P,J2,6b,Pin_6b_6b*%
%TO.N,OC2*%
X107526000Y-32722000D03*
%TO.P,J2,6a,Pin_6a_6a*%
X104986000Y-32722000D03*
%TO.P,J2,5b,Pin_5b_5b*%
%TO.N,OC1*%
X107526000Y-30182000D03*
%TO.P,J2,5a,Pin_5a_5a*%
X104986000Y-30182000D03*
%TO.P,J2,4b,Pin_4b_4b*%
%TO.N,OD2*%
X107526000Y-27642000D03*
%TO.P,J2,4a,Pin_4a_4a*%
X104986000Y-27642000D03*
%TO.P,J2,3b,Pin_3b_3b*%
%TO.N,OD1*%
X107526000Y-25102000D03*
%TO.P,J2,3a,Pin_3a_3a*%
X104986000Y-25102000D03*
%TO.P,J2,2b,Pin_2b_2b*%
%TO.N,GND*%
X107526000Y-22562000D03*
%TO.P,J2,2a,Pin_2a_2a*%
X104986000Y-22562000D03*
%TO.P,J2,1b,Pin_1b_1b*%
%TO.N,+VM*%
X107526000Y-20022000D03*
D10*
%TO.P,J2,1a,Pin_1a_1a*%
X104986000Y-20022000D03*
%TD*%
D13*
%TO.P,J11,4,Pin_4_4*%
%TO.N,OD2*%
X119626000Y-39118000D03*
%TO.P,J11,3,Pin_3_3*%
%TO.N,OD1*%
X119626000Y-36618000D03*
%TO.P,J11,2,Pin_2_2*%
%TO.N,OC2*%
X119626000Y-34118000D03*
D14*
%TO.P,J11,1,Pin_1_1*%
%TO.N,OC1*%
X119626000Y-31618000D03*
%TD*%
D10*
%TO.P,J5,1,Pin_1_1*%
%TO.N,SLEEPn*%
X71040000Y-45934000D03*
D11*
%TO.P,J5,2,Pin_2_2*%
%TO.N,GND*%
X68500000Y-45934000D03*
%TD*%
D12*
%TO.P,JP2,1,A_1*%
%TO.N,3vo*%
X56591400Y-26862600D03*
%TO.P,JP2,2,B_2*%
%TO.N,+VCC_IO*%
X59131400Y-26862600D03*
%TD*%
D10*
%TO.P,J4,1a,Pin_1a_1a*%
%TO.N,bat*%
X47420000Y-29490000D03*
D11*
%TO.P,J4,1b,Pin_1b_1b*%
X49960000Y-29490000D03*
%TO.P,J4,2a,Pin_2a_2a*%
%TO.N,en*%
X47420000Y-32030000D03*
%TO.P,J4,2b,Pin_2b_2b*%
X49960000Y-32030000D03*
%TO.P,J4,3a,Pin_3a_3a*%
%TO.N,usb*%
X47420000Y-34570000D03*
%TO.P,J4,3b,Pin_3b_3b*%
X49960000Y-34570000D03*
%TO.P,J4,4a,Pin_4a_4a*%
%TO.N,/FTHR12_4*%
X47420000Y-37110000D03*
%TO.P,J4,4b,Pin_4b_4b*%
X49960000Y-37110000D03*
%TO.P,J4,5a,Pin_5a_5a*%
%TO.N,/FTHR12_5*%
X47420000Y-39650000D03*
%TO.P,J4,5b,Pin_5b_5b*%
X49960000Y-39650000D03*
%TO.P,J4,6a,Pin_6a_6a*%
%TO.N,/FTHR12_6*%
X47420000Y-42190000D03*
%TO.P,J4,6b,Pin_6b_6b*%
X49960000Y-42190000D03*
%TO.P,J4,7a,Pin_7a_7a*%
%TO.N,/FTHR12_7*%
X47420000Y-44730000D03*
%TO.P,J4,7b,Pin_7b_7b*%
X49960000Y-44730000D03*
%TO.P,J4,8a,Pin_8a_8a*%
%TO.N,/FTHR12_8*%
X47420000Y-47270000D03*
%TO.P,J4,8b,Pin_8b_8b*%
X49960000Y-47270000D03*
%TO.P,J4,9a,Pin_9a_9a*%
%TO.N,/FTHR12_9*%
X47420000Y-49810000D03*
%TO.P,J4,9b,Pin_9b_9b*%
X49960000Y-49810000D03*
%TO.P,J4,10a,Pin_10a_10a*%
%TO.N,/FTHR12_10*%
X47420000Y-52350000D03*
%TO.P,J4,10b,Pin_10b_10b*%
X49960000Y-52350000D03*
%TO.P,J4,11a,Pin_11a_11a*%
%TO.N,scl*%
X47420000Y-54890000D03*
%TO.P,J4,11b,Pin_11b_11b*%
X49960000Y-54890000D03*
%TO.P,J4,12a,Pin_12a_12a*%
%TO.N,sda*%
X47420000Y-57430000D03*
%TO.P,J4,12b,Pin_12b_12b*%
X49960000Y-57430000D03*
%TD*%
D10*
%TO.P,J6,1,Pin_1_1*%
%TO.N,SPI_SCK*%
X63392000Y-57676000D03*
D11*
%TO.P,J6,2,Pin_2_2*%
%TO.N,SPI_MOSI*%
X65932000Y-57676000D03*
%TO.P,J6,3,Pin_3_3*%
%TO.N,SPI_MISO*%
X68472000Y-57676000D03*
%TD*%
D17*
%TO.N,DIAG0*%
X74692000Y-49800000D03*
%TO.N,DIAG1*%
X74597380Y-52402620D03*
%TD*%
%TO.N,GND*%
D18*
X52472000Y-20412000D02*
X52472000Y-20666000D01*
X50440000Y-20412000D02*
X50440000Y-20666000D01*
%TO.N,CLK*%
X79586000Y-42882000D02*
X71738000Y-42882000D01*
X71738000Y-42882000D02*
X71040000Y-42184000D01*
%TO.N,DIAG0*%
X74676000Y-49800000D02*
X74692000Y-49800000D01*
X56700000Y-49800000D02*
X74676000Y-49800000D01*
%TO.N,DIAG1*%
X74534760Y-52340000D02*
X74597380Y-52402620D01*
X56700000Y-52340000D02*
X74534760Y-52340000D01*
%TO.N,SLEEPn*%
X79586000Y-45422000D02*
X71552000Y-45422000D01*
X71552000Y-45422000D02*
X71040000Y-45934000D01*
%TO.N,OD1*%
D19*
X119626000Y-36618000D02*
X117984000Y-36618000D01*
X115910000Y-29718000D02*
X112354000Y-26162000D01*
X117984000Y-36618000D02*
X115910000Y-34544000D01*
X115910000Y-34544000D02*
X115910000Y-29718000D01*
X108662000Y-26162000D02*
X107562000Y-25062000D01*
X112354000Y-26162000D02*
X108662000Y-26162000D01*
%TO.N,OD2*%
X112270000Y-27602000D02*
X107562000Y-27602000D01*
X114894000Y-35306000D02*
X114894000Y-30226000D01*
X118706000Y-39118000D02*
X114894000Y-35306000D01*
X119626000Y-39118000D02*
X118706000Y-39118000D01*
D20*
X119626000Y-39118000D02*
X119078000Y-39118000D01*
D19*
X114894000Y-30226000D02*
X112270000Y-27602000D01*
%TD*%
%TA.AperFunction,Conductor*%
%TO.N,GND*%
G36*
X25901444Y-55543999D02*
G01*
X25940486Y-55589056D01*
X25944951Y-55597820D01*
X26069890Y-55769786D01*
X26220213Y-55920109D01*
X26392179Y-56045048D01*
X26392181Y-56045049D01*
X26392184Y-56045051D01*
X26401493Y-56049794D01*
X26452290Y-56097766D01*
X26469087Y-56165587D01*
X26446552Y-56231722D01*
X26401505Y-56270760D01*
X26392446Y-56275376D01*
X26392440Y-56275380D01*
X26338282Y-56314727D01*
X26338282Y-56314728D01*
X26970591Y-56947037D01*
X26907007Y-56964075D01*
X26792993Y-57029901D01*
X26699901Y-57122993D01*
X26634075Y-57237007D01*
X26617037Y-57300591D01*
X25984728Y-56668282D01*
X25984727Y-56668282D01*
X25945380Y-56722440D01*
X25940483Y-56732051D01*
X25892506Y-56782845D01*
X25824684Y-56799638D01*
X25758550Y-56777098D01*
X25719516Y-56732048D01*
X25714626Y-56722452D01*
X25675270Y-56668282D01*
X25675269Y-56668282D01*
X25042962Y-57300590D01*
X25025925Y-57237007D01*
X24960099Y-57122993D01*
X24867007Y-57029901D01*
X24752993Y-56964075D01*
X24689409Y-56947037D01*
X25321716Y-56314728D01*
X25267547Y-56275373D01*
X25267547Y-56275372D01*
X25258500Y-56270763D01*
X25207706Y-56222788D01*
X25190912Y-56154966D01*
X25213451Y-56088832D01*
X25258508Y-56049793D01*
X25267816Y-56045051D01*
X25347007Y-55987515D01*
X25439786Y-55920109D01*
X25439788Y-55920106D01*
X25439792Y-55920104D01*
X25590104Y-55769792D01*
X25590106Y-55769788D01*
X25590109Y-55769786D01*
X25715048Y-55597820D01*
X25715047Y-55597820D01*
X25715051Y-55597816D01*
X25719514Y-55589054D01*
X25767488Y-55538259D01*
X25835308Y-55521463D01*
X25901444Y-55543999D01*
G37*
%TD.AperFunction*%
%TA.AperFunction,Conductor*%
G36*
X26634075Y-27142993D02*
G01*
X26699901Y-27257007D01*
X26792993Y-27350099D01*
X26907007Y-27415925D01*
X26970590Y-27432962D01*
X26338282Y-28065269D01*
X26338282Y-28065270D01*
X26392452Y-28104626D01*
X26392451Y-28104626D01*
X26401495Y-28109234D01*
X26452292Y-28157208D01*
X26469087Y-28225029D01*
X26446550Y-28291164D01*
X26401499Y-28330202D01*
X26392182Y-28334949D01*
X26220213Y-28459890D01*
X26069890Y-28610213D01*
X25944949Y-28782182D01*
X25940484Y-28790946D01*
X25892509Y-28841742D01*
X25824688Y-28858536D01*
X25758553Y-28835998D01*
X25719516Y-28790946D01*
X25715050Y-28782182D01*
X25590109Y-28610213D01*
X25439786Y-28459890D01*
X25267817Y-28334949D01*
X25258504Y-28330204D01*
X25207707Y-28282230D01*
X25190912Y-28214409D01*
X25213449Y-28148274D01*
X25258507Y-28109232D01*
X25267555Y-28104622D01*
X25321716Y-28065270D01*
X25321717Y-28065270D01*
X24689408Y-27432962D01*
X24752993Y-27415925D01*
X24867007Y-27350099D01*
X24960099Y-27257007D01*
X25025925Y-27142993D01*
X25042962Y-27079409D01*
X25675270Y-27711717D01*
X25675270Y-27711716D01*
X25714622Y-27657554D01*
X25719514Y-27647954D01*
X25767488Y-27597157D01*
X25835308Y-27580361D01*
X25901444Y-27602897D01*
X25940486Y-27647954D01*
X25945375Y-27657550D01*
X25984728Y-27711716D01*
X26617037Y-27079408D01*
X26634075Y-27142993D01*
G37*
%TD.AperFunction*%
%TA.AperFunction,Conductor*%
G36*
X25901444Y-25063999D02*
G01*
X25940486Y-25109056D01*
X25944951Y-25117820D01*
X26069890Y-25289786D01*
X26220213Y-25440109D01*
X26392179Y-25565048D01*
X26392181Y-25565049D01*
X26392184Y-25565051D01*
X26401493Y-25569794D01*
X26452290Y-25617766D01*
X26469087Y-25685587D01*
X26446552Y-25751722D01*
X26401505Y-25790760D01*
X26392446Y-25795376D01*
X26392440Y-25795380D01*
X26338282Y-25834727D01*
X26338282Y-25834728D01*
X26970591Y-26467037D01*
X26907007Y-26484075D01*
X26792993Y-26549901D01*
X26699901Y-26642993D01*
X26634075Y-26757007D01*
X26617037Y-26820591D01*
X25984728Y-26188282D01*
X25984727Y-26188282D01*
X25945380Y-26242440D01*
X25940483Y-26252051D01*
X25892506Y-26302845D01*
X25824684Y-26319638D01*
X25758550Y-26297098D01*
X25719516Y-26252048D01*
X25714626Y-26242452D01*
X25675270Y-26188282D01*
X25675269Y-26188282D01*
X25042962Y-26820590D01*
X25025925Y-26757007D01*
X24960099Y-26642993D01*
X24867007Y-26549901D01*
X24752993Y-26484075D01*
X24689409Y-26467037D01*
X25321716Y-25834728D01*
X25267547Y-25795373D01*
X25267547Y-25795372D01*
X25258500Y-25790763D01*
X25207706Y-25742788D01*
X25190912Y-25674966D01*
X25213451Y-25608832D01*
X25258508Y-25569793D01*
X25267816Y-25565051D01*
X25347007Y-25507515D01*
X25439786Y-25440109D01*
X25439788Y-25440106D01*
X25439792Y-25440104D01*
X25590104Y-25289792D01*
X25590106Y-25289788D01*
X25590109Y-25289786D01*
X25715048Y-25117820D01*
X25715047Y-25117820D01*
X25715051Y-25117816D01*
X25719514Y-25109054D01*
X25767488Y-25058259D01*
X25835308Y-25041463D01*
X25901444Y-25063999D01*
G37*
%TD.AperFunction*%
%TA.AperFunction,Conductor*%
G36*
X81660075Y-22754993D02*
G01*
X81725901Y-22869007D01*
X81818993Y-22962099D01*
X81933007Y-23027925D01*
X81996590Y-23044962D01*
X81364282Y-23677269D01*
X81364282Y-23677270D01*
X81418452Y-23716626D01*
X81418451Y-23716626D01*
X81427495Y-23721234D01*
X81478292Y-23769208D01*
X81495087Y-23837029D01*
X81472550Y-23903164D01*
X81427499Y-23942202D01*
X81418182Y-23946949D01*
X81246213Y-24071890D01*
X81095890Y-24222213D01*
X80970949Y-24394182D01*
X80966484Y-24402946D01*
X80918509Y-24453742D01*
X80850688Y-24470536D01*
X80784553Y-24447998D01*
X80745516Y-24402946D01*
X80741050Y-24394182D01*
X80616109Y-24222213D01*
X80465786Y-24071890D01*
X80293817Y-23946949D01*
X80284504Y-23942204D01*
X80233707Y-23894230D01*
X80216912Y-23826409D01*
X80239449Y-23760274D01*
X80284507Y-23721232D01*
X80293555Y-23716622D01*
X80347716Y-23677270D01*
X80347717Y-23677270D01*
X79715408Y-23044962D01*
X79778993Y-23027925D01*
X79893007Y-22962099D01*
X79986099Y-22869007D01*
X80051925Y-22754993D01*
X80068962Y-22691408D01*
X80701270Y-23323717D01*
X80701270Y-23323716D01*
X80740622Y-23269554D01*
X80745514Y-23259954D01*
X80793488Y-23209157D01*
X80861308Y-23192361D01*
X80927444Y-23214897D01*
X80966486Y-23259954D01*
X80971375Y-23269550D01*
X81010728Y-23323716D01*
X81643037Y-22691408D01*
X81660075Y-22754993D01*
G37*
%TD.AperFunction*%
%TA.AperFunction,Conductor*%
G36*
X81104418Y-20917417D02*
G01*
X81132673Y-20938569D01*
X81246213Y-21052109D01*
X81418179Y-21177048D01*
X81418181Y-21177049D01*
X81418184Y-21177051D01*
X81427493Y-21181794D01*
X81478290Y-21229766D01*
X81495087Y-21297587D01*
X81472552Y-21363722D01*
X81427505Y-21402760D01*
X81418446Y-21407376D01*
X81418440Y-21407380D01*
X81364282Y-21446727D01*
X81364282Y-21446728D01*
X81996591Y-22079037D01*
X81933007Y-22096075D01*
X81818993Y-22161901D01*
X81725901Y-22254993D01*
X81660075Y-22369007D01*
X81643037Y-22432591D01*
X81010728Y-21800282D01*
X81010727Y-21800282D01*
X80971380Y-21854440D01*
X80966483Y-21864051D01*
X80918506Y-21914845D01*
X80850684Y-21931638D01*
X80784550Y-21909098D01*
X80745516Y-21864048D01*
X80740626Y-21854452D01*
X80701270Y-21800282D01*
X80701269Y-21800282D01*
X80068962Y-22432590D01*
X80051925Y-22369007D01*
X79986099Y-22254993D01*
X79893007Y-22161901D01*
X79778993Y-22096075D01*
X79715409Y-22079037D01*
X80385627Y-21408818D01*
X80446950Y-21375333D01*
X80473307Y-21372499D01*
X80483872Y-21372499D01*
X80543483Y-21366091D01*
X80678331Y-21315796D01*
X80793546Y-21229546D01*
X80879796Y-21114331D01*
X80928810Y-20982916D01*
X80970681Y-20926984D01*
X81036145Y-20902566D01*
X81104418Y-20917417D01*
G37*
%TD.AperFunction*%
%TA.AperFunction,Conductor*%
G36*
X107060075Y-48154993D02*
G01*
X107125901Y-48269007D01*
X107218993Y-48362099D01*
X107333007Y-48427925D01*
X107396590Y-48444962D01*
X106764282Y-49077269D01*
X106764282Y-49077270D01*
X106818452Y-49116626D01*
X106818451Y-49116626D01*
X106827495Y-49121234D01*
X106878292Y-49169208D01*
X106895087Y-49237029D01*
X106872550Y-49303164D01*
X106827499Y-49342202D01*
X106818182Y-49346949D01*
X106646213Y-49471890D01*
X106495890Y-49622213D01*
X106370949Y-49794182D01*
X106366484Y-49802946D01*
X106318509Y-49853742D01*
X106250688Y-49870536D01*
X106184553Y-49847998D01*
X106145516Y-49802946D01*
X106141050Y-49794182D01*
X106016109Y-49622213D01*
X105865786Y-49471890D01*
X105693817Y-49346949D01*
X105684504Y-49342204D01*
X105633707Y-49294230D01*
X105616912Y-49226409D01*
X105639449Y-49160274D01*
X105684507Y-49121232D01*
X105693555Y-49116622D01*
X105747716Y-49077270D01*
X105747717Y-49077270D01*
X105115408Y-48444962D01*
X105178993Y-48427925D01*
X105293007Y-48362099D01*
X105386099Y-48269007D01*
X105451925Y-48154993D01*
X105468962Y-48091409D01*
X106101270Y-48723717D01*
X106101270Y-48723716D01*
X106140622Y-48669554D01*
X106145514Y-48659954D01*
X106193488Y-48609157D01*
X106261308Y-48592361D01*
X106327444Y-48614897D01*
X106366486Y-48659954D01*
X106371375Y-48669550D01*
X106410728Y-48723716D01*
X107043037Y-48091408D01*
X107060075Y-48154993D01*
G37*
%TD.AperFunction*%
%TA.AperFunction,Conductor*%
G36*
X106327444Y-46075999D02*
G01*
X106366486Y-46121056D01*
X106370951Y-46129820D01*
X106495890Y-46301786D01*
X106646213Y-46452109D01*
X106818179Y-46577048D01*
X106818181Y-46577049D01*
X106818184Y-46577051D01*
X106827493Y-46581794D01*
X106878290Y-46629766D01*
X106895087Y-46697587D01*
X106872552Y-46763722D01*
X106827505Y-46802760D01*
X106818446Y-46807376D01*
X106818440Y-46807380D01*
X106764282Y-46846727D01*
X106764282Y-46846728D01*
X107396591Y-47479037D01*
X107333007Y-47496075D01*
X107218993Y-47561901D01*
X107125901Y-47654993D01*
X107060075Y-47769007D01*
X107043037Y-47832591D01*
X106410728Y-47200282D01*
X106410727Y-47200282D01*
X106371380Y-47254440D01*
X106366483Y-47264051D01*
X106318506Y-47314845D01*
X106250684Y-47331638D01*
X106184550Y-47309098D01*
X106145516Y-47264048D01*
X106140626Y-47254452D01*
X106101270Y-47200282D01*
X106101269Y-47200282D01*
X105468962Y-47832590D01*
X105451925Y-47769007D01*
X105386099Y-47654993D01*
X105293007Y-47561901D01*
X105178993Y-47496075D01*
X105115409Y-47479037D01*
X105747716Y-46846728D01*
X105693547Y-46807373D01*
X105693547Y-46807372D01*
X105684500Y-46802763D01*
X105633706Y-46754788D01*
X105616912Y-46686966D01*
X105639451Y-46620832D01*
X105684508Y-46581793D01*
X105693816Y-46577051D01*
X105774621Y-46518343D01*
X105865786Y-46452109D01*
X105865788Y-46452106D01*
X105865792Y-46452104D01*
X106016104Y-46301792D01*
X106016106Y-46301788D01*
X106016109Y-46301786D01*
X106141048Y-46129820D01*
X106141047Y-46129820D01*
X106141051Y-46129816D01*
X106145514Y-46121054D01*
X106193488Y-46070259D01*
X106261308Y-46053463D01*
X106327444Y-46075999D01*
G37*
%TD.AperFunction*%
%TA.AperFunction,Conductor*%
G36*
X107060075Y-35454993D02*
G01*
X107125901Y-35569007D01*
X107218993Y-35662099D01*
X107333007Y-35727925D01*
X107396590Y-35744962D01*
X106764282Y-36377269D01*
X106764282Y-36377270D01*
X106818452Y-36416626D01*
X106818451Y-36416626D01*
X106827495Y-36421234D01*
X106878292Y-36469208D01*
X106895087Y-36537029D01*
X106872550Y-36603164D01*
X106827499Y-36642202D01*
X106818182Y-36646949D01*
X106646213Y-36771890D01*
X106495890Y-36922213D01*
X106370949Y-37094182D01*
X106366484Y-37102946D01*
X106318509Y-37153742D01*
X106250688Y-37170536D01*
X106184553Y-37147998D01*
X106145516Y-37102946D01*
X106141050Y-37094182D01*
X106016109Y-36922213D01*
X105865786Y-36771890D01*
X105693817Y-36646949D01*
X105684504Y-36642204D01*
X105633707Y-36594230D01*
X105616912Y-36526409D01*
X105639449Y-36460274D01*
X105684507Y-36421232D01*
X105693555Y-36416622D01*
X105747716Y-36377270D01*
X105747717Y-36377270D01*
X105115408Y-35744962D01*
X105178993Y-35727925D01*
X105293007Y-35662099D01*
X105386099Y-35569007D01*
X105451925Y-35454993D01*
X105468962Y-35391409D01*
X106101270Y-36023717D01*
X106101270Y-36023716D01*
X106140622Y-35969554D01*
X106145514Y-35959954D01*
X106193488Y-35909157D01*
X106261308Y-35892361D01*
X106327444Y-35914897D01*
X106366486Y-35959954D01*
X106371375Y-35969550D01*
X106410728Y-36023716D01*
X107043037Y-35391408D01*
X107060075Y-35454993D01*
G37*
%TD.AperFunction*%
%TA.AperFunction,Conductor*%
G36*
X106327444Y-33375999D02*
G01*
X106366486Y-33421056D01*
X106370951Y-33429820D01*
X106495890Y-33601786D01*
X106646213Y-33752109D01*
X106818179Y-33877048D01*
X106818181Y-33877049D01*
X106818184Y-33877051D01*
X106827493Y-33881794D01*
X106878290Y-33929766D01*
X106895087Y-33997587D01*
X106872552Y-34063722D01*
X106827505Y-34102760D01*
X106818446Y-34107376D01*
X106818440Y-34107380D01*
X106764282Y-34146727D01*
X106764282Y-34146728D01*
X107396591Y-34779037D01*
X107333007Y-34796075D01*
X107218993Y-34861901D01*
X107125901Y-34954993D01*
X107060075Y-35069007D01*
X107043037Y-35132591D01*
X106410728Y-34500282D01*
X106410727Y-34500282D01*
X106371380Y-34554440D01*
X106366483Y-34564051D01*
X106318506Y-34614845D01*
X106250684Y-34631638D01*
X106184550Y-34609098D01*
X106145516Y-34564048D01*
X106140626Y-34554452D01*
X106101270Y-34500282D01*
X106101269Y-34500282D01*
X105468962Y-35132590D01*
X105451925Y-35069007D01*
X105386099Y-34954993D01*
X105293007Y-34861901D01*
X105178993Y-34796075D01*
X105115409Y-34779037D01*
X105747716Y-34146728D01*
X105693547Y-34107373D01*
X105693547Y-34107372D01*
X105684500Y-34102763D01*
X105633706Y-34054788D01*
X105616912Y-33986966D01*
X105639451Y-33920832D01*
X105684508Y-33881793D01*
X105693816Y-33877051D01*
X105797450Y-33801757D01*
X105865786Y-33752109D01*
X105865788Y-33752106D01*
X105865792Y-33752104D01*
X106016104Y-33601792D01*
X106016106Y-33601788D01*
X106016109Y-33601786D01*
X106141048Y-33429820D01*
X106141047Y-33429820D01*
X106141051Y-33429816D01*
X106145514Y-33421054D01*
X106193488Y-33370259D01*
X106261308Y-33353463D01*
X106327444Y-33375999D01*
G37*
%TD.AperFunction*%
%TA.AperFunction,Conductor*%
G36*
X107060075Y-22754993D02*
G01*
X107125901Y-22869007D01*
X107218993Y-22962099D01*
X107333007Y-23027925D01*
X107396590Y-23044962D01*
X106764282Y-23677269D01*
X106764282Y-23677270D01*
X106818452Y-23716626D01*
X106818451Y-23716626D01*
X106827495Y-23721234D01*
X106878292Y-23769208D01*
X106895087Y-23837029D01*
X106872550Y-23903164D01*
X106827499Y-23942202D01*
X106818182Y-23946949D01*
X106646213Y-24071890D01*
X106495890Y-24222213D01*
X106370949Y-24394182D01*
X106366484Y-24402946D01*
X106318509Y-24453742D01*
X106250688Y-24470536D01*
X106184553Y-24447998D01*
X106145516Y-24402946D01*
X106141050Y-24394182D01*
X106016109Y-24222213D01*
X105865786Y-24071890D01*
X105693817Y-23946949D01*
X105684504Y-23942204D01*
X105633707Y-23894230D01*
X105616912Y-23826409D01*
X105639449Y-23760274D01*
X105684507Y-23721232D01*
X105693555Y-23716622D01*
X105747716Y-23677270D01*
X105747717Y-23677270D01*
X105115408Y-23044962D01*
X105178993Y-23027925D01*
X105293007Y-22962099D01*
X105386099Y-22869007D01*
X105451925Y-22754993D01*
X105468962Y-22691409D01*
X106101270Y-23323717D01*
X106101270Y-23323716D01*
X106140622Y-23269554D01*
X106145514Y-23259954D01*
X106193488Y-23209157D01*
X106261308Y-23192361D01*
X106327444Y-23214897D01*
X106366486Y-23259954D01*
X106371375Y-23269550D01*
X106410728Y-23323716D01*
X107043037Y-22691408D01*
X107060075Y-22754993D01*
G37*
%TD.AperFunction*%
%TA.AperFunction,Conductor*%
G36*
X106504418Y-20917417D02*
G01*
X106532673Y-20938569D01*
X106646213Y-21052109D01*
X106818179Y-21177048D01*
X106818181Y-21177049D01*
X106818184Y-21177051D01*
X106827493Y-21181794D01*
X106878290Y-21229766D01*
X106895087Y-21297587D01*
X106872552Y-21363722D01*
X106827505Y-21402760D01*
X106818446Y-21407376D01*
X106818440Y-21407380D01*
X106764282Y-21446727D01*
X106764282Y-21446728D01*
X107396591Y-22079037D01*
X107333007Y-22096075D01*
X107218993Y-22161901D01*
X107125901Y-22254993D01*
X107060075Y-22369007D01*
X107043037Y-22432591D01*
X106410728Y-21800282D01*
X106410727Y-21800282D01*
X106371380Y-21854440D01*
X106366483Y-21864051D01*
X106318506Y-21914845D01*
X106250684Y-21931638D01*
X106184550Y-21909098D01*
X106145516Y-21864048D01*
X106140626Y-21854452D01*
X106101270Y-21800282D01*
X106101269Y-21800282D01*
X105468962Y-22432590D01*
X105451925Y-22369007D01*
X105386099Y-22254993D01*
X105293007Y-22161901D01*
X105178993Y-22096075D01*
X105115409Y-22079037D01*
X105785627Y-21408818D01*
X105846950Y-21375333D01*
X105873307Y-21372499D01*
X105883872Y-21372499D01*
X105943483Y-21366091D01*
X106078331Y-21315796D01*
X106193546Y-21229546D01*
X106279796Y-21114331D01*
X106328810Y-20982916D01*
X106370681Y-20926984D01*
X106436145Y-20902566D01*
X106504418Y-20917417D01*
G37*
%TD.AperFunction*%
%TA.AperFunction,Conductor*%
G36*
X124642539Y-13220185D02*
G01*
X124688294Y-13272989D01*
X124699500Y-13324500D01*
X124699500Y-63129500D01*
X124679815Y-63196539D01*
X124627011Y-63242294D01*
X124575500Y-63253500D01*
X18658500Y-63253500D01*
X18591461Y-63233815D01*
X18545706Y-63181011D01*
X18534500Y-63129500D01*
X18534500Y-61117388D01*
X19346500Y-61117388D01*
X19346500Y-61310611D01*
X19376725Y-61501441D01*
X19436429Y-61685194D01*
X19524147Y-61857349D01*
X19637715Y-62013663D01*
X19774336Y-62150284D01*
X19930650Y-62263852D01*
X20102805Y-62351570D01*
X20194681Y-62381422D01*
X20286560Y-62411275D01*
X20374943Y-62425273D01*
X20477389Y-62441500D01*
X20477394Y-62441500D01*
X20670611Y-62441500D01*
X20763123Y-62426846D01*
X20861440Y-62411275D01*
X21045197Y-62351569D01*
X21217350Y-62263852D01*
X21373663Y-62150285D01*
X21510285Y-62013663D01*
X21623852Y-61857350D01*
X21711569Y-61685197D01*
X21771275Y-61501440D01*
X21786846Y-61403123D01*
X21801500Y-61310611D01*
X21801500Y-61117388D01*
X121286500Y-61117388D01*
X121286500Y-61310611D01*
X121316725Y-61501441D01*
X121376429Y-61685194D01*
X121464147Y-61857349D01*
X121577715Y-62013663D01*
X121714336Y-62150284D01*
X121870650Y-62263852D01*
X122042805Y-62351570D01*
X122134681Y-62381422D01*
X122226560Y-62411275D01*
X122314943Y-62425273D01*
X122417389Y-62441500D01*
X122417394Y-62441500D01*
X122610611Y-62441500D01*
X122703123Y-62426846D01*
X122801440Y-62411275D01*
X122985197Y-62351569D01*
X123157350Y-62263852D01*
X123313663Y-62150285D01*
X123450285Y-62013663D01*
X123563852Y-61857350D01*
X123651569Y-61685197D01*
X123711275Y-61501440D01*
X123726846Y-61403123D01*
X123741500Y-61310611D01*
X123741500Y-61117388D01*
X123723916Y-61006373D01*
X123711275Y-60926560D01*
X123651569Y-60742803D01*
X123563852Y-60570650D01*
X123450285Y-60414337D01*
X123313663Y-60277715D01*
X123157350Y-60164148D01*
X123157351Y-60164148D01*
X123157349Y-60164147D01*
X122985194Y-60076429D01*
X122801441Y-60016725D01*
X122610611Y-59986500D01*
X122610606Y-59986500D01*
X122417394Y-59986500D01*
X122417389Y-59986500D01*
X122226558Y-60016725D01*
X122042805Y-60076429D01*
X121870650Y-60164147D01*
X121714336Y-60277715D01*
X121577715Y-60414336D01*
X121464147Y-60570650D01*
X121376429Y-60742805D01*
X121316725Y-60926558D01*
X121286500Y-61117388D01*
X21801500Y-61117388D01*
X21783916Y-61006373D01*
X21771275Y-60926560D01*
X21711569Y-60742803D01*
X21623852Y-60570650D01*
X21510285Y-60414337D01*
X21373663Y-60277715D01*
X21217350Y-60164148D01*
X21217351Y-60164148D01*
X21217349Y-60164147D01*
X21045194Y-60076429D01*
X20861441Y-60016725D01*
X20670611Y-59986500D01*
X20670606Y-59986500D01*
X20477394Y-59986500D01*
X20477389Y-59986500D01*
X20286558Y-60016725D01*
X20102805Y-60076429D01*
X19930650Y-60164147D01*
X19774336Y-60277715D01*
X19637715Y-60414336D01*
X19524147Y-60570650D01*
X19436429Y-60742805D01*
X19376725Y-60926558D01*
X19346500Y-61117388D01*
X18534500Y-61117388D01*
X18534500Y-19223713D01*
X23209500Y-19223713D01*
X23209500Y-19436286D01*
X23220159Y-19503588D01*
X23242754Y-19646243D01*
X23262092Y-19705760D01*
X23308444Y-19848414D01*
X23404951Y-20037820D01*
X23529890Y-20209786D01*
X23680213Y-20360109D01*
X23852182Y-20485050D01*
X23860946Y-20489516D01*
X23911742Y-20537491D01*
X23928536Y-20605312D01*
X23905998Y-20671447D01*
X23860946Y-20710484D01*
X23852182Y-20714949D01*
X23680213Y-20839890D01*
X23529890Y-20990213D01*
X23404951Y-21162179D01*
X23308444Y-21351585D01*
X23242753Y-21553760D01*
X23209500Y-21763713D01*
X23209500Y-21976286D01*
X23238898Y-22161901D01*
X23242754Y-22186243D01*
X23300838Y-22365007D01*
X23308444Y-22388414D01*
X23404951Y-22577820D01*
X23529890Y-22749786D01*
X23680213Y-22900109D01*
X23852182Y-23025050D01*
X23860946Y-23029516D01*
X23911742Y-23077491D01*
X23928536Y-23145312D01*
X23905998Y-23211447D01*
X23860946Y-23250484D01*
X23852182Y-23254949D01*
X23680213Y-23379890D01*
X23529890Y-23530213D01*
X23404951Y-23702179D01*
X23308444Y-23891585D01*
X23242753Y-24093760D01*
X23209500Y-24303713D01*
X23209500Y-24516286D01*
X23229149Y-24640349D01*
X23242754Y-24726243D01*
X23262092Y-24785760D01*
X23308444Y-24928414D01*
X23404951Y-25117820D01*
X23529890Y-25289786D01*
X23680213Y-25440109D01*
X23852179Y-25565048D01*
X23852181Y-25565049D01*
X23852184Y-25565051D01*
X23861493Y-25569794D01*
X23912290Y-25617766D01*
X23929087Y-25685587D01*
X23906552Y-25751722D01*
X23861505Y-25790760D01*
X23852446Y-25795376D01*
X23852440Y-25795380D01*
X23798282Y-25834727D01*
X23798282Y-25834728D01*
X24430591Y-26467037D01*
X24367007Y-26484075D01*
X24252993Y-26549901D01*
X24159901Y-26642993D01*
X24094075Y-26757007D01*
X24077037Y-26820591D01*
X23444728Y-26188282D01*
X23444727Y-26188282D01*
X23405380Y-26242439D01*
X23308904Y-26431782D01*
X23243242Y-26633869D01*
X23243242Y-26633872D01*
X23210000Y-26843753D01*
X23210000Y-27056246D01*
X23243242Y-27266127D01*
X23243242Y-27266130D01*
X23308904Y-27468217D01*
X23405375Y-27657550D01*
X23444728Y-27711716D01*
X24077037Y-27079408D01*
X24094075Y-27142993D01*
X24159901Y-27257007D01*
X24252993Y-27350099D01*
X24367007Y-27415925D01*
X24430590Y-27432962D01*
X23798282Y-28065269D01*
X23798282Y-28065270D01*
X23852452Y-28104626D01*
X23852451Y-28104626D01*
X23861495Y-28109234D01*
X23912292Y-28157208D01*
X23929087Y-28225029D01*
X23906550Y-28291164D01*
X23861499Y-28330202D01*
X23852182Y-28334949D01*
X23680213Y-28459890D01*
X23529890Y-28610213D01*
X23404951Y-28782179D01*
X23308444Y-28971585D01*
X23242753Y-29173760D01*
X23209500Y-29383713D01*
X23209500Y-29596286D01*
X23229149Y-29720349D01*
X23242754Y-29806243D01*
X23292690Y-29959931D01*
X23308444Y-30008414D01*
X23404951Y-30197820D01*
X23529890Y-30369786D01*
X23680213Y-30520109D01*
X23852182Y-30645050D01*
X23860946Y-30649516D01*
X23911742Y-30697491D01*
X23928536Y-30765312D01*
X23905998Y-30831447D01*
X23860946Y-30870484D01*
X23852182Y-30874949D01*
X23680213Y-30999890D01*
X23529890Y-31150213D01*
X23404951Y-31322179D01*
X23308444Y-31511585D01*
X23242753Y-31713760D01*
X23209500Y-31923713D01*
X23209500Y-32136286D01*
X23230361Y-32268001D01*
X23242754Y-32346243D01*
X23304844Y-32537336D01*
X23308444Y-32548414D01*
X23404951Y-32737820D01*
X23529890Y-32909786D01*
X23680213Y-33060109D01*
X23852182Y-33185050D01*
X23860946Y-33189516D01*
X23911742Y-33237491D01*
X23928536Y-33305312D01*
X23905998Y-33371447D01*
X23860946Y-33410484D01*
X23852182Y-33414949D01*
X23680213Y-33539890D01*
X23529890Y-33690213D01*
X23404951Y-33862179D01*
X23308444Y-34051585D01*
X23242753Y-34253760D01*
X23209500Y-34463713D01*
X23209500Y-34676286D01*
X23238898Y-34861901D01*
X23242754Y-34886243D01*
X23265092Y-34954993D01*
X23308444Y-35088414D01*
X23404951Y-35277820D01*
X23529890Y-35449786D01*
X23680213Y-35600109D01*
X23852182Y-35725050D01*
X23860946Y-35729516D01*
X23911742Y-35777491D01*
X23928536Y-35845312D01*
X23905998Y-35911447D01*
X23860946Y-35950484D01*
X23852182Y-35954949D01*
X23680213Y-36079890D01*
X23529890Y-36230213D01*
X23404951Y-36402179D01*
X23308444Y-36591585D01*
X23242753Y-36793760D01*
X23209500Y-37003713D01*
X23209500Y-37216286D01*
X23229149Y-37340349D01*
X23242754Y-37426243D01*
X23262092Y-37485760D01*
X23308444Y-37628414D01*
X23404951Y-37817820D01*
X23529890Y-37989786D01*
X23680213Y-38140109D01*
X23852182Y-38265050D01*
X23860946Y-38269516D01*
X23911742Y-38317491D01*
X23928536Y-38385312D01*
X23905998Y-38451447D01*
X23860946Y-38490484D01*
X23852182Y-38494949D01*
X23680213Y-38619890D01*
X23529890Y-38770213D01*
X23404951Y-38942179D01*
X23308444Y-39131585D01*
X23242753Y-39333760D01*
X23222409Y-39462208D01*
X23209500Y-39543713D01*
X23209500Y-39756287D01*
X23210789Y-39764423D01*
X23229149Y-39880349D01*
X23242754Y-39966243D01*
X23301844Y-40148104D01*
X23308444Y-40168414D01*
X23404951Y-40357820D01*
X23529890Y-40529786D01*
X23680213Y-40680109D01*
X23852182Y-40805050D01*
X23860946Y-40809516D01*
X23911742Y-40857491D01*
X23928536Y-40925312D01*
X23905998Y-40991447D01*
X23860946Y-41030484D01*
X23852182Y-41034949D01*
X23680213Y-41159890D01*
X23529890Y-41310213D01*
X23404951Y-41482179D01*
X23308444Y-41671585D01*
X23242753Y-41873760D01*
X23209500Y-42083713D01*
X23209500Y-42296286D01*
X23241785Y-42500130D01*
X23242754Y-42506243D01*
X23289439Y-42649925D01*
X23308444Y-42708414D01*
X23404951Y-42897820D01*
X23529890Y-43069786D01*
X23680213Y-43220109D01*
X23852182Y-43345050D01*
X23860946Y-43349516D01*
X23911742Y-43397491D01*
X23928536Y-43465312D01*
X23905998Y-43531447D01*
X23860946Y-43570484D01*
X23852182Y-43574949D01*
X23680213Y-43699890D01*
X23529890Y-43850213D01*
X23404951Y-44022179D01*
X23308444Y-44211585D01*
X23242753Y-44413760D01*
X23222409Y-44542208D01*
X23209500Y-44623713D01*
X23209500Y-44836287D01*
X23210353Y-44841671D01*
X23241151Y-45036127D01*
X23242754Y-45046243D01*
X23262092Y-45105760D01*
X23308444Y-45248414D01*
X23404951Y-45437820D01*
X23529890Y-45609786D01*
X23680213Y-45760109D01*
X23852182Y-45885050D01*
X23860946Y-45889516D01*
X23911742Y-45937491D01*
X23928536Y-46005312D01*
X23905998Y-46071447D01*
X23860946Y-46110484D01*
X23852182Y-46114949D01*
X23680213Y-46239890D01*
X23529890Y-46390213D01*
X23404951Y-46562179D01*
X23308444Y-46751585D01*
X23242753Y-46953760D01*
X23209500Y-47163713D01*
X23209500Y-47376286D01*
X23238898Y-47561901D01*
X23242754Y-47586243D01*
X23265092Y-47654993D01*
X23308444Y-47788414D01*
X23404951Y-47977820D01*
X23529890Y-48149786D01*
X23680213Y-48300109D01*
X23852182Y-48425050D01*
X23860946Y-48429516D01*
X23911742Y-48477491D01*
X23928536Y-48545312D01*
X23905998Y-48611447D01*
X23860946Y-48650484D01*
X23852182Y-48654949D01*
X23680213Y-48779890D01*
X23529890Y-48930213D01*
X23404951Y-49102179D01*
X23308444Y-49291585D01*
X23242753Y-49493760D01*
X23209500Y-49703713D01*
X23209500Y-49916286D01*
X23229149Y-50040349D01*
X23242754Y-50126243D01*
X23267649Y-50202863D01*
X23308444Y-50328414D01*
X23404951Y-50517820D01*
X23529890Y-50689786D01*
X23680213Y-50840109D01*
X23852182Y-50965050D01*
X23860946Y-50969516D01*
X23911742Y-51017491D01*
X23928536Y-51085312D01*
X23905998Y-51151447D01*
X23860946Y-51190484D01*
X23852182Y-51194949D01*
X23680213Y-51319890D01*
X23529890Y-51470213D01*
X23404951Y-51642179D01*
X23308444Y-51831585D01*
X23242753Y-52033760D01*
X23209500Y-52243713D01*
X23209500Y-52456286D01*
X23241169Y-52656239D01*
X23242754Y-52666243D01*
X23305194Y-52858414D01*
X23308444Y-52868414D01*
X23404951Y-53057820D01*
X23529890Y-53229786D01*
X23680213Y-53380109D01*
X23852182Y-53505050D01*
X23860946Y-53509516D01*
X23911742Y-53557491D01*
X23928536Y-53625312D01*
X23905998Y-53691447D01*
X23860946Y-53730484D01*
X23852182Y-53734949D01*
X23680213Y-53859890D01*
X23529890Y-54010213D01*
X23404951Y-54182179D01*
X23308444Y-54371585D01*
X23242753Y-54573760D01*
X23209500Y-54783713D01*
X23209500Y-54996286D01*
X23242753Y-55206239D01*
X23308444Y-55408414D01*
X23404951Y-55597820D01*
X23529890Y-55769786D01*
X23680213Y-55920109D01*
X23852179Y-56045048D01*
X23852181Y-56045049D01*
X23852184Y-56045051D01*
X23861493Y-56049794D01*
X23912290Y-56097766D01*
X23929087Y-56165587D01*
X23906552Y-56231722D01*
X23861505Y-56270760D01*
X23852446Y-56275376D01*
X23852440Y-56275380D01*
X23798282Y-56314727D01*
X23798282Y-56314728D01*
X24430591Y-56947037D01*
X24367007Y-56964075D01*
X24252993Y-57029901D01*
X24159901Y-57122993D01*
X24094075Y-57237007D01*
X24077037Y-57300591D01*
X23444728Y-56668282D01*
X23444727Y-56668282D01*
X23405380Y-56722439D01*
X23308904Y-56911782D01*
X23243242Y-57113869D01*
X23243242Y-57113872D01*
X23210000Y-57323753D01*
X23210000Y-57536246D01*
X23243242Y-57746127D01*
X23243242Y-57746130D01*
X23308904Y-57948217D01*
X23405375Y-58137550D01*
X23444728Y-58191716D01*
X24077037Y-57559408D01*
X24094075Y-57622993D01*
X24159901Y-57737007D01*
X24252993Y-57830099D01*
X24367007Y-57895925D01*
X24430590Y-57912962D01*
X23798282Y-58545269D01*
X23798282Y-58545270D01*
X23852449Y-58584624D01*
X24041782Y-58681095D01*
X24243870Y-58746757D01*
X24453754Y-58780000D01*
X24666246Y-58780000D01*
X24876127Y-58746757D01*
X24876130Y-58746757D01*
X25078217Y-58681095D01*
X25267554Y-58584622D01*
X25321716Y-58545270D01*
X25321717Y-58545270D01*
X24689408Y-57912962D01*
X24752993Y-57895925D01*
X24867007Y-57830099D01*
X24960099Y-57737007D01*
X25025925Y-57622993D01*
X25042962Y-57559409D01*
X25675270Y-58191717D01*
X25675270Y-58191716D01*
X25714622Y-58137554D01*
X25719514Y-58127954D01*
X25767488Y-58077157D01*
X25835308Y-58060361D01*
X25901444Y-58082897D01*
X25940486Y-58127954D01*
X25945375Y-58137550D01*
X25984728Y-58191716D01*
X26617037Y-57559408D01*
X26634075Y-57622993D01*
X26699901Y-57737007D01*
X26792993Y-57830099D01*
X26907007Y-57895925D01*
X26970590Y-57912962D01*
X26338282Y-58545269D01*
X26338282Y-58545270D01*
X26392449Y-58584624D01*
X26581782Y-58681095D01*
X26783870Y-58746757D01*
X26993754Y-58780000D01*
X27206246Y-58780000D01*
X27416127Y-58746757D01*
X27416130Y-58746757D01*
X27618217Y-58681095D01*
X27807554Y-58584622D01*
X27861716Y-58545270D01*
X27861717Y-58545270D01*
X27229408Y-57912962D01*
X27292993Y-57895925D01*
X27407007Y-57830099D01*
X27500099Y-57737007D01*
X27565925Y-57622993D01*
X27582962Y-57559409D01*
X28215270Y-58191717D01*
X28215270Y-58191716D01*
X28254622Y-58137554D01*
X28351095Y-57948217D01*
X28416757Y-57746130D01*
X28416757Y-57746127D01*
X28450000Y-57536246D01*
X28450000Y-57323753D01*
X28416757Y-57113872D01*
X28416757Y-57113869D01*
X28351095Y-56911782D01*
X28254624Y-56722449D01*
X28215270Y-56668282D01*
X28215269Y-56668282D01*
X27582962Y-57300590D01*
X27565925Y-57237007D01*
X27500099Y-57122993D01*
X27407007Y-57029901D01*
X27292993Y-56964075D01*
X27229409Y-56947037D01*
X27861716Y-56314728D01*
X27807547Y-56275373D01*
X27807547Y-56275372D01*
X27798500Y-56270763D01*
X27747706Y-56222788D01*
X27730912Y-56154966D01*
X27753451Y-56088832D01*
X27798508Y-56049793D01*
X27807816Y-56045051D01*
X27887007Y-55987515D01*
X27979786Y-55920109D01*
X27979788Y-55920106D01*
X27979792Y-55920104D01*
X28130104Y-55769792D01*
X28130106Y-55769788D01*
X28130109Y-55769786D01*
X28255048Y-55597820D01*
X28255047Y-55597820D01*
X28255051Y-55597816D01*
X28351557Y-55408412D01*
X28417246Y-55206243D01*
X28450500Y-54996287D01*
X28450500Y-54783713D01*
X28417246Y-54573757D01*
X28351557Y-54371588D01*
X28255051Y-54182184D01*
X28255049Y-54182181D01*
X28255048Y-54182179D01*
X28130109Y-54010213D01*
X27979786Y-53859890D01*
X27807820Y-53734951D01*
X27807115Y-53734591D01*
X27799054Y-53730485D01*
X27748259Y-53682512D01*
X27731463Y-53614692D01*
X27753999Y-53548556D01*
X27799054Y-53509515D01*
X27807816Y-53505051D01*
X27829789Y-53489086D01*
X27979786Y-53380109D01*
X27979788Y-53380106D01*
X27979792Y-53380104D01*
X28130104Y-53229792D01*
X28130106Y-53229788D01*
X28130109Y-53229786D01*
X28255048Y-53057820D01*
X28255047Y-53057820D01*
X28255051Y-53057816D01*
X28351557Y-52868412D01*
X28417246Y-52666243D01*
X28450500Y-52456287D01*
X28450500Y-52243713D01*
X28417246Y-52033757D01*
X28351557Y-51831588D01*
X28255051Y-51642184D01*
X28255049Y-51642181D01*
X28255048Y-51642179D01*
X28130109Y-51470213D01*
X27979786Y-51319890D01*
X27807820Y-51194951D01*
X27807115Y-51194591D01*
X27799054Y-51190485D01*
X27748259Y-51142512D01*
X27731463Y-51074692D01*
X27753999Y-51008556D01*
X27799054Y-50969515D01*
X27807816Y-50965051D01*
X27907902Y-50892335D01*
X27979786Y-50840109D01*
X27979788Y-50840106D01*
X27979792Y-50840104D01*
X28130104Y-50689792D01*
X28130106Y-50689788D01*
X28130109Y-50689786D01*
X28255048Y-50517820D01*
X28255047Y-50517820D01*
X28255051Y-50517816D01*
X28351557Y-50328412D01*
X28417246Y-50126243D01*
X28450500Y-49916287D01*
X28450500Y-49703713D01*
X28417246Y-49493757D01*
X28351557Y-49291588D01*
X28255051Y-49102184D01*
X28255049Y-49102181D01*
X28255048Y-49102179D01*
X28130109Y-48930213D01*
X27979786Y-48779890D01*
X27807820Y-48654951D01*
X27807115Y-48654591D01*
X27799054Y-48650485D01*
X27748259Y-48602512D01*
X27731463Y-48534692D01*
X27753999Y-48468556D01*
X27799054Y-48429515D01*
X27807816Y-48425051D01*
X27894463Y-48362099D01*
X27979786Y-48300109D01*
X27979788Y-48300106D01*
X27979792Y-48300104D01*
X28130104Y-48149792D01*
X28130106Y-48149788D01*
X28130109Y-48149786D01*
X28255048Y-47977820D01*
X28255047Y-47977820D01*
X28255051Y-47977816D01*
X28351557Y-47788412D01*
X28417246Y-47586243D01*
X28450500Y-47376287D01*
X28450500Y-47163713D01*
X28417246Y-46953757D01*
X28351557Y-46751588D01*
X28255051Y-46562184D01*
X28255049Y-46562181D01*
X28255048Y-46562179D01*
X28130109Y-46390213D01*
X27979786Y-46239890D01*
X27807820Y-46114951D01*
X27807115Y-46114591D01*
X27799054Y-46110485D01*
X27748259Y-46062512D01*
X27731463Y-45994692D01*
X27753999Y-45928556D01*
X27799054Y-45889515D01*
X27807816Y-45885051D01*
X27855373Y-45850499D01*
X27979786Y-45760109D01*
X27979788Y-45760106D01*
X27979792Y-45760104D01*
X28130104Y-45609792D01*
X28130106Y-45609788D01*
X28130109Y-45609786D01*
X28255048Y-45437820D01*
X28255047Y-45437820D01*
X28255051Y-45437816D01*
X28351557Y-45248412D01*
X28417246Y-45046243D01*
X28450500Y-44836287D01*
X28450500Y-44623713D01*
X28417246Y-44413757D01*
X28351557Y-44211588D01*
X28255051Y-44022184D01*
X28255049Y-44022181D01*
X28255048Y-44022179D01*
X28130109Y-43850213D01*
X27979786Y-43699890D01*
X27807820Y-43574951D01*
X27807115Y-43574591D01*
X27799054Y-43570485D01*
X27748259Y-43522512D01*
X27731463Y-43454692D01*
X27753999Y-43388556D01*
X27799054Y-43349515D01*
X27807816Y-43345051D01*
X27880213Y-43292452D01*
X27979786Y-43220109D01*
X27979788Y-43220106D01*
X27979792Y-43220104D01*
X28130104Y-43069792D01*
X28130106Y-43069788D01*
X28130109Y-43069786D01*
X28255048Y-42897820D01*
X28255047Y-42897820D01*
X28255051Y-42897816D01*
X28351557Y-42708412D01*
X28417246Y-42506243D01*
X28450500Y-42296287D01*
X28450500Y-42083713D01*
X28417246Y-41873757D01*
X28351557Y-41671588D01*
X28255051Y-41482184D01*
X28255049Y-41482181D01*
X28255048Y-41482179D01*
X28130109Y-41310213D01*
X27979786Y-41159890D01*
X27807820Y-41034951D01*
X27807115Y-41034591D01*
X27799054Y-41030485D01*
X27748259Y-40982512D01*
X27731463Y-40914692D01*
X27753999Y-40848556D01*
X27799054Y-40809515D01*
X27807816Y-40805051D01*
X27938023Y-40710451D01*
X27979786Y-40680109D01*
X27979788Y-40680106D01*
X27979792Y-40680104D01*
X28130104Y-40529792D01*
X28130106Y-40529788D01*
X28130109Y-40529786D01*
X28255048Y-40357820D01*
X28255047Y-40357820D01*
X28255051Y-40357816D01*
X28351557Y-40168412D01*
X28417246Y-39966243D01*
X28450500Y-39756287D01*
X28450500Y-39543713D01*
X28417246Y-39333757D01*
X28351557Y-39131588D01*
X28255051Y-38942184D01*
X28255049Y-38942181D01*
X28255048Y-38942179D01*
X28130109Y-38770213D01*
X27979786Y-38619890D01*
X27807820Y-38494951D01*
X27807115Y-38494591D01*
X27799054Y-38490485D01*
X27748259Y-38442512D01*
X27731463Y-38374692D01*
X27753999Y-38308556D01*
X27799054Y-38269515D01*
X27807816Y-38265051D01*
X27844756Y-38238213D01*
X27979786Y-38140109D01*
X27979788Y-38140106D01*
X27979792Y-38140104D01*
X28130104Y-37989792D01*
X28130106Y-37989788D01*
X28130109Y-37989786D01*
X28255048Y-37817820D01*
X28255047Y-37817820D01*
X28255051Y-37817816D01*
X28351557Y-37628412D01*
X28417246Y-37426243D01*
X28450500Y-37216287D01*
X28450500Y-37003713D01*
X28417246Y-36793757D01*
X28351557Y-36591588D01*
X28255051Y-36402184D01*
X28255049Y-36402181D01*
X28255048Y-36402179D01*
X28130109Y-36230213D01*
X27979786Y-36079890D01*
X27807820Y-35954951D01*
X27807115Y-35954591D01*
X27799054Y-35950485D01*
X27748259Y-35902512D01*
X27731463Y-35834692D01*
X27753999Y-35768556D01*
X27799054Y-35729515D01*
X27807816Y-35725051D01*
X27829789Y-35709086D01*
X27979786Y-35600109D01*
X27979788Y-35600106D01*
X27979792Y-35600104D01*
X28130104Y-35449792D01*
X28130106Y-35449788D01*
X28130109Y-35449786D01*
X28255048Y-35277820D01*
X28255047Y-35277820D01*
X28255051Y-35277816D01*
X28351557Y-35088412D01*
X28417246Y-34886243D01*
X28450500Y-34676287D01*
X28450500Y-34463713D01*
X28417246Y-34253757D01*
X28351557Y-34051588D01*
X28255051Y-33862184D01*
X28255049Y-33862181D01*
X28255048Y-33862179D01*
X28130109Y-33690213D01*
X27979786Y-33539890D01*
X27807820Y-33414951D01*
X27807115Y-33414591D01*
X27799054Y-33410485D01*
X27748259Y-33362512D01*
X27731463Y-33294692D01*
X27753999Y-33228556D01*
X27799054Y-33189515D01*
X27807816Y-33185051D01*
X27829789Y-33169086D01*
X27979786Y-33060109D01*
X27979788Y-33060106D01*
X27979792Y-33060104D01*
X28130104Y-32909792D01*
X28130106Y-32909788D01*
X28130109Y-32909786D01*
X28255048Y-32737820D01*
X28255047Y-32737820D01*
X28255051Y-32737816D01*
X28351557Y-32548412D01*
X28417246Y-32346243D01*
X28450500Y-32136287D01*
X28450500Y-31923713D01*
X28417246Y-31713757D01*
X28351557Y-31511588D01*
X28255051Y-31322184D01*
X28255049Y-31322181D01*
X28255048Y-31322179D01*
X28130109Y-31150213D01*
X27979786Y-30999890D01*
X27807820Y-30874951D01*
X27807115Y-30874591D01*
X27799054Y-30870485D01*
X27748259Y-30822512D01*
X27731463Y-30754692D01*
X27753999Y-30688556D01*
X27799054Y-30649515D01*
X27807816Y-30645051D01*
X27840391Y-30621384D01*
X27979786Y-30520109D01*
X27979788Y-30520106D01*
X27979792Y-30520104D01*
X28130104Y-30369792D01*
X28130106Y-30369788D01*
X28130109Y-30369786D01*
X28255048Y-30197820D01*
X28255047Y-30197820D01*
X28255051Y-30197816D01*
X28351557Y-30008412D01*
X28417246Y-29806243D01*
X28450500Y-29596287D01*
X28450500Y-29383713D01*
X28417246Y-29173757D01*
X28351557Y-28971588D01*
X28255051Y-28782184D01*
X28241077Y-28762950D01*
X28167511Y-28661694D01*
X28167508Y-28661691D01*
X28130107Y-28610213D01*
X28130104Y-28610208D01*
X28112031Y-28592135D01*
X46069500Y-28592135D01*
X46069500Y-30387870D01*
X46069501Y-30387876D01*
X46075908Y-30447483D01*
X46126202Y-30582328D01*
X46126206Y-30582335D01*
X46212452Y-30697544D01*
X46212455Y-30697547D01*
X46327664Y-30783793D01*
X46327671Y-30783797D01*
X46459082Y-30832810D01*
X46515016Y-30874681D01*
X46539433Y-30940145D01*
X46524582Y-31008418D01*
X46503431Y-31036673D01*
X46389889Y-31150215D01*
X46264951Y-31322179D01*
X46168444Y-31511585D01*
X46102753Y-31713760D01*
X46069500Y-31923713D01*
X46069500Y-32136286D01*
X46090361Y-32268001D01*
X46102754Y-32346243D01*
X46164844Y-32537336D01*
X46168444Y-32548414D01*
X46264951Y-32737820D01*
X46389890Y-32909786D01*
X46540213Y-33060109D01*
X46712182Y-33185050D01*
X46720946Y-33189516D01*
X46771742Y-33237491D01*
X46788536Y-33305312D01*
X46765998Y-33371447D01*
X46720946Y-33410484D01*
X46712182Y-33414949D01*
X46540213Y-33539890D01*
X46389890Y-33690213D01*
X46264951Y-33862179D01*
X46168444Y-34051585D01*
X46102753Y-34253760D01*
X46069500Y-34463713D01*
X46069500Y-34676286D01*
X46098898Y-34861901D01*
X46102754Y-34886243D01*
X46125092Y-34954993D01*
X46168444Y-35088414D01*
X46264951Y-35277820D01*
X46389890Y-35449786D01*
X46540213Y-35600109D01*
X46712182Y-35725050D01*
X46720946Y-35729516D01*
X46771742Y-35777491D01*
X46788536Y-35845312D01*
X46765998Y-35911447D01*
X46720946Y-35950484D01*
X46712182Y-35954949D01*
X46540213Y-36079890D01*
X46389890Y-36230213D01*
X46264951Y-36402179D01*
X46168444Y-36591585D01*
X46102753Y-36793760D01*
X46069500Y-37003713D01*
X46069500Y-37216286D01*
X46089149Y-37340349D01*
X46102754Y-37426243D01*
X46122092Y-37485760D01*
X46168444Y-37628414D01*
X46264951Y-37817820D01*
X46389890Y-37989786D01*
X46540213Y-38140109D01*
X46712182Y-38265050D01*
X46720946Y-38269516D01*
X46771742Y-38317491D01*
X46788536Y-38385312D01*
X46765998Y-38451447D01*
X46720946Y-38490484D01*
X46712182Y-38494949D01*
X46540213Y-38619890D01*
X46389890Y-38770213D01*
X46264951Y-38942179D01*
X46168444Y-39131585D01*
X46102753Y-39333760D01*
X46082409Y-39462208D01*
X46069500Y-39543713D01*
X46069500Y-39756287D01*
X46070789Y-39764423D01*
X46089149Y-39880349D01*
X46102754Y-39966243D01*
X46161844Y-40148104D01*
X46168444Y-40168414D01*
X46264951Y-40357820D01*
X46389890Y-40529786D01*
X46540213Y-40680109D01*
X46712182Y-40805050D01*
X46720946Y-40809516D01*
X46771742Y-40857491D01*
X46788536Y-40925312D01*
X46765998Y-40991447D01*
X46720946Y-41030484D01*
X46712182Y-41034949D01*
X46540213Y-41159890D01*
X46389890Y-41310213D01*
X46264951Y-41482179D01*
X46168444Y-41671585D01*
X46102753Y-41873760D01*
X46069500Y-42083713D01*
X46069500Y-42296286D01*
X46101785Y-42500130D01*
X46102754Y-42506243D01*
X46149439Y-42649925D01*
X46168444Y-42708414D01*
X46264951Y-42897820D01*
X46389890Y-43069786D01*
X46540213Y-43220109D01*
X46712182Y-43345050D01*
X46720946Y-43349516D01*
X46771742Y-43397491D01*
X46788536Y-43465312D01*
X46765998Y-43531447D01*
X46720946Y-43570484D01*
X46712182Y-43574949D01*
X46540213Y-43699890D01*
X46389890Y-43850213D01*
X46264951Y-44022179D01*
X46168444Y-44211585D01*
X46102753Y-44413760D01*
X46082409Y-44542208D01*
X46069500Y-44623713D01*
X46069500Y-44836287D01*
X46070353Y-44841671D01*
X46101151Y-45036127D01*
X46102754Y-45046243D01*
X46122092Y-45105760D01*
X46168444Y-45248414D01*
X46264951Y-45437820D01*
X46389890Y-45609786D01*
X46540213Y-45760109D01*
X46712182Y-45885050D01*
X46720946Y-45889516D01*
X46771742Y-45937491D01*
X46788536Y-46005312D01*
X46765998Y-46071447D01*
X46720946Y-46110484D01*
X46712182Y-46114949D01*
X46540213Y-46239890D01*
X46389890Y-46390213D01*
X46264951Y-46562179D01*
X46168444Y-46751585D01*
X46102753Y-46953760D01*
X46069500Y-47163713D01*
X46069500Y-47376286D01*
X46098898Y-47561901D01*
X46102754Y-47586243D01*
X46125092Y-47654993D01*
X46168444Y-47788414D01*
X46264951Y-47977820D01*
X46389890Y-48149786D01*
X46540213Y-48300109D01*
X46712182Y-48425050D01*
X46720946Y-48429516D01*
X46771742Y-48477491D01*
X46788536Y-48545312D01*
X46765998Y-48611447D01*
X46720946Y-48650484D01*
X46712182Y-48654949D01*
X46540213Y-48779890D01*
X46389890Y-48930213D01*
X46264951Y-49102179D01*
X46168444Y-49291585D01*
X46102753Y-49493760D01*
X46069500Y-49703713D01*
X46069500Y-49916286D01*
X46089149Y-50040349D01*
X46102754Y-50126243D01*
X46127649Y-50202863D01*
X46168444Y-50328414D01*
X46264951Y-50517820D01*
X46389890Y-50689786D01*
X46540213Y-50840109D01*
X46712182Y-50965050D01*
X46720946Y-50969516D01*
X46771742Y-51017491D01*
X46788536Y-51085312D01*
X46765998Y-51151447D01*
X46720946Y-51190484D01*
X46712182Y-51194949D01*
X46540213Y-51319890D01*
X46389890Y-51470213D01*
X46264951Y-51642179D01*
X46168444Y-51831585D01*
X46102753Y-52033760D01*
X46069500Y-52243713D01*
X46069500Y-52456286D01*
X46101169Y-52656239D01*
X46102754Y-52666243D01*
X46165194Y-52858414D01*
X46168444Y-52868414D01*
X46264951Y-53057820D01*
X46389890Y-53229786D01*
X46540213Y-53380109D01*
X46712182Y-53505050D01*
X46720946Y-53509516D01*
X46771742Y-53557491D01*
X46788536Y-53625312D01*
X46765998Y-53691447D01*
X46720946Y-53730484D01*
X46712182Y-53734949D01*
X46540213Y-53859890D01*
X46389890Y-54010213D01*
X46264951Y-54182179D01*
X46168444Y-54371585D01*
X46102753Y-54573760D01*
X46069500Y-54783713D01*
X46069500Y-54996286D01*
X46102753Y-55206239D01*
X46168444Y-55408414D01*
X46264951Y-55597820D01*
X46389890Y-55769786D01*
X46540213Y-55920109D01*
X46712182Y-56045050D01*
X46720946Y-56049516D01*
X46771742Y-56097491D01*
X46788536Y-56165312D01*
X46765998Y-56231447D01*
X46720946Y-56270484D01*
X46712182Y-56274949D01*
X46540213Y-56399890D01*
X46389890Y-56550213D01*
X46264951Y-56722179D01*
X46168444Y-56911585D01*
X46102753Y-57113760D01*
X46069500Y-57323713D01*
X46069500Y-57536286D01*
X46102735Y-57746127D01*
X46102754Y-57746243D01*
X46155312Y-57908000D01*
X46168444Y-57948414D01*
X46264951Y-58137820D01*
X46389890Y-58309786D01*
X46540213Y-58460109D01*
X46712179Y-58585048D01*
X46712181Y-58585049D01*
X46712184Y-58585051D01*
X46901588Y-58681557D01*
X47103757Y-58747246D01*
X47313713Y-58780500D01*
X47313714Y-58780500D01*
X47526286Y-58780500D01*
X47526287Y-58780500D01*
X47736243Y-58747246D01*
X47938412Y-58681557D01*
X48127816Y-58585051D01*
X48182572Y-58545269D01*
X48299786Y-58460109D01*
X48299788Y-58460106D01*
X48299792Y-58460104D01*
X48450104Y-58309792D01*
X48450106Y-58309788D01*
X48450109Y-58309786D01*
X48575048Y-58137820D01*
X48575047Y-58137820D01*
X48575051Y-58137816D01*
X48579514Y-58129054D01*
X48627488Y-58078259D01*
X48695308Y-58061463D01*
X48761444Y-58083999D01*
X48800486Y-58129056D01*
X48804951Y-58137820D01*
X48929890Y-58309786D01*
X49080213Y-58460109D01*
X49252179Y-58585048D01*
X49252181Y-58585049D01*
X49252184Y-58585051D01*
X49441588Y-58681557D01*
X49643757Y-58747246D01*
X49853713Y-58780500D01*
X49853714Y-58780500D01*
X50066286Y-58780500D01*
X50066287Y-58780500D01*
X50276243Y-58747246D01*
X50478412Y-58681557D01*
X50667816Y-58585051D01*
X50722572Y-58545269D01*
X50839786Y-58460109D01*
X50839788Y-58460106D01*
X50839792Y-58460104D01*
X50990104Y-58309792D01*
X50990106Y-58309788D01*
X50990109Y-58309786D01*
X51115048Y-58137820D01*
X51115047Y-58137820D01*
X51115051Y-58137816D01*
X51211557Y-57948412D01*
X51277246Y-57746243D01*
X51310500Y-57536287D01*
X51310500Y-57323713D01*
X51277246Y-57113757D01*
X51211557Y-56911588D01*
X51143559Y-56778135D01*
X58081500Y-56778135D01*
X58081500Y-58573870D01*
X58081501Y-58573876D01*
X58087908Y-58633483D01*
X58138202Y-58768328D01*
X58138206Y-58768335D01*
X58224452Y-58883544D01*
X58224455Y-58883547D01*
X58339664Y-58969793D01*
X58339671Y-58969797D01*
X58474517Y-59020091D01*
X58474516Y-59020091D01*
X58481444Y-59020835D01*
X58534127Y-59026500D01*
X60329872Y-59026499D01*
X60389483Y-59020091D01*
X60524331Y-58969796D01*
X60639546Y-58883546D01*
X60725796Y-58768331D01*
X60776091Y-58633483D01*
X60782500Y-58573873D01*
X60782499Y-56778135D01*
X62041500Y-56778135D01*
X62041500Y-58573870D01*
X62041501Y-58573876D01*
X62047908Y-58633483D01*
X62098202Y-58768328D01*
X62098206Y-58768335D01*
X62184452Y-58883544D01*
X62184455Y-58883547D01*
X62299664Y-58969793D01*
X62299671Y-58969797D01*
X62434517Y-59020091D01*
X62434516Y-59020091D01*
X62441444Y-59020835D01*
X62494127Y-59026500D01*
X64289872Y-59026499D01*
X64349483Y-59020091D01*
X64484331Y-58969796D01*
X64599546Y-58883546D01*
X64685796Y-58768331D01*
X64734810Y-58636916D01*
X64776681Y-58580984D01*
X64842145Y-58556566D01*
X64910418Y-58571417D01*
X64938673Y-58592569D01*
X65052213Y-58706109D01*
X65224179Y-58831048D01*
X65224181Y-58831049D01*
X65224184Y-58831051D01*
X65413588Y-58927557D01*
X65615757Y-58993246D01*
X65825713Y-59026500D01*
X65825714Y-59026500D01*
X66038286Y-59026500D01*
X66038287Y-59026500D01*
X66248243Y-58993246D01*
X66450412Y-58927557D01*
X66639816Y-58831051D01*
X66726138Y-58768335D01*
X66811786Y-58706109D01*
X66811788Y-58706106D01*
X66811792Y-58706104D01*
X66962104Y-58555792D01*
X66962106Y-58555788D01*
X66962109Y-58555786D01*
X67087048Y-58383820D01*
X67087047Y-58383820D01*
X67087051Y-58383816D01*
X67091514Y-58375054D01*
X67139488Y-58324259D01*
X67207308Y-58307463D01*
X67273444Y-58329999D01*
X67312486Y-58375056D01*
X67316951Y-58383820D01*
X67441890Y-58555786D01*
X67592213Y-58706109D01*
X67764179Y-58831048D01*
X67764181Y-58831049D01*
X67764184Y-58831051D01*
X67953588Y-58927557D01*
X68155757Y-58993246D01*
X68365713Y-59026500D01*
X68365714Y-59026500D01*
X68578286Y-59026500D01*
X68578287Y-59026500D01*
X68788243Y-58993246D01*
X68990412Y-58927557D01*
X69179816Y-58831051D01*
X69266138Y-58768335D01*
X69351786Y-58706109D01*
X69351788Y-58706106D01*
X69351792Y-58706104D01*
X69502104Y-58555792D01*
X69502106Y-58555788D01*
X69502109Y-58555786D01*
X69627048Y-58383820D01*
X69627047Y-58383820D01*
X69627051Y-58383816D01*
X69723557Y-58194412D01*
X69789246Y-57992243D01*
X69822500Y-57782287D01*
X69822500Y-57569713D01*
X69789246Y-57359757D01*
X69723557Y-57157588D01*
X69627051Y-56968184D01*
X69614412Y-56950788D01*
X69526464Y-56829736D01*
X69526463Y-56829735D01*
X69502107Y-56796211D01*
X69466051Y-56760155D01*
X73326000Y-56760155D01*
X73326000Y-57408000D01*
X74242988Y-57408000D01*
X74210075Y-57465007D01*
X74176000Y-57592174D01*
X74176000Y-57723826D01*
X74210075Y-57850993D01*
X74242988Y-57908000D01*
X73326000Y-57908000D01*
X73326000Y-58555844D01*
X73332401Y-58615372D01*
X73332403Y-58615379D01*
X73382645Y-58750086D01*
X73382649Y-58750093D01*
X73468809Y-58865187D01*
X73468812Y-58865190D01*
X73583906Y-58951350D01*
X73583913Y-58951354D01*
X73718620Y-59001596D01*
X73718627Y-59001598D01*
X73778155Y-59007999D01*
X73778172Y-59008000D01*
X74426000Y-59008000D01*
X74426000Y-58091012D01*
X74483007Y-58123925D01*
X74610174Y-58158000D01*
X74741826Y-58158000D01*
X74868993Y-58123925D01*
X74926000Y-58091012D01*
X74926000Y-59008000D01*
X75573828Y-59008000D01*
X75573844Y-59007999D01*
X75633372Y-59001598D01*
X75633379Y-59001596D01*
X75768086Y-58951354D01*
X75768093Y-58951350D01*
X75883187Y-58865190D01*
X75883190Y-58865187D01*
X75969350Y-58750093D01*
X75969354Y-58750086D01*
X76019596Y-58615379D01*
X76019598Y-58615372D01*
X76025999Y-58555844D01*
X76026000Y-58555827D01*
X76026000Y-57908000D01*
X75109012Y-57908000D01*
X75141925Y-57850993D01*
X75176000Y-57723826D01*
X75176000Y-57592174D01*
X75141925Y-57465007D01*
X75109012Y-57408000D01*
X76026000Y-57408000D01*
X76026000Y-56760172D01*
X76025999Y-56760155D01*
X76019598Y-56700627D01*
X76019596Y-56700620D01*
X75969354Y-56565913D01*
X75969350Y-56565906D01*
X75883190Y-56450812D01*
X75883187Y-56450809D01*
X75768093Y-56364649D01*
X75768086Y-56364645D01*
X75633379Y-56314403D01*
X75633372Y-56314401D01*
X75573844Y-56308000D01*
X74926000Y-56308000D01*
X74926000Y-57224988D01*
X74868993Y-57192075D01*
X74741826Y-57158000D01*
X74610174Y-57158000D01*
X74483007Y-57192075D01*
X74426000Y-57224988D01*
X74426000Y-56308000D01*
X73778155Y-56308000D01*
X73718627Y-56314401D01*
X73718620Y-56314403D01*
X73583913Y-56364645D01*
X73583906Y-56364649D01*
X73468812Y-56450809D01*
X73468809Y-56450812D01*
X73382649Y-56565906D01*
X73382645Y-56565913D01*
X73332403Y-56700620D01*
X73332401Y-56700627D01*
X73326000Y-56760155D01*
X69466051Y-56760155D01*
X69351786Y-56645890D01*
X69179820Y-56520951D01*
X68990414Y-56424444D01*
X68990413Y-56424443D01*
X68990412Y-56424443D01*
X68788243Y-56358754D01*
X68788241Y-56358753D01*
X68788240Y-56358753D01*
X68626957Y-56333208D01*
X68578287Y-56325500D01*
X68365713Y-56325500D01*
X68317042Y-56333208D01*
X68155760Y-56358753D01*
X67953585Y-56424444D01*
X67764179Y-56520951D01*
X67592213Y-56645890D01*
X67441890Y-56796213D01*
X67316949Y-56968182D01*
X67312484Y-56976946D01*
X67264509Y-57027742D01*
X67196688Y-57044536D01*
X67130553Y-57021998D01*
X67091516Y-56976946D01*
X67087050Y-56968182D01*
X66962109Y-56796213D01*
X66811786Y-56645890D01*
X66639820Y-56520951D01*
X66450414Y-56424444D01*
X66450413Y-56424443D01*
X66450412Y-56424443D01*
X66248243Y-56358754D01*
X66248241Y-56358753D01*
X66248240Y-56358753D01*
X66086957Y-56333208D01*
X66038287Y-56325500D01*
X65825713Y-56325500D01*
X65777042Y-56333208D01*
X65615760Y-56358753D01*
X65413585Y-56424444D01*
X65224179Y-56520951D01*
X65052215Y-56645889D01*
X64938673Y-56759431D01*
X64877350Y-56792915D01*
X64807658Y-56787931D01*
X64751725Y-56746059D01*
X64734810Y-56715082D01*
X64685797Y-56583671D01*
X64685793Y-56583664D01*
X64599547Y-56468455D01*
X64599544Y-56468452D01*
X64484335Y-56382206D01*
X64484328Y-56382202D01*
X64349482Y-56331908D01*
X64349483Y-56331908D01*
X64289883Y-56325501D01*
X64289881Y-56325500D01*
X64289873Y-56325500D01*
X64289864Y-56325500D01*
X62494129Y-56325500D01*
X62494123Y-56325501D01*
X62434516Y-56331908D01*
X62299671Y-56382202D01*
X62299664Y-56382206D01*
X62184455Y-56468452D01*
X62184452Y-56468455D01*
X62098206Y-56583664D01*
X62098202Y-56583671D01*
X62047908Y-56718517D01*
X62041501Y-56778116D01*
X62041500Y-56778135D01*
X60782499Y-56778135D01*
X60782499Y-56778128D01*
X60776091Y-56718517D01*
X60769418Y-56700627D01*
X60725797Y-56583671D01*
X60725793Y-56583664D01*
X60639547Y-56468455D01*
X60639544Y-56468452D01*
X60524335Y-56382206D01*
X60524328Y-56382202D01*
X60389482Y-56331908D01*
X60389483Y-56331908D01*
X60329883Y-56325501D01*
X60329881Y-56325500D01*
X60329873Y-56325500D01*
X60329864Y-56325500D01*
X58534129Y-56325500D01*
X58534123Y-56325501D01*
X58474516Y-56331908D01*
X58339671Y-56382202D01*
X58339664Y-56382206D01*
X58224455Y-56468452D01*
X58224452Y-56468455D01*
X58138206Y-56583664D01*
X58138202Y-56583671D01*
X58087908Y-56718517D01*
X58081501Y-56778116D01*
X58081500Y-56778135D01*
X51143559Y-56778135D01*
X51115051Y-56722184D01*
X51099384Y-56700620D01*
X50990109Y-56550213D01*
X50839786Y-56399890D01*
X50667820Y-56274951D01*
X50659600Y-56270763D01*
X50659054Y-56270485D01*
X50608259Y-56222512D01*
X50591463Y-56154692D01*
X50613999Y-56088556D01*
X50659054Y-56049515D01*
X50667816Y-56045051D01*
X50721237Y-56006239D01*
X50839786Y-55920109D01*
X50839788Y-55920106D01*
X50839792Y-55920104D01*
X50990104Y-55769792D01*
X50990106Y-55769788D01*
X50990109Y-55769786D01*
X51115048Y-55597820D01*
X51115047Y-55597820D01*
X51115051Y-55597816D01*
X51211557Y-55408412D01*
X51277246Y-55206243D01*
X51310500Y-54996287D01*
X51310500Y-54783713D01*
X51277246Y-54573757D01*
X51211557Y-54371588D01*
X51115051Y-54182184D01*
X51115049Y-54182181D01*
X51115048Y-54182179D01*
X50990109Y-54010213D01*
X50839786Y-53859890D01*
X50667820Y-53734951D01*
X50667115Y-53734591D01*
X50659054Y-53730485D01*
X50608259Y-53682512D01*
X50591463Y-53614692D01*
X50613999Y-53548556D01*
X50659054Y-53509515D01*
X50667816Y-53505051D01*
X50689789Y-53489086D01*
X50839786Y-53380109D01*
X50839788Y-53380106D01*
X50839792Y-53380104D01*
X50990104Y-53229792D01*
X50990106Y-53229788D01*
X50990109Y-53229786D01*
X51115048Y-53057820D01*
X51115047Y-53057820D01*
X51115051Y-53057816D01*
X51211557Y-52868412D01*
X51277246Y-52666243D01*
X51310500Y-52456287D01*
X51310500Y-52243713D01*
X51277246Y-52033757D01*
X51211557Y-51831588D01*
X51115051Y-51642184D01*
X51115049Y-51642181D01*
X51115048Y-51642179D01*
X50990109Y-51470213D01*
X50839786Y-51319890D01*
X50667820Y-51194951D01*
X50667115Y-51194591D01*
X50659054Y-51190485D01*
X50608259Y-51142512D01*
X50591463Y-51074692D01*
X50613999Y-51008556D01*
X50659054Y-50969515D01*
X50667816Y-50965051D01*
X50767902Y-50892335D01*
X50839786Y-50840109D01*
X50839788Y-50840106D01*
X50839792Y-50840104D01*
X50990104Y-50689792D01*
X50990106Y-50689788D01*
X50990109Y-50689786D01*
X51115048Y-50517820D01*
X51115047Y-50517820D01*
X51115051Y-50517816D01*
X51211557Y-50328412D01*
X51277246Y-50126243D01*
X51310500Y-49916287D01*
X51310500Y-49703713D01*
X51277246Y-49493757D01*
X51211557Y-49291588D01*
X51115051Y-49102184D01*
X51115049Y-49102181D01*
X51115048Y-49102179D01*
X51020244Y-48971691D01*
X50990109Y-48930214D01*
X50990105Y-48930209D01*
X50962031Y-48902135D01*
X55349500Y-48902135D01*
X55349500Y-50697870D01*
X55349501Y-50697876D01*
X55355908Y-50757483D01*
X55406202Y-50892328D01*
X55406206Y-50892335D01*
X55492452Y-51007544D01*
X55492455Y-51007547D01*
X55607664Y-51093793D01*
X55607671Y-51093797D01*
X55739082Y-51142810D01*
X55795016Y-51184681D01*
X55819433Y-51250145D01*
X55804582Y-51318418D01*
X55783431Y-51346673D01*
X55669889Y-51460215D01*
X55544951Y-51632179D01*
X55448444Y-51821585D01*
X55382753Y-52023760D01*
X55349500Y-52233713D01*
X55349500Y-52446287D01*
X55382754Y-52656243D01*
X55431245Y-52805483D01*
X55448444Y-52858414D01*
X55544951Y-53047820D01*
X55669890Y-53219786D01*
X55820213Y-53370109D01*
X55992179Y-53495048D01*
X55992181Y-53495049D01*
X55992184Y-53495051D01*
X56181588Y-53591557D01*
X56383757Y-53657246D01*
X56593713Y-53690500D01*
X56593714Y-53690500D01*
X56806286Y-53690500D01*
X56806287Y-53690500D01*
X57016243Y-53657246D01*
X57218412Y-53591557D01*
X57407816Y-53495051D01*
X57429789Y-53479086D01*
X57579786Y-53370109D01*
X57579788Y-53370106D01*
X57579792Y-53370104D01*
X57730104Y-53219792D01*
X57730106Y-53219788D01*
X57730109Y-53219786D01*
X57828970Y-53083713D01*
X57855051Y-53047816D01*
X57855349Y-53047230D01*
X57875235Y-53008205D01*
X57923209Y-52957409D01*
X57985719Y-52940500D01*
X73881110Y-52940500D01*
X73948149Y-52960185D01*
X73968786Y-52976814D01*
X74055218Y-53063246D01*
X74194517Y-53156323D01*
X74349298Y-53220436D01*
X74513608Y-53253119D01*
X74513612Y-53253120D01*
X74513613Y-53253120D01*
X74681148Y-53253120D01*
X74681149Y-53253119D01*
X74845462Y-53220436D01*
X75000243Y-53156323D01*
X75139542Y-53063246D01*
X75258006Y-52944782D01*
X75351083Y-52805483D01*
X75415196Y-52650702D01*
X75447880Y-52486387D01*
X75447880Y-52318853D01*
X75415196Y-52154538D01*
X75362127Y-52026420D01*
X75351084Y-51999759D01*
X75258006Y-51860457D01*
X75139542Y-51741993D01*
X75000240Y-51648915D01*
X74845462Y-51584804D01*
X74845454Y-51584802D01*
X74681151Y-51552120D01*
X74681147Y-51552120D01*
X74513613Y-51552120D01*
X74513608Y-51552120D01*
X74349305Y-51584802D01*
X74349297Y-51584804D01*
X74194519Y-51648915D01*
X74090227Y-51718602D01*
X74023550Y-51739480D01*
X74021336Y-51739500D01*
X57985719Y-51739500D01*
X57918680Y-51719815D01*
X57875235Y-51671795D01*
X57855052Y-51632185D01*
X57855051Y-51632184D01*
X57730109Y-51460213D01*
X57616569Y-51346673D01*
X57583084Y-51285350D01*
X57588068Y-51215658D01*
X57629940Y-51159725D01*
X57660915Y-51142810D01*
X57792331Y-51093796D01*
X57907546Y-51007546D01*
X57993796Y-50892331D01*
X58044091Y-50757483D01*
X58050500Y-50697873D01*
X58050500Y-50524500D01*
X58070185Y-50457461D01*
X58122989Y-50411706D01*
X58174500Y-50400500D01*
X74038349Y-50400500D01*
X74105388Y-50420185D01*
X74126030Y-50436819D01*
X74149837Y-50460626D01*
X74242494Y-50522537D01*
X74289137Y-50553703D01*
X74443918Y-50617816D01*
X74608228Y-50650499D01*
X74608232Y-50650500D01*
X74608233Y-50650500D01*
X74775768Y-50650500D01*
X74775769Y-50650499D01*
X74940082Y-50617816D01*
X75094863Y-50553703D01*
X75234162Y-50460626D01*
X75352626Y-50342162D01*
X75445703Y-50202863D01*
X75509816Y-50048082D01*
X75542500Y-49883767D01*
X75542500Y-49716233D01*
X75509816Y-49551918D01*
X75445703Y-49397137D01*
X75408998Y-49342204D01*
X75352626Y-49257837D01*
X75234162Y-49139373D01*
X75094860Y-49046295D01*
X74940082Y-48982184D01*
X74940074Y-48982182D01*
X74775771Y-48949500D01*
X74775767Y-48949500D01*
X74608233Y-48949500D01*
X74608228Y-48949500D01*
X74443925Y-48982182D01*
X74443917Y-48982184D01*
X74289139Y-49046295D01*
X74149837Y-49139373D01*
X74149834Y-49139376D01*
X74126030Y-49163181D01*
X74064707Y-49196666D01*
X74038349Y-49199500D01*
X58174499Y-49199500D01*
X58107460Y-49179815D01*
X58061705Y-49127011D01*
X58050499Y-49075500D01*
X58050499Y-48902129D01*
X58050498Y-48902123D01*
X58050497Y-48902116D01*
X58044091Y-48842517D01*
X58043818Y-48841786D01*
X57993797Y-48707671D01*
X57993793Y-48707664D01*
X57907547Y-48592455D01*
X57907544Y-48592452D01*
X57792335Y-48506206D01*
X57792328Y-48506202D01*
X57657482Y-48455908D01*
X57657483Y-48455908D01*
X57597883Y-48449501D01*
X57597881Y-48449500D01*
X57597873Y-48449500D01*
X57597864Y-48449500D01*
X55802129Y-48449500D01*
X55802123Y-48449501D01*
X55742516Y-48455908D01*
X55607671Y-48506202D01*
X55607664Y-48506206D01*
X55492455Y-48592452D01*
X55492452Y-48592455D01*
X55406206Y-48707664D01*
X55406202Y-48707671D01*
X55355908Y-48842517D01*
X55349501Y-48902116D01*
X55349501Y-48902123D01*
X55349500Y-48902135D01*
X50962031Y-48902135D01*
X50839786Y-48779890D01*
X50667820Y-48654951D01*
X50667115Y-48654591D01*
X50659054Y-48650485D01*
X50608259Y-48602512D01*
X50591463Y-48534692D01*
X50613999Y-48468556D01*
X50659054Y-48429515D01*
X50667816Y-48425051D01*
X50754463Y-48362099D01*
X50839786Y-48300109D01*
X50839788Y-48300106D01*
X50839792Y-48300104D01*
X50990104Y-48149792D01*
X50990106Y-48149788D01*
X50990109Y-48149786D01*
X51115048Y-47977820D01*
X51115047Y-47977820D01*
X51115051Y-47977816D01*
X51211557Y-47788412D01*
X51277246Y-47586243D01*
X51310500Y-47376287D01*
X51310500Y-47163713D01*
X51277246Y-46953757D01*
X51211557Y-46751588D01*
X51115051Y-46562184D01*
X51115049Y-46562181D01*
X51115048Y-46562179D01*
X50990109Y-46390213D01*
X50839786Y-46239890D01*
X50667820Y-46114951D01*
X50667115Y-46114591D01*
X50659054Y-46110485D01*
X50608259Y-46062512D01*
X50591463Y-45994692D01*
X50613999Y-45928556D01*
X50659054Y-45889515D01*
X50667816Y-45885051D01*
X50715373Y-45850499D01*
X50839786Y-45760109D01*
X50839788Y-45760106D01*
X50839792Y-45760104D01*
X50990104Y-45609792D01*
X50990106Y-45609788D01*
X50990109Y-45609786D01*
X51115048Y-45437820D01*
X51115047Y-45437820D01*
X51115051Y-45437816D01*
X51211557Y-45248412D01*
X51277246Y-45046243D01*
X51310500Y-44836287D01*
X51310500Y-44623713D01*
X51277246Y-44413757D01*
X51211557Y-44211588D01*
X51115051Y-44022184D01*
X51115049Y-44022181D01*
X51115048Y-44022179D01*
X50990109Y-43850213D01*
X50839788Y-43699892D01*
X50839390Y-43699603D01*
X50839341Y-43699568D01*
X50705235Y-43602135D01*
X55349500Y-43602135D01*
X55349500Y-45397870D01*
X55349501Y-45397876D01*
X55355908Y-45457483D01*
X55406202Y-45592328D01*
X55406206Y-45592335D01*
X55492452Y-45707544D01*
X55492455Y-45707547D01*
X55607664Y-45793793D01*
X55607671Y-45793797D01*
X55742517Y-45844091D01*
X55742516Y-45844091D01*
X55749444Y-45844835D01*
X55802127Y-45850500D01*
X57597872Y-45850499D01*
X57657483Y-45844091D01*
X57792331Y-45793796D01*
X57907546Y-45707546D01*
X57993796Y-45592331D01*
X58044091Y-45457483D01*
X58050500Y-45397873D01*
X58050499Y-44413760D01*
X58050499Y-43602129D01*
X58050498Y-43602123D01*
X58050497Y-43602116D01*
X58044091Y-43542517D01*
X58041100Y-43534499D01*
X57993797Y-43407671D01*
X57993793Y-43407664D01*
X57932902Y-43326325D01*
X57932901Y-43326324D01*
X57907546Y-43292454D01*
X57884709Y-43275358D01*
X57792335Y-43206206D01*
X57792328Y-43206202D01*
X57657482Y-43155908D01*
X57657483Y-43155908D01*
X57597883Y-43149501D01*
X57597881Y-43149500D01*
X57597873Y-43149500D01*
X57597864Y-43149500D01*
X55802129Y-43149500D01*
X55802123Y-43149501D01*
X55742516Y-43155908D01*
X55607671Y-43206202D01*
X55607664Y-43206206D01*
X55492455Y-43292452D01*
X55492452Y-43292455D01*
X55406206Y-43407664D01*
X55406202Y-43407671D01*
X55355908Y-43542517D01*
X55350823Y-43589820D01*
X55349501Y-43602123D01*
X55349500Y-43602135D01*
X50705235Y-43602135D01*
X50667816Y-43574949D01*
X50651064Y-43566413D01*
X50643749Y-43561240D01*
X50627403Y-43540592D01*
X50608259Y-43522512D01*
X50606059Y-43513631D01*
X50600381Y-43506458D01*
X50597793Y-43480253D01*
X50591463Y-43454692D01*
X50594414Y-43446031D01*
X50593515Y-43436927D01*
X50605504Y-43413484D01*
X50613999Y-43388556D01*
X50621640Y-43381934D01*
X50625330Y-43374721D01*
X50639431Y-43366518D01*
X50659054Y-43349515D01*
X50667816Y-43345051D01*
X50740213Y-43292452D01*
X50839786Y-43220109D01*
X50839788Y-43220106D01*
X50839792Y-43220104D01*
X50990104Y-43069792D01*
X50990106Y-43069788D01*
X50990109Y-43069786D01*
X51115048Y-42897820D01*
X51115047Y-42897820D01*
X51115051Y-42897816D01*
X51211557Y-42708412D01*
X51277246Y-42506243D01*
X51310500Y-42296287D01*
X51310500Y-42083713D01*
X51309556Y-42077753D01*
X67150000Y-42077753D01*
X67150000Y-42290246D01*
X67183242Y-42500127D01*
X67183242Y-42500130D01*
X67248904Y-42702217D01*
X67345375Y-42891550D01*
X67384728Y-42945716D01*
X68017037Y-42313408D01*
X68034075Y-42376993D01*
X68099901Y-42491007D01*
X68192993Y-42584099D01*
X68307007Y-42649925D01*
X68370590Y-42666962D01*
X67738282Y-43299269D01*
X67738282Y-43299270D01*
X67792449Y-43338624D01*
X67981782Y-43435095D01*
X68183870Y-43500757D01*
X68393754Y-43534000D01*
X68606246Y-43534000D01*
X68816127Y-43500757D01*
X68816130Y-43500757D01*
X69018217Y-43435095D01*
X69207554Y-43338622D01*
X69261716Y-43299270D01*
X69261717Y-43299270D01*
X68629408Y-42666962D01*
X68692993Y-42649925D01*
X68807007Y-42584099D01*
X68900099Y-42491007D01*
X68965925Y-42376993D01*
X68982962Y-42313408D01*
X69653181Y-42983628D01*
X69686666Y-43044951D01*
X69689500Y-43071300D01*
X69689500Y-43081865D01*
X69689501Y-43081876D01*
X69695908Y-43141483D01*
X69746202Y-43276328D01*
X69746206Y-43276335D01*
X69832452Y-43391544D01*
X69832455Y-43391547D01*
X69947664Y-43477793D01*
X69947671Y-43477797D01*
X70082517Y-43528091D01*
X70082516Y-43528091D01*
X70089444Y-43528835D01*
X70142127Y-43534500D01*
X71937872Y-43534499D01*
X71997483Y-43528091D01*
X72098758Y-43490318D01*
X72142091Y-43482500D01*
X78300281Y-43482500D01*
X78367320Y-43502185D01*
X78410765Y-43550205D01*
X78430947Y-43589814D01*
X78430948Y-43589815D01*
X78555890Y-43761786D01*
X78706213Y-43912109D01*
X78878182Y-44037050D01*
X78886946Y-44041516D01*
X78937742Y-44089491D01*
X78954536Y-44157312D01*
X78931998Y-44223447D01*
X78886946Y-44262484D01*
X78878182Y-44266949D01*
X78706213Y-44391890D01*
X78555890Y-44542213D01*
X78430948Y-44714184D01*
X78430947Y-44714185D01*
X78410765Y-44753795D01*
X78362791Y-44804591D01*
X78300281Y-44821500D01*
X72380767Y-44821500D01*
X72313728Y-44801815D01*
X72281501Y-44771812D01*
X72268013Y-44753795D01*
X72247546Y-44726454D01*
X72132331Y-44640204D01*
X72132329Y-44640203D01*
X72132328Y-44640202D01*
X71997482Y-44589908D01*
X71997483Y-44589908D01*
X71937883Y-44583501D01*
X71937881Y-44583500D01*
X71937873Y-44583500D01*
X71937864Y-44583500D01*
X70142129Y-44583500D01*
X70142123Y-44583501D01*
X70082516Y-44589908D01*
X69947671Y-44640202D01*
X69947664Y-44640206D01*
X69832455Y-44726452D01*
X69832452Y-44726455D01*
X69746206Y-44841664D01*
X69746202Y-44841671D01*
X69695908Y-44976517D01*
X69689501Y-45036116D01*
X69689500Y-45036135D01*
X69689500Y-45046690D01*
X69669815Y-45113729D01*
X69653181Y-45134371D01*
X68982962Y-45804590D01*
X68965925Y-45741007D01*
X68900099Y-45626993D01*
X68807007Y-45533901D01*
X68692993Y-45468075D01*
X68629409Y-45451037D01*
X69261716Y-44818728D01*
X69207550Y-44779375D01*
X69018217Y-44682904D01*
X68816129Y-44617242D01*
X68606246Y-44584000D01*
X68393754Y-44584000D01*
X68183872Y-44617242D01*
X68183869Y-44617242D01*
X67981782Y-44682904D01*
X67792439Y-44779380D01*
X67738282Y-44818727D01*
X67738282Y-44818728D01*
X68370591Y-45451037D01*
X68307007Y-45468075D01*
X68192993Y-45533901D01*
X68099901Y-45626993D01*
X68034075Y-45741007D01*
X68017037Y-45804591D01*
X67384728Y-45172282D01*
X67384727Y-45172282D01*
X67345380Y-45226439D01*
X67248904Y-45415782D01*
X67183242Y-45617869D01*
X67183242Y-45617872D01*
X67150000Y-45827753D01*
X67150000Y-46040246D01*
X67183242Y-46250127D01*
X67183242Y-46250130D01*
X67248904Y-46452217D01*
X67345375Y-46641550D01*
X67384728Y-46695716D01*
X68017037Y-46063408D01*
X68034075Y-46126993D01*
X68099901Y-46241007D01*
X68192993Y-46334099D01*
X68307007Y-46399925D01*
X68370590Y-46416962D01*
X67738282Y-47049269D01*
X67738282Y-47049270D01*
X67792449Y-47088624D01*
X67981782Y-47185095D01*
X68183870Y-47250757D01*
X68393754Y-47284000D01*
X68606246Y-47284000D01*
X68816127Y-47250757D01*
X68816130Y-47250757D01*
X69018217Y-47185095D01*
X69207554Y-47088622D01*
X69261716Y-47049270D01*
X69261717Y-47049270D01*
X68629408Y-46416962D01*
X68692993Y-46399925D01*
X68807007Y-46334099D01*
X68900099Y-46241007D01*
X68965925Y-46126993D01*
X68982962Y-46063408D01*
X69653181Y-46733628D01*
X69686666Y-46794951D01*
X69689500Y-46821300D01*
X69689500Y-46831865D01*
X69689501Y-46831876D01*
X69695908Y-46891483D01*
X69746202Y-47026328D01*
X69746206Y-47026335D01*
X69832452Y-47141544D01*
X69832455Y-47141547D01*
X69947664Y-47227793D01*
X69947671Y-47227797D01*
X70082517Y-47278091D01*
X70082516Y-47278091D01*
X70089444Y-47278835D01*
X70142127Y-47284500D01*
X71937872Y-47284499D01*
X71997483Y-47278091D01*
X72132331Y-47227796D01*
X72247546Y-47141546D01*
X72333796Y-47026331D01*
X72384091Y-46891483D01*
X72390500Y-46831873D01*
X72390500Y-46146500D01*
X72410185Y-46079461D01*
X72462989Y-46033706D01*
X72514500Y-46022500D01*
X78300281Y-46022500D01*
X78367320Y-46042185D01*
X78410765Y-46090205D01*
X78430947Y-46129814D01*
X78430948Y-46129815D01*
X78555890Y-46301786D01*
X78706213Y-46452109D01*
X78878182Y-46577050D01*
X78886946Y-46581516D01*
X78937742Y-46629491D01*
X78954536Y-46697312D01*
X78931998Y-46763447D01*
X78886946Y-46802484D01*
X78878182Y-46806949D01*
X78706213Y-46931890D01*
X78555890Y-47082213D01*
X78430951Y-47254179D01*
X78334444Y-47443585D01*
X78268753Y-47645760D01*
X78235500Y-47855713D01*
X78235500Y-48068286D01*
X78268735Y-48278127D01*
X78268754Y-48278243D01*
X78326481Y-48455909D01*
X78334444Y-48480414D01*
X78430951Y-48669820D01*
X78555890Y-48841786D01*
X78706213Y-48992109D01*
X78878182Y-49117050D01*
X78886946Y-49121516D01*
X78937742Y-49169491D01*
X78954536Y-49237312D01*
X78931998Y-49303447D01*
X78886946Y-49342484D01*
X78878182Y-49346949D01*
X78706213Y-49471890D01*
X78555890Y-49622213D01*
X78430951Y-49794179D01*
X78334444Y-49983585D01*
X78268753Y-50185760D01*
X78238977Y-50373760D01*
X78235500Y-50395713D01*
X78235500Y-50608287D01*
X78268754Y-50818243D01*
X78329839Y-51006243D01*
X78334444Y-51020414D01*
X78430951Y-51209820D01*
X78555890Y-51381786D01*
X78706213Y-51532109D01*
X78878182Y-51657050D01*
X78886946Y-51661516D01*
X78937742Y-51709491D01*
X78954536Y-51777312D01*
X78931998Y-51843447D01*
X78886946Y-51882484D01*
X78878182Y-51886949D01*
X78706213Y-52011890D01*
X78555890Y-52162213D01*
X78430951Y-52334179D01*
X78334444Y-52523585D01*
X78268753Y-52725760D01*
X78235500Y-52935713D01*
X78235500Y-53148286D01*
X78246927Y-53220437D01*
X78268754Y-53358243D01*
X78316842Y-53506243D01*
X78334444Y-53560414D01*
X78430951Y-53749820D01*
X78555890Y-53921786D01*
X78706213Y-54072109D01*
X78878179Y-54197048D01*
X78878181Y-54197049D01*
X78878184Y-54197051D01*
X79067588Y-54293557D01*
X79269757Y-54359246D01*
X79479713Y-54392500D01*
X79479714Y-54392500D01*
X79692286Y-54392500D01*
X79692287Y-54392500D01*
X79902243Y-54359246D01*
X80104412Y-54293557D01*
X80293816Y-54197051D01*
X80315789Y-54181086D01*
X80465786Y-54072109D01*
X80465788Y-54072106D01*
X80465792Y-54072104D01*
X80616104Y-53921792D01*
X80616106Y-53921788D01*
X80616109Y-53921786D01*
X80741048Y-53749820D01*
X80741047Y-53749820D01*
X80741051Y-53749816D01*
X80745514Y-53741054D01*
X80793488Y-53690259D01*
X80861308Y-53673463D01*
X80927444Y-53695999D01*
X80966486Y-53741056D01*
X80970951Y-53749820D01*
X81095890Y-53921786D01*
X81246213Y-54072109D01*
X81418179Y-54197048D01*
X81418181Y-54197049D01*
X81418184Y-54197051D01*
X81607588Y-54293557D01*
X81809757Y-54359246D01*
X82019713Y-54392500D01*
X82019714Y-54392500D01*
X82232286Y-54392500D01*
X82232287Y-54392500D01*
X82442243Y-54359246D01*
X82644412Y-54293557D01*
X82833816Y-54197051D01*
X82855789Y-54181086D01*
X83005786Y-54072109D01*
X83005788Y-54072106D01*
X83005792Y-54072104D01*
X83156104Y-53921792D01*
X83156106Y-53921788D01*
X83156109Y-53921786D01*
X83281048Y-53749820D01*
X83281047Y-53749820D01*
X83281051Y-53749816D01*
X83377557Y-53560412D01*
X83443246Y-53358243D01*
X83476500Y-53148287D01*
X83476500Y-52935713D01*
X83443246Y-52725757D01*
X83377557Y-52523588D01*
X83281051Y-52334184D01*
X83281049Y-52334181D01*
X83281048Y-52334179D01*
X83156109Y-52162213D01*
X83005786Y-52011890D01*
X82833820Y-51886951D01*
X82833115Y-51886591D01*
X82825054Y-51882485D01*
X82774259Y-51834512D01*
X82757463Y-51766692D01*
X82779999Y-51700556D01*
X82825054Y-51661515D01*
X82833816Y-51657051D01*
X82868050Y-51632179D01*
X83005786Y-51532109D01*
X83005788Y-51532106D01*
X83005792Y-51532104D01*
X83156104Y-51381792D01*
X83156106Y-51381788D01*
X83156109Y-51381786D01*
X83265086Y-51231789D01*
X83281051Y-51209816D01*
X83377557Y-51020412D01*
X83443246Y-50818243D01*
X83476500Y-50608287D01*
X83476500Y-50395713D01*
X83443246Y-50185757D01*
X83377557Y-49983588D01*
X83281051Y-49794184D01*
X83281049Y-49794181D01*
X83281048Y-49794179D01*
X83156109Y-49622213D01*
X83005786Y-49471890D01*
X82833820Y-49346951D01*
X82833115Y-49346591D01*
X82825054Y-49342485D01*
X82774259Y-49294512D01*
X82757463Y-49226692D01*
X82779999Y-49160556D01*
X82825054Y-49121515D01*
X82833816Y-49117051D01*
X82888572Y-49077269D01*
X83005786Y-48992109D01*
X83005788Y-48992106D01*
X83005792Y-48992104D01*
X83156104Y-48841792D01*
X83156106Y-48841788D01*
X83156109Y-48841786D01*
X83281048Y-48669820D01*
X83281047Y-48669820D01*
X83281051Y-48669816D01*
X83377557Y-48480412D01*
X83443246Y-48278243D01*
X83476500Y-48068287D01*
X83476500Y-47855713D01*
X83443246Y-47645757D01*
X83377557Y-47443588D01*
X83281051Y-47254184D01*
X83281049Y-47254181D01*
X83281048Y-47254179D01*
X83156109Y-47082213D01*
X83005786Y-46931890D01*
X82833820Y-46806951D01*
X82825600Y-46802763D01*
X82825054Y-46802485D01*
X82774259Y-46754512D01*
X82757463Y-46686692D01*
X82779999Y-46620556D01*
X82825054Y-46581515D01*
X82833816Y-46577051D01*
X82855789Y-46561086D01*
X83005786Y-46452109D01*
X83005788Y-46452106D01*
X83005792Y-46452104D01*
X83156104Y-46301792D01*
X83156106Y-46301788D01*
X83156109Y-46301786D01*
X83281048Y-46129820D01*
X83281047Y-46129820D01*
X83281051Y-46129816D01*
X83377557Y-45940412D01*
X83443246Y-45738243D01*
X83476500Y-45528287D01*
X83476500Y-45315713D01*
X83443246Y-45105757D01*
X83377557Y-44903588D01*
X83281051Y-44714184D01*
X83281049Y-44714181D01*
X83281048Y-44714179D01*
X83156109Y-44542213D01*
X83005786Y-44391890D01*
X82833820Y-44266951D01*
X82833115Y-44266591D01*
X82825054Y-44262485D01*
X82774259Y-44214512D01*
X82757463Y-44146692D01*
X82779999Y-44080556D01*
X82825054Y-44041515D01*
X82833816Y-44037051D01*
X82855789Y-44021086D01*
X83005786Y-43912109D01*
X83005788Y-43912106D01*
X83005792Y-43912104D01*
X83156104Y-43761792D01*
X83156106Y-43761788D01*
X83156109Y-43761786D01*
X83272107Y-43602127D01*
X83281051Y-43589816D01*
X83377557Y-43400412D01*
X83443246Y-43198243D01*
X83476500Y-42988287D01*
X83476500Y-42775713D01*
X83443246Y-42565757D01*
X83377557Y-42363588D01*
X83281051Y-42174184D01*
X83281049Y-42174181D01*
X83281048Y-42174179D01*
X83156109Y-42002213D01*
X83005786Y-41851890D01*
X82833820Y-41726951D01*
X82833115Y-41726591D01*
X82825054Y-41722485D01*
X82774259Y-41674512D01*
X82757463Y-41606692D01*
X82779999Y-41540556D01*
X82825054Y-41501515D01*
X82833816Y-41497051D01*
X82862186Y-41476439D01*
X83005786Y-41372109D01*
X83005788Y-41372106D01*
X83005792Y-41372104D01*
X83156104Y-41221792D01*
X83156106Y-41221788D01*
X83156109Y-41221786D01*
X83281048Y-41049820D01*
X83281047Y-41049820D01*
X83281051Y-41049816D01*
X83377557Y-40860412D01*
X83443246Y-40658243D01*
X83476500Y-40448287D01*
X83476500Y-40235713D01*
X83443246Y-40025757D01*
X83377557Y-39823588D01*
X83281051Y-39634184D01*
X83281049Y-39634181D01*
X83281048Y-39634179D01*
X83156109Y-39462213D01*
X83005786Y-39311890D01*
X82833820Y-39186951D01*
X82832829Y-39186446D01*
X82825054Y-39182485D01*
X82774259Y-39134512D01*
X82757463Y-39066692D01*
X82779999Y-39000556D01*
X82825054Y-38961515D01*
X82833816Y-38957051D01*
X82897119Y-38911059D01*
X83005786Y-38832109D01*
X83005788Y-38832106D01*
X83005792Y-38832104D01*
X83156104Y-38681792D01*
X83156106Y-38681788D01*
X83156109Y-38681786D01*
X83281048Y-38509820D01*
X83281047Y-38509820D01*
X83281051Y-38509816D01*
X83377557Y-38320412D01*
X83443246Y-38118243D01*
X83476500Y-37908287D01*
X83476500Y-37695713D01*
X83443246Y-37485757D01*
X83377557Y-37283588D01*
X83281051Y-37094184D01*
X83281049Y-37094181D01*
X83281048Y-37094179D01*
X83156109Y-36922213D01*
X83005786Y-36771890D01*
X82833820Y-36646951D01*
X82833115Y-36646591D01*
X82825054Y-36642485D01*
X82774259Y-36594512D01*
X82757463Y-36526692D01*
X82779999Y-36460556D01*
X82825054Y-36421515D01*
X82833816Y-36417051D01*
X82897474Y-36370801D01*
X83005786Y-36292109D01*
X83005788Y-36292106D01*
X83005792Y-36292104D01*
X83156104Y-36141792D01*
X83156106Y-36141788D01*
X83156109Y-36141786D01*
X83281048Y-35969820D01*
X83281047Y-35969820D01*
X83281051Y-35969816D01*
X83377557Y-35780412D01*
X83443246Y-35578243D01*
X83476500Y-35368287D01*
X83476500Y-35155713D01*
X83443246Y-34945757D01*
X83377557Y-34743588D01*
X83281051Y-34554184D01*
X83281049Y-34554181D01*
X83281048Y-34554179D01*
X83156109Y-34382213D01*
X83005786Y-34231890D01*
X82833820Y-34106951D01*
X82825600Y-34102763D01*
X82825054Y-34102485D01*
X82774259Y-34054512D01*
X82757463Y-33986692D01*
X82779999Y-33920556D01*
X82825054Y-33881515D01*
X82833816Y-33877051D01*
X82937446Y-33801760D01*
X83005786Y-33752109D01*
X83005788Y-33752106D01*
X83005792Y-33752104D01*
X83156104Y-33601792D01*
X83156106Y-33601788D01*
X83156109Y-33601786D01*
X83281048Y-33429820D01*
X83281047Y-33429820D01*
X83281051Y-33429816D01*
X83377557Y-33240412D01*
X83443246Y-33038243D01*
X83476500Y-32828287D01*
X83476500Y-32615713D01*
X83443246Y-32405757D01*
X83377557Y-32203588D01*
X83281051Y-32014184D01*
X83281049Y-32014181D01*
X83281048Y-32014179D01*
X83156109Y-31842213D01*
X83005786Y-31691890D01*
X82833820Y-31566951D01*
X82833115Y-31566591D01*
X82825054Y-31562485D01*
X82774259Y-31514512D01*
X82757463Y-31446692D01*
X82779999Y-31380556D01*
X82825054Y-31341515D01*
X82833816Y-31337051D01*
X82855789Y-31321086D01*
X83005786Y-31212109D01*
X83005788Y-31212106D01*
X83005792Y-31212104D01*
X83156104Y-31061792D01*
X83156106Y-31061788D01*
X83156109Y-31061786D01*
X83281048Y-30889820D01*
X83281047Y-30889820D01*
X83281051Y-30889816D01*
X83377557Y-30700412D01*
X83443246Y-30498243D01*
X83476500Y-30288287D01*
X83476500Y-30075713D01*
X83443246Y-29865757D01*
X83377557Y-29663588D01*
X83281051Y-29474184D01*
X83281049Y-29474181D01*
X83281048Y-29474179D01*
X83156109Y-29302213D01*
X83005786Y-29151890D01*
X82833820Y-29026951D01*
X82833115Y-29026591D01*
X82825054Y-29022485D01*
X82774259Y-28974512D01*
X82757463Y-28906692D01*
X82779999Y-28840556D01*
X82825054Y-28801515D01*
X82833816Y-28797051D01*
X82855789Y-28781086D01*
X83005786Y-28672109D01*
X83005788Y-28672106D01*
X83005792Y-28672104D01*
X83156104Y-28521792D01*
X83156106Y-28521788D01*
X83156109Y-28521786D01*
X83281048Y-28349820D01*
X83281047Y-28349820D01*
X83281051Y-28349816D01*
X83377557Y-28160412D01*
X83443246Y-27958243D01*
X83476500Y-27748287D01*
X83476500Y-27535713D01*
X83443246Y-27325757D01*
X83377557Y-27123588D01*
X83281051Y-26934184D01*
X83281049Y-26934181D01*
X83281048Y-26934179D01*
X83156109Y-26762213D01*
X83005786Y-26611890D01*
X82833820Y-26486951D01*
X82828175Y-26484075D01*
X82825054Y-26482485D01*
X82774259Y-26434512D01*
X82757463Y-26366692D01*
X82779999Y-26300556D01*
X82825054Y-26261515D01*
X82833816Y-26257051D01*
X82866369Y-26233400D01*
X83005786Y-26132109D01*
X83005788Y-26132106D01*
X83005792Y-26132104D01*
X83156104Y-25981792D01*
X83156106Y-25981788D01*
X83156109Y-25981786D01*
X83281048Y-25809820D01*
X83281047Y-25809820D01*
X83281051Y-25809816D01*
X83377557Y-25620412D01*
X83443246Y-25418243D01*
X83476500Y-25208287D01*
X83476500Y-24995713D01*
X83443246Y-24785757D01*
X83377557Y-24583588D01*
X83281051Y-24394184D01*
X83281049Y-24394181D01*
X83281048Y-24394179D01*
X83156109Y-24222213D01*
X83005786Y-24071890D01*
X82833817Y-23946949D01*
X82824504Y-23942204D01*
X82773707Y-23894230D01*
X82756912Y-23826409D01*
X82779449Y-23760274D01*
X82824507Y-23721232D01*
X82833555Y-23716622D01*
X82887716Y-23677270D01*
X82887717Y-23677270D01*
X82255408Y-23044962D01*
X82318993Y-23027925D01*
X82433007Y-22962099D01*
X82526099Y-22869007D01*
X82591925Y-22754993D01*
X82608962Y-22691408D01*
X83241270Y-23323717D01*
X83241270Y-23323716D01*
X83280622Y-23269554D01*
X83377095Y-23080217D01*
X83442757Y-22878130D01*
X83442757Y-22878127D01*
X83476000Y-22668246D01*
X83476000Y-22455753D01*
X83442757Y-22245872D01*
X83442757Y-22245869D01*
X83377095Y-22043782D01*
X83280624Y-21854449D01*
X83241270Y-21800282D01*
X83241269Y-21800282D01*
X82608962Y-22432590D01*
X82591925Y-22369007D01*
X82526099Y-22254993D01*
X82433007Y-22161901D01*
X82318993Y-22096075D01*
X82255409Y-22079037D01*
X82887716Y-21446728D01*
X82833547Y-21407373D01*
X82833547Y-21407372D01*
X82824500Y-21402763D01*
X82773706Y-21354788D01*
X82756912Y-21286966D01*
X82779451Y-21220832D01*
X82824508Y-21181793D01*
X82833816Y-21177051D01*
X82920147Y-21114328D01*
X83005786Y-21052109D01*
X83005788Y-21052106D01*
X83005792Y-21052104D01*
X83156104Y-20901792D01*
X83156106Y-20901788D01*
X83156109Y-20901786D01*
X83281048Y-20729820D01*
X83281047Y-20729820D01*
X83281051Y-20729816D01*
X83377557Y-20540412D01*
X83443246Y-20338243D01*
X83476500Y-20128287D01*
X83476500Y-19915713D01*
X83443246Y-19705757D01*
X83377557Y-19503588D01*
X83281051Y-19314184D01*
X83267077Y-19294950D01*
X83193511Y-19193694D01*
X83193508Y-19193691D01*
X83156107Y-19142213D01*
X83156104Y-19142208D01*
X83138031Y-19124135D01*
X103635500Y-19124135D01*
X103635500Y-20919870D01*
X103635501Y-20919876D01*
X103641908Y-20979483D01*
X103692202Y-21114328D01*
X103692206Y-21114335D01*
X103778452Y-21229544D01*
X103778455Y-21229547D01*
X103893664Y-21315793D01*
X103893671Y-21315797D01*
X103938618Y-21332561D01*
X104028517Y-21366091D01*
X104088127Y-21372500D01*
X104098685Y-21372499D01*
X104165723Y-21392179D01*
X104186372Y-21408818D01*
X104856591Y-22079037D01*
X104793007Y-22096075D01*
X104678993Y-22161901D01*
X104585901Y-22254993D01*
X104520075Y-22369007D01*
X104503037Y-22432591D01*
X103870728Y-21800282D01*
X103870727Y-21800282D01*
X103831380Y-21854439D01*
X103734904Y-22043782D01*
X103669242Y-22245869D01*
X103669242Y-22245872D01*
X103636000Y-22455753D01*
X103636000Y-22668246D01*
X103669242Y-22878127D01*
X103669242Y-22878130D01*
X103734904Y-23080217D01*
X103831375Y-23269550D01*
X103870728Y-23323716D01*
X104503037Y-22691408D01*
X104520075Y-22754993D01*
X104585901Y-22869007D01*
X104678993Y-22962099D01*
X104793007Y-23027925D01*
X104856590Y-23044962D01*
X104224282Y-23677269D01*
X104224282Y-23677270D01*
X104278452Y-23716626D01*
X104278451Y-23716626D01*
X104287495Y-23721234D01*
X104338292Y-23769208D01*
X104355087Y-23837029D01*
X104332550Y-23903164D01*
X104287499Y-23942202D01*
X104278182Y-23946949D01*
X104106213Y-24071890D01*
X103955890Y-24222213D01*
X103830951Y-24394179D01*
X103734444Y-24583585D01*
X103668753Y-24785760D01*
X103646159Y-24928414D01*
X103635500Y-24995713D01*
X103635500Y-25208287D01*
X103645534Y-25271644D01*
X103666316Y-25402855D01*
X103668754Y-25418243D01*
X103733583Y-25617766D01*
X103734444Y-25620414D01*
X103830951Y-25809820D01*
X103955890Y-25981786D01*
X104106213Y-26132109D01*
X104278182Y-26257050D01*
X104286946Y-26261516D01*
X104337742Y-26309491D01*
X104354536Y-26377312D01*
X104331998Y-26443447D01*
X104286946Y-26482484D01*
X104278182Y-26486949D01*
X104106213Y-26611890D01*
X103955890Y-26762213D01*
X103830951Y-26934179D01*
X103734444Y-27123585D01*
X103668753Y-27325760D01*
X103646190Y-27468217D01*
X103635500Y-27535713D01*
X103635500Y-27748287D01*
X103668754Y-27958243D01*
X103729730Y-28145908D01*
X103734444Y-28160414D01*
X103830951Y-28349820D01*
X103955890Y-28521786D01*
X104106213Y-28672109D01*
X104278182Y-28797050D01*
X104286946Y-28801516D01*
X104337742Y-28849491D01*
X104354536Y-28917312D01*
X104331998Y-28983447D01*
X104286946Y-29022484D01*
X104278182Y-29026949D01*
X104106213Y-29151890D01*
X103955890Y-29302213D01*
X103830951Y-29474179D01*
X103734444Y-29663585D01*
X103668753Y-29865760D01*
X103635500Y-30075713D01*
X103635500Y-30288286D01*
X103651272Y-30387870D01*
X103668754Y-30498243D01*
X103733876Y-30698668D01*
X103734444Y-30700414D01*
X103830951Y-30889820D01*
X103955890Y-31061786D01*
X104106213Y-31212109D01*
X104278182Y-31337050D01*
X104286946Y-31341516D01*
X104337742Y-31389491D01*
X104354536Y-31457312D01*
X104331998Y-31523447D01*
X104286946Y-31562484D01*
X104278182Y-31566949D01*
X104106213Y-31691890D01*
X103955890Y-31842213D01*
X103830951Y-32014179D01*
X103734444Y-32203585D01*
X103668753Y-32405760D01*
X103635500Y-32615713D01*
X103635500Y-32828286D01*
X103656828Y-32962949D01*
X103668754Y-33038243D01*
X103733728Y-33238213D01*
X103734444Y-33240414D01*
X103830951Y-33429820D01*
X103955890Y-33601786D01*
X104106213Y-33752109D01*
X104278179Y-33877048D01*
X104278181Y-33877049D01*
X104278184Y-33877051D01*
X104287493Y-33881794D01*
X104338290Y-33929766D01*
X104355087Y-33997587D01*
X104332552Y-34063722D01*
X104287505Y-34102760D01*
X104278446Y-34107376D01*
X104278440Y-34107380D01*
X104224282Y-34146727D01*
X104224282Y-34146728D01*
X104856591Y-34779037D01*
X104793007Y-34796075D01*
X104678993Y-34861901D01*
X104585901Y-34954993D01*
X104520075Y-35069007D01*
X104503037Y-35132591D01*
X103870728Y-34500282D01*
X103870727Y-34500282D01*
X103831380Y-34554439D01*
X103734904Y-34743782D01*
X103669242Y-34945869D01*
X103669242Y-34945872D01*
X103636000Y-35155753D01*
X103636000Y-35368246D01*
X103669242Y-35578127D01*
X103669242Y-35578130D01*
X103734904Y-35780217D01*
X103831375Y-35969550D01*
X103870728Y-36023716D01*
X104503037Y-35391408D01*
X104520075Y-35454993D01*
X104585901Y-35569007D01*
X104678993Y-35662099D01*
X104793007Y-35727925D01*
X104856590Y-35744962D01*
X104224282Y-36377269D01*
X104224282Y-36377270D01*
X104278452Y-36416626D01*
X104278451Y-36416626D01*
X104287495Y-36421234D01*
X104338292Y-36469208D01*
X104355087Y-36537029D01*
X104332550Y-36603164D01*
X104287499Y-36642202D01*
X104278182Y-36646949D01*
X104106213Y-36771890D01*
X103955890Y-36922213D01*
X103830951Y-37094179D01*
X103734444Y-37283585D01*
X103668753Y-37485760D01*
X103635500Y-37695713D01*
X103635500Y-37908286D01*
X103667851Y-38112547D01*
X103668754Y-38118243D01*
X103713555Y-38256127D01*
X103734444Y-38320414D01*
X103830951Y-38509820D01*
X103955890Y-38681786D01*
X104106213Y-38832109D01*
X104278182Y-38957050D01*
X104286946Y-38961516D01*
X104337742Y-39009491D01*
X104354536Y-39077312D01*
X104331998Y-39143447D01*
X104286946Y-39182484D01*
X104278182Y-39186949D01*
X104106213Y-39311890D01*
X103955890Y-39462213D01*
X103830951Y-39634179D01*
X103734444Y-39823585D01*
X103668753Y-40025760D01*
X103646159Y-40168414D01*
X103635500Y-40235713D01*
X103635500Y-40448287D01*
X103645534Y-40511644D01*
X103667778Y-40652085D01*
X103668754Y-40658243D01*
X103725861Y-40834000D01*
X103734444Y-40860414D01*
X103830951Y-41049820D01*
X103955890Y-41221786D01*
X104106213Y-41372109D01*
X104278182Y-41497050D01*
X104286946Y-41501516D01*
X104337742Y-41549491D01*
X104354536Y-41617312D01*
X104331998Y-41683447D01*
X104286946Y-41722484D01*
X104278182Y-41726949D01*
X104106213Y-41851890D01*
X103955890Y-42002213D01*
X103830951Y-42174179D01*
X103734444Y-42363585D01*
X103668753Y-42565760D01*
X103635500Y-42775713D01*
X103635500Y-42988286D01*
X103662048Y-43155908D01*
X103668754Y-43198243D01*
X103731562Y-43391546D01*
X103734444Y-43400414D01*
X103830951Y-43589820D01*
X103955890Y-43761786D01*
X104106213Y-43912109D01*
X104278182Y-44037050D01*
X104286946Y-44041516D01*
X104337742Y-44089491D01*
X104354536Y-44157312D01*
X104331998Y-44223447D01*
X104286946Y-44262484D01*
X104278182Y-44266949D01*
X104106213Y-44391890D01*
X103955890Y-44542213D01*
X103830951Y-44714179D01*
X103734444Y-44903585D01*
X103668753Y-45105760D01*
X103635500Y-45315713D01*
X103635500Y-45528286D01*
X103666437Y-45723619D01*
X103668754Y-45738243D01*
X103732359Y-45933999D01*
X103734444Y-45940414D01*
X103830951Y-46129820D01*
X103955890Y-46301786D01*
X104106213Y-46452109D01*
X104278179Y-46577048D01*
X104278181Y-46577049D01*
X104278184Y-46577051D01*
X104287493Y-46581794D01*
X104338290Y-46629766D01*
X104355087Y-46697587D01*
X104332552Y-46763722D01*
X104287505Y-46802760D01*
X104278446Y-46807376D01*
X104278440Y-46807380D01*
X104224282Y-46846727D01*
X104224282Y-46846728D01*
X104856591Y-47479037D01*
X104793007Y-47496075D01*
X104678993Y-47561901D01*
X104585901Y-47654993D01*
X104520075Y-47769007D01*
X104503037Y-47832591D01*
X103870728Y-47200282D01*
X103870727Y-47200282D01*
X103831380Y-47254439D01*
X103734904Y-47443782D01*
X103669242Y-47645869D01*
X103669242Y-47645872D01*
X103636000Y-47855753D01*
X103636000Y-48068246D01*
X103669242Y-48278127D01*
X103669242Y-48278130D01*
X103734904Y-48480217D01*
X103831375Y-48669550D01*
X103870728Y-48723716D01*
X104503037Y-48091408D01*
X104520075Y-48154993D01*
X104585901Y-48269007D01*
X104678993Y-48362099D01*
X104793007Y-48427925D01*
X104856590Y-48444962D01*
X104224282Y-49077269D01*
X104224282Y-49077270D01*
X104278452Y-49116626D01*
X104278451Y-49116626D01*
X104287495Y-49121234D01*
X104338292Y-49169208D01*
X104355087Y-49237029D01*
X104332550Y-49303164D01*
X104287499Y-49342202D01*
X104278182Y-49346949D01*
X104106213Y-49471890D01*
X103955890Y-49622213D01*
X103830951Y-49794179D01*
X103734444Y-49983585D01*
X103668753Y-50185760D01*
X103638977Y-50373760D01*
X103635500Y-50395713D01*
X103635500Y-50608287D01*
X103668754Y-50818243D01*
X103729839Y-51006243D01*
X103734444Y-51020414D01*
X103830951Y-51209820D01*
X103955890Y-51381786D01*
X104106213Y-51532109D01*
X104278182Y-51657050D01*
X104286946Y-51661516D01*
X104337742Y-51709491D01*
X104354536Y-51777312D01*
X104331998Y-51843447D01*
X104286946Y-51882484D01*
X104278182Y-51886949D01*
X104106213Y-52011890D01*
X103955890Y-52162213D01*
X103830951Y-52334179D01*
X103734444Y-52523585D01*
X103668753Y-52725760D01*
X103635500Y-52935713D01*
X103635500Y-53148286D01*
X103646927Y-53220437D01*
X103668754Y-53358243D01*
X103716842Y-53506243D01*
X103734444Y-53560414D01*
X103830951Y-53749820D01*
X103955890Y-53921786D01*
X104106213Y-54072109D01*
X104278179Y-54197048D01*
X104278181Y-54197049D01*
X104278184Y-54197051D01*
X104467588Y-54293557D01*
X104669757Y-54359246D01*
X104879713Y-54392500D01*
X104879714Y-54392500D01*
X105092286Y-54392500D01*
X105092287Y-54392500D01*
X105302243Y-54359246D01*
X105504412Y-54293557D01*
X105693816Y-54197051D01*
X105715789Y-54181086D01*
X105865786Y-54072109D01*
X105865788Y-54072106D01*
X105865792Y-54072104D01*
X106016104Y-53921792D01*
X106016106Y-53921788D01*
X106016109Y-53921786D01*
X106141048Y-53749820D01*
X106141047Y-53749820D01*
X106141051Y-53749816D01*
X106145514Y-53741054D01*
X106193488Y-53690259D01*
X106261308Y-53673463D01*
X106327444Y-53695999D01*
X106366486Y-53741056D01*
X106370951Y-53749820D01*
X106495890Y-53921786D01*
X106646213Y-54072109D01*
X106818179Y-54197048D01*
X106818181Y-54197049D01*
X106818184Y-54197051D01*
X107007588Y-54293557D01*
X107209757Y-54359246D01*
X107419713Y-54392500D01*
X107419714Y-54392500D01*
X107632286Y-54392500D01*
X107632287Y-54392500D01*
X107842243Y-54359246D01*
X108044412Y-54293557D01*
X108233816Y-54197051D01*
X108255789Y-54181086D01*
X108405786Y-54072109D01*
X108405788Y-54072106D01*
X108405792Y-54072104D01*
X108556104Y-53921792D01*
X108556106Y-53921788D01*
X108556109Y-53921786D01*
X108681048Y-53749820D01*
X108681047Y-53749820D01*
X108681051Y-53749816D01*
X108777557Y-53560412D01*
X108843246Y-53358243D01*
X108876500Y-53148287D01*
X108876500Y-52935713D01*
X108843246Y-52725757D01*
X108777557Y-52523588D01*
X108681051Y-52334184D01*
X108681049Y-52334181D01*
X108681048Y-52334179D01*
X108556109Y-52162213D01*
X108405786Y-52011890D01*
X108233820Y-51886951D01*
X108233115Y-51886591D01*
X108225054Y-51882485D01*
X108174259Y-51834512D01*
X108157463Y-51766692D01*
X108179999Y-51700556D01*
X108225054Y-51661515D01*
X108233816Y-51657051D01*
X108268050Y-51632179D01*
X108405786Y-51532109D01*
X108405788Y-51532106D01*
X108405792Y-51532104D01*
X108556104Y-51381792D01*
X108556106Y-51381788D01*
X108556109Y-51381786D01*
X108665086Y-51231789D01*
X108681051Y-51209816D01*
X108777557Y-51020412D01*
X108843246Y-50818243D01*
X108876500Y-50608287D01*
X108876500Y-50395713D01*
X108843246Y-50185757D01*
X108777557Y-49983588D01*
X108681051Y-49794184D01*
X108681049Y-49794181D01*
X108681048Y-49794179D01*
X108556109Y-49622213D01*
X108405786Y-49471890D01*
X108233817Y-49346949D01*
X108224504Y-49342204D01*
X108173707Y-49294230D01*
X108156912Y-49226409D01*
X108179449Y-49160274D01*
X108224507Y-49121232D01*
X108233555Y-49116622D01*
X108287716Y-49077270D01*
X108287717Y-49077270D01*
X107655408Y-48444962D01*
X107718993Y-48427925D01*
X107833007Y-48362099D01*
X107926099Y-48269007D01*
X107991925Y-48154993D01*
X108008962Y-48091409D01*
X108641270Y-48723717D01*
X108641270Y-48723716D01*
X108680622Y-48669554D01*
X108777095Y-48480217D01*
X108842757Y-48278130D01*
X108842757Y-48278127D01*
X108876000Y-48068246D01*
X108876000Y-47855753D01*
X108842757Y-47645872D01*
X108842757Y-47645869D01*
X108777095Y-47443782D01*
X108680624Y-47254449D01*
X108641270Y-47200282D01*
X108641269Y-47200282D01*
X108008962Y-47832590D01*
X107991925Y-47769007D01*
X107926099Y-47654993D01*
X107833007Y-47561901D01*
X107718993Y-47496075D01*
X107655409Y-47479037D01*
X108287716Y-46846728D01*
X108233547Y-46807373D01*
X108233547Y-46807372D01*
X108224500Y-46802763D01*
X108173706Y-46754788D01*
X108156912Y-46686966D01*
X108179451Y-46620832D01*
X108224508Y-46581793D01*
X108233816Y-46577051D01*
X108314621Y-46518343D01*
X117087500Y-46518343D01*
X117087500Y-46661656D01*
X117115455Y-46802196D01*
X117115457Y-46802204D01*
X117170296Y-46934596D01*
X117170301Y-46934606D01*
X117249913Y-47053753D01*
X117249916Y-47053757D01*
X117351242Y-47155083D01*
X117351246Y-47155086D01*
X117470393Y-47234698D01*
X117470397Y-47234700D01*
X117470400Y-47234702D01*
X117602796Y-47289543D01*
X117724455Y-47313742D01*
X117743343Y-47317499D01*
X117743347Y-47317500D01*
X117743348Y-47317500D01*
X117886653Y-47317500D01*
X117886654Y-47317499D01*
X118027204Y-47289543D01*
X118159600Y-47234702D01*
X118190190Y-47214262D01*
X118256865Y-47193384D01*
X118324246Y-47211867D01*
X118370937Y-47263845D01*
X118382115Y-47332815D01*
X118376787Y-47356367D01*
X118350001Y-47437200D01*
X118350000Y-47437204D01*
X118339500Y-47539983D01*
X118339500Y-48840001D01*
X118339501Y-48840018D01*
X118350000Y-48942796D01*
X118350001Y-48942799D01*
X118405185Y-49109331D01*
X118405187Y-49109336D01*
X118412700Y-49121516D01*
X118496783Y-49257838D01*
X118497289Y-49258657D01*
X118621344Y-49382712D01*
X118776120Y-49478178D01*
X118822845Y-49530126D01*
X118834068Y-49599088D01*
X118806224Y-49663171D01*
X118798706Y-49671398D01*
X118659889Y-49810215D01*
X118534951Y-49982179D01*
X118438444Y-50171585D01*
X118372753Y-50373760D01*
X118339500Y-50583713D01*
X118339500Y-50796286D01*
X118366936Y-50969514D01*
X118372754Y-51006243D01*
X118434069Y-51194951D01*
X118438444Y-51208414D01*
X118534951Y-51397820D01*
X118659890Y-51569786D01*
X118810209Y-51720105D01*
X118810214Y-51720109D01*
X118974793Y-51839682D01*
X119017459Y-51895011D01*
X119023438Y-51964625D01*
X118990833Y-52026420D01*
X118974793Y-52040318D01*
X118810214Y-52159890D01*
X118810209Y-52159894D01*
X118659890Y-52310213D01*
X118534951Y-52482179D01*
X118438444Y-52671585D01*
X118372753Y-52873760D01*
X118339500Y-53083713D01*
X118339500Y-53296286D01*
X118372564Y-53505048D01*
X118372754Y-53506243D01*
X118427087Y-53673463D01*
X118438444Y-53708414D01*
X118534951Y-53897820D01*
X118659890Y-54069786D01*
X118810209Y-54220105D01*
X118810214Y-54220109D01*
X118974793Y-54339682D01*
X119017459Y-54395011D01*
X119023438Y-54464625D01*
X118990833Y-54526420D01*
X118974793Y-54540318D01*
X118810214Y-54659890D01*
X118810209Y-54659894D01*
X118659890Y-54810213D01*
X118534951Y-54982179D01*
X118438444Y-55171585D01*
X118372753Y-55373760D01*
X118339500Y-55583713D01*
X118339500Y-55796286D01*
X118359111Y-55920109D01*
X118372754Y-56006243D01*
X118428705Y-56178443D01*
X118438444Y-56208414D01*
X118534951Y-56397820D01*
X118659890Y-56569786D01*
X118810213Y-56720109D01*
X118982179Y-56845048D01*
X118982181Y-56845049D01*
X118982184Y-56845051D01*
X119171588Y-56941557D01*
X119373757Y-57007246D01*
X119583713Y-57040500D01*
X119583714Y-57040500D01*
X120046286Y-57040500D01*
X120046287Y-57040500D01*
X120256243Y-57007246D01*
X120458412Y-56941557D01*
X120647816Y-56845051D01*
X120719576Y-56792915D01*
X120819786Y-56720109D01*
X120819788Y-56720106D01*
X120819792Y-56720104D01*
X120970104Y-56569792D01*
X120970106Y-56569788D01*
X120970109Y-56569786D01*
X121095048Y-56397820D01*
X121095047Y-56397820D01*
X121095051Y-56397816D01*
X121191557Y-56208412D01*
X121257246Y-56006243D01*
X121290500Y-55796287D01*
X121290500Y-55583713D01*
X121257246Y-55373757D01*
X121191557Y-55171588D01*
X121095051Y-54982184D01*
X121095049Y-54982181D01*
X121095048Y-54982179D01*
X120970109Y-54810213D01*
X120819792Y-54659896D01*
X120819784Y-54659890D01*
X120655204Y-54540316D01*
X120612540Y-54484989D01*
X120606561Y-54415376D01*
X120639166Y-54353580D01*
X120655199Y-54339686D01*
X120819792Y-54220104D01*
X120970104Y-54069792D01*
X120970106Y-54069788D01*
X120970109Y-54069786D01*
X121095048Y-53897820D01*
X121095047Y-53897820D01*
X121095051Y-53897816D01*
X121191557Y-53708412D01*
X121257246Y-53506243D01*
X121290500Y-53296287D01*
X121290500Y-53083713D01*
X121257246Y-52873757D01*
X121191557Y-52671588D01*
X121095051Y-52482184D01*
X121095049Y-52482181D01*
X121095048Y-52482179D01*
X120970109Y-52310213D01*
X120819792Y-52159896D01*
X120812416Y-52154537D01*
X120655204Y-52040316D01*
X120612540Y-51984989D01*
X120606561Y-51915376D01*
X120639166Y-51853580D01*
X120655199Y-51839686D01*
X120819792Y-51720104D01*
X120970104Y-51569792D01*
X120970106Y-51569788D01*
X120970109Y-51569786D01*
X121095048Y-51397820D01*
X121095047Y-51397820D01*
X121095051Y-51397816D01*
X121191557Y-51208412D01*
X121257246Y-51006243D01*
X121290500Y-50796287D01*
X121290500Y-50583713D01*
X121257246Y-50373757D01*
X121191557Y-50171588D01*
X121095051Y-49982184D01*
X121095049Y-49982181D01*
X121095048Y-49982179D01*
X120970109Y-49810213D01*
X120831294Y-49671398D01*
X120797809Y-49610075D01*
X120802793Y-49540383D01*
X120844665Y-49484450D01*
X120853879Y-49478178D01*
X120859331Y-49474814D01*
X120859334Y-49474814D01*
X121008656Y-49382712D01*
X121132712Y-49258656D01*
X121224814Y-49109334D01*
X121279999Y-48942797D01*
X121290500Y-48840009D01*
X121290499Y-47539992D01*
X121286449Y-47500349D01*
X121279999Y-47437203D01*
X121279998Y-47437200D01*
X121259813Y-47376286D01*
X121224814Y-47270666D01*
X121132712Y-47121344D01*
X121008656Y-46997288D01*
X120907022Y-46934600D01*
X120859336Y-46905187D01*
X120859331Y-46905185D01*
X120817978Y-46891482D01*
X120692797Y-46850001D01*
X120692795Y-46850000D01*
X120590010Y-46839500D01*
X119039998Y-46839500D01*
X119039981Y-46839501D01*
X118937203Y-46850000D01*
X118937200Y-46850001D01*
X118770668Y-46905185D01*
X118770659Y-46905190D01*
X118695783Y-46951373D01*
X118628390Y-46969813D01*
X118561727Y-46948890D01*
X118516958Y-46895247D01*
X118508297Y-46825917D01*
X118513335Y-46808201D01*
X118512775Y-46808031D01*
X118514537Y-46802216D01*
X118514543Y-46802204D01*
X118542500Y-46661652D01*
X118542500Y-46518348D01*
X118514543Y-46377796D01*
X118459702Y-46245400D01*
X118459701Y-46245398D01*
X118459698Y-46245393D01*
X118380086Y-46126246D01*
X118380083Y-46126242D01*
X118278757Y-46024916D01*
X118278753Y-46024913D01*
X118159606Y-45945301D01*
X118159596Y-45945296D01*
X118027204Y-45890457D01*
X118027196Y-45890455D01*
X117886656Y-45862500D01*
X117886652Y-45862500D01*
X117743348Y-45862500D01*
X117743343Y-45862500D01*
X117602803Y-45890455D01*
X117602795Y-45890457D01*
X117470403Y-45945296D01*
X117470393Y-45945301D01*
X117351246Y-46024913D01*
X117351242Y-46024916D01*
X117249916Y-46126242D01*
X117249913Y-46126246D01*
X117170301Y-46245393D01*
X117170299Y-46245398D01*
X117115457Y-46377795D01*
X117115455Y-46377803D01*
X117087500Y-46518343D01*
X108314621Y-46518343D01*
X108405786Y-46452109D01*
X108405788Y-46452106D01*
X108405792Y-46452104D01*
X108556104Y-46301792D01*
X108556106Y-46301788D01*
X108556109Y-46301786D01*
X108681048Y-46129820D01*
X108681047Y-46129820D01*
X108681051Y-46129816D01*
X108777557Y-45940412D01*
X108843246Y-45738243D01*
X108876500Y-45528287D01*
X108876500Y-45315713D01*
X108843246Y-45105757D01*
X108777557Y-44903588D01*
X108681051Y-44714184D01*
X108681049Y-44714181D01*
X108681048Y-44714179D01*
X108556109Y-44542213D01*
X108405786Y-44391890D01*
X108233820Y-44266951D01*
X108233115Y-44266591D01*
X108225054Y-44262485D01*
X108174259Y-44214512D01*
X108157463Y-44146692D01*
X108179999Y-44080556D01*
X108225054Y-44041515D01*
X108233816Y-44037051D01*
X108255789Y-44021086D01*
X108405786Y-43912109D01*
X108405788Y-43912106D01*
X108405792Y-43912104D01*
X108556104Y-43761792D01*
X108556106Y-43761788D01*
X108556109Y-43761786D01*
X108672107Y-43602127D01*
X108681051Y-43589816D01*
X108777557Y-43400412D01*
X108843246Y-43198243D01*
X108876500Y-42988287D01*
X108876500Y-42775713D01*
X108843246Y-42565757D01*
X108777557Y-42363588D01*
X108681051Y-42174184D01*
X108681049Y-42174181D01*
X108681048Y-42174179D01*
X108556109Y-42002213D01*
X108405786Y-41851890D01*
X108233820Y-41726951D01*
X108233115Y-41726591D01*
X108225054Y-41722485D01*
X108174259Y-41674512D01*
X108157463Y-41606692D01*
X108179999Y-41540556D01*
X108225054Y-41501515D01*
X108233816Y-41497051D01*
X108262186Y-41476439D01*
X108405786Y-41372109D01*
X108405788Y-41372106D01*
X108405792Y-41372104D01*
X108556104Y-41221792D01*
X108556106Y-41221788D01*
X108556109Y-41221786D01*
X108681048Y-41049820D01*
X108681047Y-41049820D01*
X108681051Y-41049816D01*
X108777557Y-40860412D01*
X108843246Y-40658243D01*
X108876500Y-40448287D01*
X108876500Y-40235713D01*
X108843246Y-40025757D01*
X108777557Y-39823588D01*
X108681051Y-39634184D01*
X108681049Y-39634181D01*
X108681048Y-39634179D01*
X108556109Y-39462213D01*
X108405786Y-39311890D01*
X108233820Y-39186951D01*
X108232829Y-39186446D01*
X108225054Y-39182485D01*
X108174259Y-39134512D01*
X108157463Y-39066692D01*
X108179999Y-39000556D01*
X108225054Y-38961515D01*
X108233816Y-38957051D01*
X108297119Y-38911059D01*
X108405786Y-38832109D01*
X108405788Y-38832106D01*
X108405792Y-38832104D01*
X108556104Y-38681792D01*
X108556106Y-38681788D01*
X108556109Y-38681786D01*
X108681048Y-38509820D01*
X108681047Y-38509820D01*
X108681051Y-38509816D01*
X108777557Y-38320412D01*
X108843246Y-38118243D01*
X108876500Y-37908287D01*
X108876500Y-37695713D01*
X108843246Y-37485757D01*
X108777557Y-37283588D01*
X108681051Y-37094184D01*
X108681049Y-37094181D01*
X108681048Y-37094179D01*
X108556109Y-36922213D01*
X108405786Y-36771890D01*
X108233817Y-36646949D01*
X108224504Y-36642204D01*
X108173707Y-36594230D01*
X108156912Y-36526409D01*
X108179449Y-36460274D01*
X108224507Y-36421232D01*
X108233555Y-36416622D01*
X108287716Y-36377270D01*
X108287717Y-36377270D01*
X107655408Y-35744962D01*
X107718993Y-35727925D01*
X107833007Y-35662099D01*
X107926099Y-35569007D01*
X107991925Y-35454993D01*
X108008962Y-35391409D01*
X108641270Y-36023717D01*
X108641270Y-36023716D01*
X108680622Y-35969554D01*
X108777095Y-35780217D01*
X108842757Y-35578130D01*
X108842757Y-35578127D01*
X108876000Y-35368246D01*
X108876000Y-35155753D01*
X108842757Y-34945872D01*
X108842757Y-34945869D01*
X108777095Y-34743782D01*
X108680624Y-34554449D01*
X108641270Y-34500282D01*
X108641269Y-34500282D01*
X108008962Y-35132590D01*
X107991925Y-35069007D01*
X107926099Y-34954993D01*
X107833007Y-34861901D01*
X107718993Y-34796075D01*
X107655409Y-34779037D01*
X108287716Y-34146728D01*
X108233547Y-34107373D01*
X108233547Y-34107372D01*
X108224500Y-34102763D01*
X108173706Y-34054788D01*
X108156912Y-33986966D01*
X108179451Y-33920832D01*
X108224508Y-33881793D01*
X108233816Y-33877051D01*
X108337450Y-33801757D01*
X108405786Y-33752109D01*
X108405788Y-33752106D01*
X108405792Y-33752104D01*
X108556104Y-33601792D01*
X108556106Y-33601788D01*
X108556109Y-33601786D01*
X108681048Y-33429820D01*
X108681047Y-33429820D01*
X108681051Y-33429816D01*
X108777557Y-33240412D01*
X108843246Y-33038243D01*
X108876500Y-32828287D01*
X108876500Y-32615713D01*
X108843246Y-32405757D01*
X108777557Y-32203588D01*
X108681051Y-32014184D01*
X108681049Y-32014181D01*
X108681048Y-32014179D01*
X108556109Y-31842213D01*
X108405786Y-31691890D01*
X108233820Y-31566951D01*
X108233115Y-31566591D01*
X108225054Y-31562485D01*
X108174259Y-31514512D01*
X108157463Y-31446692D01*
X108179999Y-31380556D01*
X108225054Y-31341515D01*
X108233816Y-31337051D01*
X108255789Y-31321086D01*
X108405786Y-31212109D01*
X108405788Y-31212106D01*
X108405792Y-31212104D01*
X108556104Y-31061792D01*
X108556106Y-31061788D01*
X108556109Y-31061786D01*
X108681048Y-30889820D01*
X108681047Y-30889820D01*
X108681051Y-30889816D01*
X108777557Y-30700412D01*
X108843246Y-30498243D01*
X108876500Y-30288287D01*
X108876500Y-30075713D01*
X108843246Y-29865757D01*
X108777557Y-29663588D01*
X108681051Y-29474184D01*
X108681049Y-29474181D01*
X108681048Y-29474179D01*
X108556109Y-29302213D01*
X108405786Y-29151890D01*
X108233820Y-29026951D01*
X108233115Y-29026591D01*
X108225054Y-29022485D01*
X108174259Y-28974512D01*
X108157463Y-28906692D01*
X108179999Y-28840556D01*
X108225054Y-28801515D01*
X108233816Y-28797051D01*
X108255789Y-28781086D01*
X108405786Y-28672109D01*
X108405788Y-28672106D01*
X108405792Y-28672104D01*
X108556104Y-28521792D01*
X108641963Y-28403615D01*
X108697293Y-28360949D01*
X108742282Y-28352500D01*
X111907770Y-28352500D01*
X111974809Y-28372185D01*
X111995451Y-28388819D01*
X114107181Y-30500548D01*
X114140666Y-30561871D01*
X114143500Y-30588229D01*
X114143500Y-35379918D01*
X114143500Y-35379920D01*
X114143499Y-35379920D01*
X114172340Y-35524907D01*
X114172343Y-35524917D01*
X114228913Y-35661490D01*
X114228916Y-35661495D01*
X114241270Y-35679983D01*
X114241271Y-35679988D01*
X114241273Y-35679988D01*
X114308242Y-35780217D01*
X114311051Y-35784420D01*
X114311052Y-35784421D01*
X117208419Y-38681786D01*
X118123049Y-39596416D01*
X118227584Y-39700951D01*
X118290450Y-39742956D01*
X118296574Y-39748330D01*
X118306775Y-39764423D01*
X118325273Y-39785239D01*
X118345949Y-39825817D01*
X118470890Y-39997786D01*
X118621213Y-40148109D01*
X118793179Y-40273048D01*
X118793181Y-40273049D01*
X118793184Y-40273051D01*
X118982588Y-40369557D01*
X119184757Y-40435246D01*
X119394713Y-40468500D01*
X119394714Y-40468500D01*
X119857286Y-40468500D01*
X119857287Y-40468500D01*
X120067243Y-40435246D01*
X120269412Y-40369557D01*
X120458816Y-40273051D01*
X120602118Y-40168937D01*
X120630786Y-40148109D01*
X120630788Y-40148106D01*
X120630792Y-40148104D01*
X120781104Y-39997792D01*
X120781106Y-39997788D01*
X120781109Y-39997786D01*
X120906048Y-39825820D01*
X120906050Y-39825817D01*
X120906051Y-39825816D01*
X121002557Y-39636412D01*
X121068246Y-39434243D01*
X121101500Y-39224287D01*
X121101500Y-39011713D01*
X121068246Y-38801757D01*
X121002557Y-38599588D01*
X120906051Y-38410184D01*
X120906049Y-38410181D01*
X120906048Y-38410179D01*
X120781109Y-38238213D01*
X120630792Y-38087896D01*
X120563573Y-38039059D01*
X120466204Y-37968316D01*
X120423540Y-37912989D01*
X120417561Y-37843376D01*
X120450166Y-37781580D01*
X120466199Y-37767686D01*
X120630792Y-37648104D01*
X120781104Y-37497792D01*
X120781106Y-37497788D01*
X120781109Y-37497786D01*
X120906048Y-37325820D01*
X120906047Y-37325820D01*
X120906051Y-37325816D01*
X121002557Y-37136412D01*
X121068246Y-36934243D01*
X121101500Y-36724287D01*
X121101500Y-36511713D01*
X121068246Y-36301757D01*
X121002557Y-36099588D01*
X120906051Y-35910184D01*
X120906049Y-35910181D01*
X120906048Y-35910179D01*
X120781109Y-35738213D01*
X120630792Y-35587896D01*
X120544108Y-35524917D01*
X120466204Y-35468316D01*
X120423540Y-35412989D01*
X120417561Y-35343376D01*
X120450166Y-35281580D01*
X120466199Y-35267686D01*
X120630792Y-35148104D01*
X120781104Y-34997792D01*
X120781106Y-34997788D01*
X120781109Y-34997786D01*
X120906048Y-34825820D01*
X120906047Y-34825820D01*
X120906051Y-34825816D01*
X121002557Y-34636412D01*
X121068246Y-34434243D01*
X121101500Y-34224287D01*
X121101500Y-34011713D01*
X121068246Y-33801757D01*
X121002557Y-33599588D01*
X120906051Y-33410184D01*
X120906049Y-33410181D01*
X120906048Y-33410179D01*
X120781109Y-33238213D01*
X120642294Y-33099398D01*
X120608809Y-33038075D01*
X120613793Y-32968383D01*
X120655665Y-32912450D01*
X120664879Y-32906178D01*
X120670331Y-32902814D01*
X120670334Y-32902814D01*
X120819656Y-32810712D01*
X120943712Y-32686656D01*
X121035814Y-32537334D01*
X121090999Y-32370797D01*
X121101500Y-32268009D01*
X121101499Y-30967992D01*
X121090999Y-30865203D01*
X121035814Y-30698666D01*
X120943712Y-30549344D01*
X120819656Y-30425288D01*
X120718022Y-30362600D01*
X120670336Y-30333187D01*
X120670331Y-30333185D01*
X120640340Y-30323247D01*
X120503797Y-30278001D01*
X120503795Y-30278000D01*
X120401010Y-30267500D01*
X118850998Y-30267500D01*
X118850981Y-30267501D01*
X118748203Y-30278000D01*
X118748200Y-30278001D01*
X118581668Y-30333185D01*
X118581659Y-30333190D01*
X118506783Y-30379373D01*
X118439390Y-30397813D01*
X118372727Y-30376890D01*
X118327958Y-30323247D01*
X118319297Y-30253917D01*
X118324335Y-30236201D01*
X118323775Y-30236031D01*
X118325537Y-30230216D01*
X118325543Y-30230204D01*
X118353500Y-30089652D01*
X118353500Y-29946348D01*
X118325543Y-29805796D01*
X118270702Y-29673400D01*
X118270700Y-29673397D01*
X118270698Y-29673393D01*
X118191086Y-29554246D01*
X118191083Y-29554242D01*
X118089757Y-29452916D01*
X118089753Y-29452913D01*
X117970606Y-29373301D01*
X117970596Y-29373296D01*
X117838204Y-29318457D01*
X117838196Y-29318455D01*
X117697656Y-29290500D01*
X117697652Y-29290500D01*
X117554348Y-29290500D01*
X117554343Y-29290500D01*
X117413803Y-29318455D01*
X117413795Y-29318457D01*
X117281403Y-29373296D01*
X117281393Y-29373301D01*
X117162246Y-29452913D01*
X117162242Y-29452916D01*
X117060916Y-29554242D01*
X117060913Y-29554246D01*
X116981301Y-29673393D01*
X116981296Y-29673403D01*
X116926457Y-29805795D01*
X116926455Y-29805803D01*
X116906117Y-29908051D01*
X116873733Y-29969962D01*
X116813017Y-30004536D01*
X116743247Y-30000797D01*
X116686575Y-29959931D01*
X116660994Y-29894913D01*
X116660500Y-29883860D01*
X116660500Y-29644079D01*
X116631659Y-29499092D01*
X116631658Y-29499091D01*
X116631658Y-29499087D01*
X116621341Y-29474179D01*
X116575087Y-29362511D01*
X116575080Y-29362498D01*
X116492952Y-29239585D01*
X116492951Y-29239584D01*
X116388416Y-29135049D01*
X115526830Y-28273463D01*
X112832421Y-25579052D01*
X112832414Y-25579046D01*
X112758729Y-25529812D01*
X112758729Y-25529813D01*
X112709491Y-25496913D01*
X112572917Y-25440343D01*
X112572907Y-25440340D01*
X112427920Y-25411500D01*
X112427918Y-25411500D01*
X109024230Y-25411500D01*
X108994789Y-25402855D01*
X108964803Y-25396332D01*
X108959787Y-25392577D01*
X108957191Y-25391815D01*
X108936549Y-25375181D01*
X108906566Y-25345198D01*
X108873081Y-25283875D01*
X108871774Y-25238123D01*
X108876500Y-25208287D01*
X108876500Y-24995713D01*
X108843246Y-24785757D01*
X108777557Y-24583588D01*
X108681051Y-24394184D01*
X108681049Y-24394181D01*
X108681048Y-24394179D01*
X108556109Y-24222213D01*
X108405786Y-24071890D01*
X108233817Y-23946949D01*
X108224504Y-23942204D01*
X108173707Y-23894230D01*
X108156912Y-23826409D01*
X108179449Y-23760274D01*
X108224507Y-23721232D01*
X108233555Y-23716622D01*
X108287716Y-23677270D01*
X108287717Y-23677270D01*
X107655408Y-23044962D01*
X107718993Y-23027925D01*
X107833007Y-22962099D01*
X107926099Y-22869007D01*
X107991925Y-22754993D01*
X108008962Y-22691409D01*
X108641270Y-23323717D01*
X108641270Y-23323716D01*
X108680622Y-23269554D01*
X108777095Y-23080217D01*
X108842757Y-22878130D01*
X108842757Y-22878127D01*
X108876000Y-22668246D01*
X108876000Y-22455753D01*
X108842757Y-22245872D01*
X108842757Y-22245869D01*
X108777095Y-22043782D01*
X108680624Y-21854449D01*
X108641270Y-21800282D01*
X108641269Y-21800282D01*
X108008962Y-22432590D01*
X107991925Y-22369007D01*
X107926099Y-22254993D01*
X107833007Y-22161901D01*
X107718993Y-22096075D01*
X107655409Y-22079037D01*
X108287716Y-21446728D01*
X108233547Y-21407373D01*
X108233547Y-21407372D01*
X108224500Y-21402763D01*
X108220359Y-21398852D01*
X108214877Y-21397306D01*
X108195240Y-21375126D01*
X108173706Y-21354788D01*
X108172336Y-21349258D01*
X108168560Y-21344993D01*
X108164031Y-21315717D01*
X108156912Y-21286966D01*
X108158749Y-21281573D01*
X108157879Y-21275945D01*
X108165851Y-21257983D01*
X116196500Y-21257983D01*
X116196500Y-22858001D01*
X116196501Y-22858018D01*
X116207000Y-22960796D01*
X116207001Y-22960799D01*
X116246573Y-23080217D01*
X116262186Y-23127334D01*
X116354288Y-23276656D01*
X116478344Y-23400712D01*
X116627666Y-23492814D01*
X116794203Y-23547999D01*
X116896991Y-23558500D01*
X118197008Y-23558499D01*
X118299797Y-23547999D01*
X118466334Y-23492814D01*
X118615656Y-23400712D01*
X118739712Y-23276656D01*
X118831814Y-23127334D01*
X118831814Y-23127331D01*
X118835448Y-23121441D01*
X118887395Y-23074716D01*
X118956358Y-23063493D01*
X119020440Y-23091336D01*
X119028668Y-23098856D01*
X119167535Y-23237723D01*
X119167540Y-23237727D01*
X119339442Y-23362620D01*
X119528782Y-23459095D01*
X119730871Y-23524757D01*
X119797000Y-23535231D01*
X119797000Y-22491012D01*
X119854007Y-22523925D01*
X119981174Y-22558000D01*
X120112826Y-22558000D01*
X120239993Y-22523925D01*
X120297000Y-22491012D01*
X120297000Y-23535230D01*
X120363126Y-23524757D01*
X120363129Y-23524757D01*
X120565217Y-23459095D01*
X120754557Y-23362620D01*
X120926459Y-23237727D01*
X120926464Y-23237723D01*
X121076723Y-23087464D01*
X121076727Y-23087459D01*
X121201620Y-22915557D01*
X121298095Y-22726217D01*
X121363757Y-22524130D01*
X121363757Y-22524127D01*
X121397000Y-22314246D01*
X121397000Y-22308000D01*
X120480012Y-22308000D01*
X120512925Y-22250993D01*
X120547000Y-22123826D01*
X120547000Y-21992174D01*
X120512925Y-21865007D01*
X120480012Y-21808000D01*
X121397000Y-21808000D01*
X121397000Y-21801753D01*
X121363757Y-21591872D01*
X121363757Y-21591869D01*
X121298095Y-21389782D01*
X121201620Y-21200442D01*
X121076727Y-21028540D01*
X121076723Y-21028535D01*
X120926464Y-20878276D01*
X120926459Y-20878272D01*
X120754557Y-20753379D01*
X120565215Y-20656903D01*
X120363124Y-20591241D01*
X120297000Y-20580768D01*
X120297000Y-21624988D01*
X120239993Y-21592075D01*
X120112826Y-21558000D01*
X119981174Y-21558000D01*
X119854007Y-21592075D01*
X119797000Y-21624988D01*
X119797000Y-20580768D01*
X119796999Y-20580768D01*
X119730875Y-20591241D01*
X119528784Y-20656903D01*
X119339442Y-20753379D01*
X119167541Y-20878271D01*
X119028668Y-21017144D01*
X118967345Y-21050628D01*
X118897653Y-21045644D01*
X118841720Y-21003772D01*
X118835448Y-20994558D01*
X118789380Y-20919870D01*
X118739712Y-20839344D01*
X118615656Y-20715288D01*
X118466334Y-20623186D01*
X118299797Y-20568001D01*
X118299795Y-20568000D01*
X118197010Y-20557500D01*
X116896998Y-20557500D01*
X116896981Y-20557501D01*
X116794203Y-20568000D01*
X116794200Y-20568001D01*
X116627668Y-20623185D01*
X116627663Y-20623187D01*
X116478342Y-20715289D01*
X116354289Y-20839342D01*
X116262187Y-20988663D01*
X116262185Y-20988668D01*
X116257180Y-21003772D01*
X116207001Y-21155203D01*
X116207001Y-21155204D01*
X116207000Y-21155204D01*
X116196500Y-21257983D01*
X108165851Y-21257983D01*
X108169894Y-21248873D01*
X108179451Y-21220832D01*
X108184517Y-21215926D01*
X108186223Y-21212083D01*
X108198594Y-21202295D01*
X108212648Y-21188687D01*
X108218380Y-21184915D01*
X108233816Y-21177051D01*
X108322830Y-21112378D01*
X108405786Y-21052109D01*
X108405788Y-21052106D01*
X108405792Y-21052104D01*
X108556104Y-20901792D01*
X108556106Y-20901788D01*
X108556109Y-20901786D01*
X108681048Y-20729820D01*
X108681047Y-20729820D01*
X108681051Y-20729816D01*
X108777557Y-20540412D01*
X108843246Y-20338243D01*
X108876500Y-20128287D01*
X108876500Y-19915713D01*
X108843246Y-19705757D01*
X108777557Y-19503588D01*
X108681051Y-19314184D01*
X108681049Y-19314181D01*
X108681048Y-19314179D01*
X108556109Y-19142213D01*
X108405786Y-18991890D01*
X108233820Y-18866951D01*
X108044414Y-18770444D01*
X108044413Y-18770443D01*
X108044412Y-18770443D01*
X107842243Y-18704754D01*
X107842241Y-18704753D01*
X107842240Y-18704753D01*
X107680957Y-18679208D01*
X107632287Y-18671500D01*
X107419713Y-18671500D01*
X107371042Y-18679208D01*
X107209760Y-18704753D01*
X107007585Y-18770444D01*
X106818179Y-18866951D01*
X106646215Y-18991889D01*
X106532673Y-19105431D01*
X106471350Y-19138915D01*
X106401658Y-19133931D01*
X106345725Y-19092059D01*
X106328810Y-19061082D01*
X106279797Y-18929671D01*
X106279793Y-18929664D01*
X106193547Y-18814455D01*
X106193544Y-18814452D01*
X106078335Y-18728206D01*
X106078328Y-18728202D01*
X105943482Y-18677908D01*
X105943483Y-18677908D01*
X105883883Y-18671501D01*
X105883881Y-18671500D01*
X105883873Y-18671500D01*
X105883864Y-18671500D01*
X104088129Y-18671500D01*
X104088123Y-18671501D01*
X104028516Y-18677908D01*
X103893671Y-18728202D01*
X103893664Y-18728206D01*
X103778455Y-18814452D01*
X103778452Y-18814455D01*
X103692206Y-18929664D01*
X103692202Y-18929671D01*
X103641908Y-19064517D01*
X103635501Y-19124116D01*
X103635500Y-19124135D01*
X83138031Y-19124135D01*
X83005792Y-18991896D01*
X83005786Y-18991890D01*
X82833820Y-18866951D01*
X82644414Y-18770444D01*
X82644413Y-18770443D01*
X82644412Y-18770443D01*
X82442243Y-18704754D01*
X82442241Y-18704753D01*
X82442240Y-18704753D01*
X82280957Y-18679208D01*
X82232287Y-18671500D01*
X82019713Y-18671500D01*
X81971042Y-18679208D01*
X81809760Y-18704753D01*
X81607585Y-18770444D01*
X81418179Y-18866951D01*
X81246215Y-18991889D01*
X81132673Y-19105431D01*
X81071350Y-19138915D01*
X81001658Y-19133931D01*
X80945725Y-19092059D01*
X80928810Y-19061082D01*
X80879797Y-18929671D01*
X80879793Y-18929664D01*
X80793547Y-18814455D01*
X80793544Y-18814452D01*
X80678335Y-18728206D01*
X80678328Y-18728202D01*
X80543482Y-18677908D01*
X80543483Y-18677908D01*
X80483883Y-18671501D01*
X80483881Y-18671500D01*
X80483873Y-18671500D01*
X80483864Y-18671500D01*
X78688129Y-18671500D01*
X78688123Y-18671501D01*
X78628516Y-18677908D01*
X78493671Y-18728202D01*
X78493664Y-18728206D01*
X78378455Y-18814452D01*
X78378452Y-18814455D01*
X78292206Y-18929664D01*
X78292202Y-18929671D01*
X78241908Y-19064517D01*
X78235501Y-19124116D01*
X78235500Y-19124135D01*
X78235500Y-20919870D01*
X78235501Y-20919876D01*
X78241908Y-20979483D01*
X78292202Y-21114328D01*
X78292206Y-21114335D01*
X78378452Y-21229544D01*
X78378455Y-21229547D01*
X78493664Y-21315793D01*
X78493671Y-21315797D01*
X78538618Y-21332561D01*
X78628517Y-21366091D01*
X78688127Y-21372500D01*
X78698685Y-21372499D01*
X78765723Y-21392179D01*
X78786372Y-21408818D01*
X79456591Y-22079037D01*
X79393007Y-22096075D01*
X79278993Y-22161901D01*
X79185901Y-22254993D01*
X79120075Y-22369007D01*
X79103037Y-22432591D01*
X78470728Y-21800282D01*
X78470727Y-21800282D01*
X78431380Y-21854439D01*
X78334904Y-22043782D01*
X78269242Y-22245869D01*
X78269242Y-22245872D01*
X78236000Y-22455753D01*
X78236000Y-22668246D01*
X78269242Y-22878127D01*
X78269242Y-22878130D01*
X78334904Y-23080217D01*
X78431375Y-23269550D01*
X78470728Y-23323716D01*
X79103037Y-22691408D01*
X79120075Y-22754993D01*
X79185901Y-22869007D01*
X79278993Y-22962099D01*
X79393007Y-23027925D01*
X79456590Y-23044962D01*
X78824282Y-23677269D01*
X78824282Y-23677270D01*
X78878452Y-23716626D01*
X78878451Y-23716626D01*
X78887495Y-23721234D01*
X78938292Y-23769208D01*
X78955087Y-23837029D01*
X78932550Y-23903164D01*
X78887499Y-23942202D01*
X78878182Y-23946949D01*
X78706213Y-24071890D01*
X78555890Y-24222213D01*
X78430951Y-24394179D01*
X78334444Y-24583585D01*
X78268753Y-24785760D01*
X78246159Y-24928414D01*
X78235500Y-24995713D01*
X78235500Y-25208287D01*
X78245534Y-25271644D01*
X78266316Y-25402855D01*
X78268754Y-25418243D01*
X78333583Y-25617766D01*
X78334444Y-25620414D01*
X78430951Y-25809820D01*
X78555890Y-25981786D01*
X78706213Y-26132109D01*
X78878182Y-26257050D01*
X78886946Y-26261516D01*
X78937742Y-26309491D01*
X78954536Y-26377312D01*
X78931998Y-26443447D01*
X78886946Y-26482484D01*
X78878182Y-26486949D01*
X78706213Y-26611890D01*
X78555890Y-26762213D01*
X78430951Y-26934179D01*
X78334444Y-27123585D01*
X78268753Y-27325760D01*
X78246190Y-27468217D01*
X78235500Y-27535713D01*
X78235500Y-27748287D01*
X78268754Y-27958243D01*
X78329730Y-28145908D01*
X78334444Y-28160414D01*
X78430951Y-28349820D01*
X78555890Y-28521786D01*
X78706213Y-28672109D01*
X78878182Y-28797050D01*
X78886946Y-28801516D01*
X78937742Y-28849491D01*
X78954536Y-28917312D01*
X78931998Y-28983447D01*
X78886946Y-29022484D01*
X78878182Y-29026949D01*
X78706213Y-29151890D01*
X78555890Y-29302213D01*
X78430951Y-29474179D01*
X78334444Y-29663585D01*
X78268753Y-29865760D01*
X78235500Y-30075713D01*
X78235500Y-30288286D01*
X78251272Y-30387870D01*
X78268754Y-30498243D01*
X78333876Y-30698668D01*
X78334444Y-30700414D01*
X78430951Y-30889820D01*
X78555890Y-31061786D01*
X78706213Y-31212109D01*
X78878182Y-31337050D01*
X78886946Y-31341516D01*
X78937742Y-31389491D01*
X78954536Y-31457312D01*
X78931998Y-31523447D01*
X78886946Y-31562484D01*
X78878182Y-31566949D01*
X78706213Y-31691890D01*
X78555890Y-31842213D01*
X78430951Y-32014179D01*
X78334444Y-32203585D01*
X78268753Y-32405760D01*
X78235500Y-32615713D01*
X78235500Y-32828286D01*
X78256828Y-32962949D01*
X78268754Y-33038243D01*
X78333728Y-33238213D01*
X78334444Y-33240414D01*
X78430951Y-33429820D01*
X78555890Y-33601786D01*
X78706213Y-33752109D01*
X78878182Y-33877050D01*
X78886946Y-33881516D01*
X78937742Y-33929491D01*
X78954536Y-33997312D01*
X78931998Y-34063447D01*
X78886946Y-34102484D01*
X78878182Y-34106949D01*
X78706213Y-34231890D01*
X78555890Y-34382213D01*
X78430951Y-34554179D01*
X78334444Y-34743585D01*
X78268753Y-34945760D01*
X78246159Y-35088414D01*
X78235500Y-35155713D01*
X78235500Y-35368287D01*
X78239355Y-35392625D01*
X78268735Y-35578127D01*
X78268754Y-35578243D01*
X78320729Y-35738206D01*
X78334444Y-35780414D01*
X78430951Y-35969820D01*
X78555890Y-36141786D01*
X78706213Y-36292109D01*
X78878182Y-36417050D01*
X78886946Y-36421516D01*
X78937742Y-36469491D01*
X78954536Y-36537312D01*
X78931998Y-36603447D01*
X78886946Y-36642484D01*
X78878182Y-36646949D01*
X78706213Y-36771890D01*
X78555890Y-36922213D01*
X78430951Y-37094179D01*
X78334444Y-37283585D01*
X78268753Y-37485760D01*
X78235500Y-37695713D01*
X78235500Y-37908286D01*
X78267851Y-38112547D01*
X78268754Y-38118243D01*
X78313555Y-38256127D01*
X78334444Y-38320414D01*
X78430951Y-38509820D01*
X78555890Y-38681786D01*
X78706213Y-38832109D01*
X78878182Y-38957050D01*
X78886946Y-38961516D01*
X78937742Y-39009491D01*
X78954536Y-39077312D01*
X78931998Y-39143447D01*
X78886946Y-39182484D01*
X78878182Y-39186949D01*
X78706213Y-39311890D01*
X78555890Y-39462213D01*
X78430951Y-39634179D01*
X78334444Y-39823585D01*
X78268753Y-40025760D01*
X78246159Y-40168414D01*
X78235500Y-40235713D01*
X78235500Y-40448287D01*
X78245534Y-40511644D01*
X78267778Y-40652085D01*
X78268754Y-40658243D01*
X78325861Y-40834000D01*
X78334444Y-40860414D01*
X78430951Y-41049820D01*
X78555890Y-41221786D01*
X78706213Y-41372109D01*
X78878182Y-41497050D01*
X78886946Y-41501516D01*
X78937742Y-41549491D01*
X78954536Y-41617312D01*
X78931998Y-41683447D01*
X78886946Y-41722484D01*
X78878182Y-41726949D01*
X78706213Y-41851890D01*
X78555890Y-42002213D01*
X78430948Y-42174184D01*
X78430947Y-42174185D01*
X78410765Y-42213795D01*
X78362791Y-42264591D01*
X78300281Y-42281500D01*
X72514500Y-42281500D01*
X72447461Y-42261815D01*
X72401706Y-42209011D01*
X72390500Y-42157500D01*
X72390499Y-41286129D01*
X72390498Y-41286123D01*
X72390497Y-41286116D01*
X72384091Y-41226517D01*
X72382326Y-41221786D01*
X72333797Y-41091671D01*
X72333793Y-41091664D01*
X72247547Y-40976455D01*
X72247544Y-40976452D01*
X72132335Y-40890206D01*
X72132328Y-40890202D01*
X71997482Y-40839908D01*
X71997483Y-40839908D01*
X71937883Y-40833501D01*
X71937881Y-40833500D01*
X71937873Y-40833500D01*
X71937864Y-40833500D01*
X70142129Y-40833500D01*
X70142123Y-40833501D01*
X70082516Y-40839908D01*
X69947671Y-40890202D01*
X69947664Y-40890206D01*
X69832455Y-40976452D01*
X69832452Y-40976455D01*
X69746206Y-41091664D01*
X69746202Y-41091671D01*
X69695908Y-41226517D01*
X69689501Y-41286116D01*
X69689501Y-41286123D01*
X69689500Y-41286135D01*
X69689500Y-41296690D01*
X69669815Y-41363729D01*
X69653181Y-41384371D01*
X68982962Y-42054590D01*
X68965925Y-41991007D01*
X68900099Y-41876993D01*
X68807007Y-41783901D01*
X68692993Y-41718075D01*
X68629409Y-41701037D01*
X69261716Y-41068728D01*
X69207550Y-41029375D01*
X69018217Y-40932904D01*
X68816129Y-40867242D01*
X68606246Y-40834000D01*
X68393754Y-40834000D01*
X68183872Y-40867242D01*
X68183869Y-40867242D01*
X67981782Y-40932904D01*
X67792439Y-41029380D01*
X67738282Y-41068727D01*
X67738282Y-41068728D01*
X68370591Y-41701037D01*
X68307007Y-41718075D01*
X68192993Y-41783901D01*
X68099901Y-41876993D01*
X68034075Y-41991007D01*
X68017037Y-42054591D01*
X67384728Y-41422282D01*
X67384727Y-41422282D01*
X67345380Y-41476439D01*
X67248904Y-41665782D01*
X67183242Y-41867869D01*
X67183242Y-41867872D01*
X67150000Y-42077753D01*
X51309556Y-42077753D01*
X51277246Y-41873757D01*
X51211557Y-41671588D01*
X51115051Y-41482184D01*
X51115049Y-41482181D01*
X51115048Y-41482179D01*
X50990109Y-41310213D01*
X50839786Y-41159890D01*
X50667820Y-41034951D01*
X50667115Y-41034591D01*
X50659054Y-41030485D01*
X50608259Y-40982512D01*
X50591463Y-40914692D01*
X50613999Y-40848556D01*
X50659054Y-40809515D01*
X50667816Y-40805051D01*
X50798023Y-40710451D01*
X50839786Y-40680109D01*
X50839788Y-40680106D01*
X50839792Y-40680104D01*
X50990104Y-40529792D01*
X51034635Y-40468500D01*
X51064248Y-40427741D01*
X51064250Y-40427738D01*
X51115051Y-40357816D01*
X51211557Y-40168412D01*
X51277246Y-39966243D01*
X51310500Y-39756287D01*
X51310500Y-39543713D01*
X51277246Y-39333757D01*
X51211557Y-39131588D01*
X51115051Y-38942184D01*
X51115049Y-38942181D01*
X51115048Y-38942179D01*
X50990109Y-38770213D01*
X50839786Y-38619890D01*
X50667820Y-38494951D01*
X50667115Y-38494591D01*
X50659054Y-38490485D01*
X50608259Y-38442512D01*
X50591463Y-38374692D01*
X50613999Y-38308556D01*
X50659054Y-38269515D01*
X50667816Y-38265051D01*
X50704756Y-38238213D01*
X50839786Y-38140109D01*
X50839788Y-38140106D01*
X50839792Y-38140104D01*
X50990104Y-37989792D01*
X50990106Y-37989788D01*
X50990109Y-37989786D01*
X51115048Y-37817820D01*
X51115047Y-37817820D01*
X51115051Y-37817816D01*
X51211557Y-37628412D01*
X51277246Y-37426243D01*
X51310500Y-37216287D01*
X51310500Y-37003713D01*
X51294947Y-36905513D01*
X55499500Y-36905513D01*
X55499500Y-37094486D01*
X55529059Y-37281118D01*
X55587454Y-37460836D01*
X55643917Y-37571650D01*
X55673240Y-37629199D01*
X55784310Y-37782073D01*
X55917927Y-37915690D01*
X56070801Y-38026760D01*
X56239168Y-38112547D01*
X56361612Y-38152331D01*
X56419287Y-38191769D01*
X56446485Y-38256127D01*
X56434570Y-38324974D01*
X56387326Y-38376449D01*
X56361612Y-38388193D01*
X56239361Y-38427915D01*
X56071060Y-38513669D01*
X56045670Y-38532116D01*
X56045669Y-38532116D01*
X56653554Y-39140000D01*
X56647339Y-39140000D01*
X56545606Y-39167259D01*
X56454394Y-39219920D01*
X56379920Y-39294394D01*
X56327259Y-39385606D01*
X56300000Y-39487339D01*
X56300000Y-39493553D01*
X55692116Y-38885669D01*
X55692116Y-38885670D01*
X55673669Y-38911060D01*
X55587914Y-39079362D01*
X55529548Y-39258997D01*
X55500000Y-39445552D01*
X55500000Y-39634447D01*
X55529548Y-39821002D01*
X55587914Y-40000637D01*
X55673666Y-40168933D01*
X55692116Y-40194328D01*
X56300000Y-39586445D01*
X56300000Y-39592661D01*
X56327259Y-39694394D01*
X56379920Y-39785606D01*
X56454394Y-39860080D01*
X56545606Y-39912741D01*
X56647339Y-39940000D01*
X56653554Y-39940000D01*
X56045669Y-40547882D01*
X56045670Y-40547883D01*
X56071059Y-40566329D01*
X56239362Y-40652085D01*
X56418997Y-40710451D01*
X56605553Y-40740000D01*
X56794447Y-40740000D01*
X56981002Y-40710451D01*
X57160637Y-40652085D01*
X57328937Y-40566331D01*
X57354328Y-40547883D01*
X57354328Y-40547882D01*
X56746447Y-39940000D01*
X56752661Y-39940000D01*
X56854394Y-39912741D01*
X56945606Y-39860080D01*
X57020080Y-39785606D01*
X57072741Y-39694394D01*
X57100000Y-39592661D01*
X57100000Y-39586446D01*
X57707882Y-40194328D01*
X57707883Y-40194328D01*
X57726331Y-40168937D01*
X57812085Y-40000637D01*
X57870451Y-39821002D01*
X57900000Y-39634447D01*
X57900000Y-39445552D01*
X57870451Y-39258997D01*
X57812085Y-39079362D01*
X57726329Y-38911059D01*
X57707883Y-38885670D01*
X57707882Y-38885669D01*
X57100000Y-39493552D01*
X57100000Y-39487339D01*
X57072741Y-39385606D01*
X57020080Y-39294394D01*
X56945606Y-39219920D01*
X56854394Y-39167259D01*
X56752661Y-39140000D01*
X56746447Y-39140000D01*
X57354328Y-38532116D01*
X57328933Y-38513666D01*
X57160637Y-38427914D01*
X57038388Y-38388193D01*
X56980712Y-38348755D01*
X56953514Y-38284397D01*
X56965429Y-38215550D01*
X57012673Y-38164075D01*
X57038382Y-38152333D01*
X57160832Y-38112547D01*
X57329199Y-38026760D01*
X57482073Y-37915690D01*
X57615690Y-37782073D01*
X57726760Y-37629199D01*
X57812547Y-37460832D01*
X57870940Y-37281118D01*
X57881208Y-37216287D01*
X57900500Y-37094486D01*
X57900500Y-36905513D01*
X57870940Y-36718881D01*
X57812545Y-36539163D01*
X57767290Y-36450347D01*
X57726760Y-36370801D01*
X57615690Y-36217927D01*
X57482073Y-36084310D01*
X57329199Y-35973240D01*
X57321957Y-35969550D01*
X57160836Y-35887454D01*
X56981118Y-35829059D01*
X56794486Y-35799500D01*
X56794481Y-35799500D01*
X56605519Y-35799500D01*
X56605514Y-35799500D01*
X56418881Y-35829059D01*
X56239163Y-35887454D01*
X56070800Y-35973240D01*
X56001327Y-36023716D01*
X55917927Y-36084310D01*
X55917925Y-36084312D01*
X55917924Y-36084312D01*
X55784312Y-36217924D01*
X55784312Y-36217925D01*
X55784310Y-36217927D01*
X55775384Y-36230213D01*
X55673240Y-36370800D01*
X55587454Y-36539163D01*
X55529059Y-36718881D01*
X55499500Y-36905513D01*
X51294947Y-36905513D01*
X51277246Y-36793757D01*
X51211557Y-36591588D01*
X51115051Y-36402184D01*
X51115049Y-36402181D01*
X51115048Y-36402179D01*
X50990109Y-36230213D01*
X50839786Y-36079890D01*
X50667820Y-35954951D01*
X50667115Y-35954591D01*
X50659054Y-35950485D01*
X50608259Y-35902512D01*
X50591463Y-35834692D01*
X50613999Y-35768556D01*
X50659054Y-35729515D01*
X50667816Y-35725051D01*
X50689789Y-35709086D01*
X50839786Y-35600109D01*
X50839788Y-35600106D01*
X50839792Y-35600104D01*
X50990104Y-35449792D01*
X50990106Y-35449788D01*
X50990109Y-35449786D01*
X51115048Y-35277820D01*
X51115047Y-35277820D01*
X51115051Y-35277816D01*
X51211557Y-35088412D01*
X51277246Y-34886243D01*
X51310500Y-34676287D01*
X51310500Y-34463713D01*
X51277246Y-34253757D01*
X51211557Y-34051588D01*
X51115051Y-33862184D01*
X51115049Y-33862181D01*
X51115048Y-33862179D01*
X50990109Y-33690213D01*
X50839786Y-33539890D01*
X50667820Y-33414951D01*
X50667115Y-33414591D01*
X50659054Y-33410485D01*
X50608259Y-33362512D01*
X50591463Y-33294692D01*
X50613999Y-33228556D01*
X50659054Y-33189515D01*
X50667816Y-33185051D01*
X50689789Y-33169086D01*
X50839786Y-33060109D01*
X50839788Y-33060106D01*
X50839792Y-33060104D01*
X50990104Y-32909792D01*
X50990106Y-32909788D01*
X50990109Y-32909786D01*
X51115048Y-32737820D01*
X51115047Y-32737820D01*
X51115051Y-32737816D01*
X51211557Y-32548412D01*
X51277246Y-32346243D01*
X51310500Y-32136287D01*
X51310500Y-31923713D01*
X51277246Y-31713757D01*
X51211557Y-31511588D01*
X51115051Y-31322184D01*
X51115049Y-31322181D01*
X51115048Y-31322179D01*
X50990109Y-31150213D01*
X50839786Y-30999890D01*
X50667820Y-30874951D01*
X50667115Y-30874591D01*
X50659054Y-30870485D01*
X50608259Y-30822512D01*
X50591463Y-30754692D01*
X50613999Y-30688556D01*
X50659054Y-30649515D01*
X50667816Y-30645051D01*
X50700391Y-30621384D01*
X50839786Y-30520109D01*
X50839788Y-30520106D01*
X50839792Y-30520104D01*
X50990104Y-30369792D01*
X50990106Y-30369788D01*
X50990109Y-30369786D01*
X51115048Y-30197820D01*
X51115047Y-30197820D01*
X51115051Y-30197816D01*
X51211557Y-30008412D01*
X51277246Y-29806243D01*
X51310500Y-29596287D01*
X51310500Y-29383713D01*
X51277246Y-29173757D01*
X51211557Y-28971588D01*
X51115051Y-28782184D01*
X51115049Y-28782181D01*
X51115048Y-28782179D01*
X50990109Y-28610213D01*
X50839786Y-28459890D01*
X50667820Y-28334951D01*
X50478414Y-28238444D01*
X50478413Y-28238443D01*
X50478412Y-28238443D01*
X50276243Y-28172754D01*
X50276241Y-28172753D01*
X50276240Y-28172753D01*
X50114957Y-28147208D01*
X50066287Y-28139500D01*
X49853713Y-28139500D01*
X49805042Y-28147208D01*
X49643760Y-28172753D01*
X49441585Y-28238444D01*
X49252179Y-28334951D01*
X49080215Y-28459889D01*
X48966673Y-28573431D01*
X48905350Y-28606915D01*
X48835658Y-28601931D01*
X48779725Y-28560059D01*
X48762810Y-28529082D01*
X48713797Y-28397671D01*
X48713793Y-28397664D01*
X48627547Y-28282455D01*
X48627544Y-28282452D01*
X48512335Y-28196206D01*
X48512328Y-28196202D01*
X48377482Y-28145908D01*
X48377483Y-28145908D01*
X48317883Y-28139501D01*
X48317881Y-28139500D01*
X48317873Y-28139500D01*
X48317864Y-28139500D01*
X46522129Y-28139500D01*
X46522123Y-28139501D01*
X46462516Y-28145908D01*
X46327671Y-28196202D01*
X46327664Y-28196206D01*
X46212455Y-28282452D01*
X46212452Y-28282455D01*
X46126206Y-28397664D01*
X46126202Y-28397671D01*
X46075908Y-28532517D01*
X46069501Y-28592116D01*
X46069500Y-28592135D01*
X28112031Y-28592135D01*
X27979792Y-28459896D01*
X27979786Y-28459890D01*
X27807817Y-28334949D01*
X27798504Y-28330204D01*
X27747707Y-28282230D01*
X27730912Y-28214409D01*
X27753449Y-28148274D01*
X27798507Y-28109232D01*
X27807555Y-28104622D01*
X27861716Y-28065270D01*
X27861717Y-28065270D01*
X27229408Y-27432962D01*
X27292993Y-27415925D01*
X27407007Y-27350099D01*
X27500099Y-27257007D01*
X27565925Y-27142993D01*
X27582962Y-27079409D01*
X28215270Y-27711717D01*
X28215270Y-27711716D01*
X28254622Y-27657554D01*
X28351095Y-27468217D01*
X28416757Y-27266130D01*
X28416757Y-27266127D01*
X28450000Y-27056246D01*
X28450000Y-26843754D01*
X28440321Y-26782645D01*
X28438019Y-26768113D01*
X55390900Y-26768113D01*
X55390900Y-26957086D01*
X55420459Y-27143718D01*
X55478854Y-27323436D01*
X55492440Y-27350099D01*
X55564640Y-27491799D01*
X55675710Y-27644673D01*
X55809327Y-27778290D01*
X55962201Y-27889360D01*
X56041747Y-27929890D01*
X56130563Y-27975145D01*
X56130565Y-27975145D01*
X56130568Y-27975147D01*
X56226897Y-28006446D01*
X56310281Y-28033540D01*
X56496914Y-28063100D01*
X56496919Y-28063100D01*
X56685886Y-28063100D01*
X56872518Y-28033540D01*
X57052232Y-27975147D01*
X57220599Y-27889360D01*
X57373473Y-27778290D01*
X57507090Y-27644673D01*
X57618160Y-27491799D01*
X57703947Y-27323432D01*
X57743469Y-27201795D01*
X57782907Y-27144121D01*
X57847266Y-27116923D01*
X57916112Y-27128838D01*
X57967588Y-27176082D01*
X57979331Y-27201796D01*
X58018854Y-27323436D01*
X58032440Y-27350099D01*
X58104640Y-27491799D01*
X58215710Y-27644673D01*
X58349327Y-27778290D01*
X58502201Y-27889360D01*
X58581747Y-27929890D01*
X58670563Y-27975145D01*
X58670565Y-27975145D01*
X58670568Y-27975147D01*
X58766897Y-28006446D01*
X58850281Y-28033540D01*
X59036914Y-28063100D01*
X59036919Y-28063100D01*
X59225886Y-28063100D01*
X59412518Y-28033540D01*
X59592232Y-27975147D01*
X59760599Y-27889360D01*
X59913473Y-27778290D01*
X60047090Y-27644673D01*
X60158160Y-27491799D01*
X60243947Y-27323432D01*
X60302340Y-27143718D01*
X60326094Y-26993742D01*
X60331900Y-26957086D01*
X60331900Y-26768113D01*
X60302340Y-26581481D01*
X60270173Y-26482484D01*
X60243947Y-26401768D01*
X60243945Y-26401765D01*
X60243945Y-26401763D01*
X60170210Y-26257051D01*
X60158160Y-26233401D01*
X60047090Y-26080527D01*
X59913473Y-25946910D01*
X59760599Y-25835840D01*
X59709524Y-25809816D01*
X59592236Y-25750054D01*
X59412518Y-25691659D01*
X59225886Y-25662100D01*
X59225881Y-25662100D01*
X59036919Y-25662100D01*
X59036914Y-25662100D01*
X58850281Y-25691659D01*
X58670563Y-25750054D01*
X58502200Y-25835840D01*
X58414979Y-25899210D01*
X58349327Y-25946910D01*
X58349325Y-25946912D01*
X58349324Y-25946912D01*
X58215712Y-26080524D01*
X58215712Y-26080525D01*
X58215710Y-26080527D01*
X58178237Y-26132104D01*
X58104640Y-26233400D01*
X58018854Y-26401763D01*
X57979331Y-26523403D01*
X57939893Y-26581078D01*
X57875534Y-26608276D01*
X57806688Y-26596361D01*
X57755212Y-26549116D01*
X57743469Y-26523403D01*
X57730173Y-26482484D01*
X57703947Y-26401768D01*
X57703945Y-26401765D01*
X57703945Y-26401763D01*
X57630210Y-26257051D01*
X57618160Y-26233401D01*
X57507090Y-26080527D01*
X57373473Y-25946910D01*
X57220599Y-25835840D01*
X57169524Y-25809816D01*
X57052236Y-25750054D01*
X56872518Y-25691659D01*
X56685886Y-25662100D01*
X56685881Y-25662100D01*
X56496919Y-25662100D01*
X56496914Y-25662100D01*
X56310281Y-25691659D01*
X56130563Y-25750054D01*
X55962200Y-25835840D01*
X55874979Y-25899210D01*
X55809327Y-25946910D01*
X55809325Y-25946912D01*
X55809324Y-25946912D01*
X55675712Y-26080524D01*
X55675712Y-26080525D01*
X55675710Y-26080527D01*
X55638237Y-26132104D01*
X55564640Y-26233400D01*
X55478854Y-26401763D01*
X55420459Y-26581481D01*
X55390900Y-26768113D01*
X28438019Y-26768113D01*
X28416757Y-26633872D01*
X28416757Y-26633869D01*
X28351095Y-26431782D01*
X28254624Y-26242449D01*
X28215270Y-26188282D01*
X28215269Y-26188282D01*
X27582962Y-26820590D01*
X27565925Y-26757007D01*
X27500099Y-26642993D01*
X27407007Y-26549901D01*
X27292993Y-26484075D01*
X27229409Y-26467037D01*
X27861716Y-25834728D01*
X27807547Y-25795373D01*
X27807547Y-25795372D01*
X27798500Y-25790763D01*
X27747706Y-25742788D01*
X27730912Y-25674966D01*
X27753451Y-25608832D01*
X27798508Y-25569793D01*
X27807816Y-25565051D01*
X27887007Y-25507515D01*
X27979786Y-25440109D01*
X27979788Y-25440106D01*
X27979792Y-25440104D01*
X28130104Y-25289792D01*
X28130106Y-25289788D01*
X28130109Y-25289786D01*
X28255048Y-25117820D01*
X28255047Y-25117820D01*
X28255051Y-25117816D01*
X28351557Y-24928412D01*
X28417246Y-24726243D01*
X28450500Y-24516287D01*
X28450500Y-24303713D01*
X28417246Y-24093757D01*
X28351557Y-23891588D01*
X28255051Y-23702184D01*
X28255049Y-23702181D01*
X28255048Y-23702179D01*
X28130109Y-23530213D01*
X27979786Y-23379890D01*
X27807820Y-23254951D01*
X27807115Y-23254591D01*
X27799054Y-23250485D01*
X27748259Y-23202512D01*
X27731463Y-23134692D01*
X27753999Y-23068556D01*
X27799054Y-23029515D01*
X27807816Y-23025051D01*
X27958523Y-22915557D01*
X27979786Y-22900109D01*
X27979788Y-22900106D01*
X27979792Y-22900104D01*
X28130104Y-22749792D01*
X28130106Y-22749788D01*
X28130109Y-22749786D01*
X28255048Y-22577820D01*
X28255047Y-22577820D01*
X28255051Y-22577816D01*
X28351557Y-22388412D01*
X28417246Y-22186243D01*
X28450500Y-21976287D01*
X28450500Y-21763713D01*
X28417246Y-21553757D01*
X28351557Y-21351588D01*
X28255051Y-21162184D01*
X28255049Y-21162181D01*
X28255048Y-21162179D01*
X28130109Y-20990213D01*
X28016569Y-20876673D01*
X27983084Y-20815350D01*
X27988068Y-20745658D01*
X28029940Y-20689725D01*
X28060915Y-20672810D01*
X28192331Y-20623796D01*
X28307546Y-20537546D01*
X28393796Y-20422331D01*
X28444091Y-20287483D01*
X28450500Y-20227873D01*
X28450499Y-18432128D01*
X28444091Y-18372517D01*
X28442810Y-18369083D01*
X28393797Y-18237671D01*
X28393793Y-18237664D01*
X28307547Y-18122455D01*
X28307544Y-18122452D01*
X28192335Y-18036206D01*
X28192328Y-18036202D01*
X28057482Y-17985908D01*
X28057483Y-17985908D01*
X27997883Y-17979501D01*
X27997881Y-17979500D01*
X27997873Y-17979500D01*
X27997864Y-17979500D01*
X26202129Y-17979500D01*
X26202123Y-17979501D01*
X26142516Y-17985908D01*
X26007671Y-18036202D01*
X26007664Y-18036206D01*
X25892455Y-18122452D01*
X25892452Y-18122455D01*
X25806206Y-18237664D01*
X25806203Y-18237669D01*
X25757189Y-18369083D01*
X25715317Y-18425016D01*
X25649853Y-18449433D01*
X25581580Y-18434581D01*
X25553326Y-18413430D01*
X25439786Y-18299890D01*
X25267820Y-18174951D01*
X25078414Y-18078444D01*
X25078413Y-18078443D01*
X25078412Y-18078443D01*
X24876243Y-18012754D01*
X24876241Y-18012753D01*
X24876240Y-18012753D01*
X24714957Y-17987208D01*
X24666287Y-17979500D01*
X24453713Y-17979500D01*
X24405042Y-17987208D01*
X24243760Y-18012753D01*
X24041585Y-18078444D01*
X23852179Y-18174951D01*
X23680213Y-18299890D01*
X23529890Y-18450213D01*
X23404951Y-18622179D01*
X23308444Y-18811585D01*
X23242753Y-19013760D01*
X23209500Y-19223713D01*
X18534500Y-19223713D01*
X18534500Y-15143388D01*
X19346500Y-15143388D01*
X19346500Y-15336611D01*
X19376725Y-15527441D01*
X19436429Y-15711194D01*
X19524147Y-15883349D01*
X19637715Y-16039663D01*
X19774336Y-16176284D01*
X19930650Y-16289852D01*
X20102805Y-16377570D01*
X20194681Y-16407422D01*
X20286560Y-16437275D01*
X20374943Y-16451273D01*
X20477389Y-16467500D01*
X20477394Y-16467500D01*
X20670611Y-16467500D01*
X20763123Y-16452846D01*
X20861440Y-16437275D01*
X21045197Y-16377569D01*
X21217350Y-16289852D01*
X21373663Y-16176285D01*
X21510285Y-16039663D01*
X21623852Y-15883350D01*
X21711569Y-15711197D01*
X21771275Y-15527440D01*
X21786846Y-15429123D01*
X21801500Y-15336611D01*
X21801500Y-15143388D01*
X121286500Y-15143388D01*
X121286500Y-15336611D01*
X121316725Y-15527441D01*
X121376429Y-15711194D01*
X121464147Y-15883349D01*
X121577715Y-16039663D01*
X121714336Y-16176284D01*
X121870650Y-16289852D01*
X122042805Y-16377570D01*
X122134681Y-16407422D01*
X122226560Y-16437275D01*
X122314943Y-16451273D01*
X122417389Y-16467500D01*
X122417394Y-16467500D01*
X122610611Y-16467500D01*
X122703123Y-16452846D01*
X122801440Y-16437275D01*
X122985197Y-16377569D01*
X123157350Y-16289852D01*
X123313663Y-16176285D01*
X123450285Y-16039663D01*
X123563852Y-15883350D01*
X123651569Y-15711197D01*
X123711275Y-15527440D01*
X123726846Y-15429123D01*
X123741500Y-15336611D01*
X123741500Y-15143388D01*
X123723916Y-15032373D01*
X123711275Y-14952560D01*
X123651569Y-14768803D01*
X123563852Y-14596650D01*
X123450285Y-14440337D01*
X123313663Y-14303715D01*
X123157350Y-14190148D01*
X123157351Y-14190148D01*
X123157349Y-14190147D01*
X122985194Y-14102429D01*
X122801441Y-14042725D01*
X122610611Y-14012500D01*
X122610606Y-14012500D01*
X122417394Y-14012500D01*
X122417389Y-14012500D01*
X122226558Y-14042725D01*
X122042805Y-14102429D01*
X121870650Y-14190147D01*
X121714336Y-14303715D01*
X121577715Y-14440336D01*
X121464147Y-14596650D01*
X121376429Y-14768805D01*
X121316725Y-14952558D01*
X121286500Y-15143388D01*
X21801500Y-15143388D01*
X21783916Y-15032373D01*
X21771275Y-14952560D01*
X21711569Y-14768803D01*
X21623852Y-14596650D01*
X21510285Y-14440337D01*
X21373663Y-14303715D01*
X21217350Y-14190148D01*
X21217351Y-14190148D01*
X21217349Y-14190147D01*
X21045194Y-14102429D01*
X20861441Y-14042725D01*
X20670611Y-14012500D01*
X20670606Y-14012500D01*
X20477394Y-14012500D01*
X20477389Y-14012500D01*
X20286558Y-14042725D01*
X20102805Y-14102429D01*
X19930650Y-14190147D01*
X19774336Y-14303715D01*
X19637715Y-14440336D01*
X19524147Y-14596650D01*
X19436429Y-14768805D01*
X19376725Y-14952558D01*
X19346500Y-15143388D01*
X18534500Y-15143388D01*
X18534500Y-13324500D01*
X18554185Y-13257461D01*
X18606989Y-13211706D01*
X18658500Y-13200500D01*
X124575500Y-13200500D01*
X124642539Y-13220185D01*
G37*
%TD.AperFunction*%
%TD*%
M02*
