%TF.GenerationSoftware,KiCad,Pcbnew,10.0.1*%
%TF.CreationDate,2026-08-19T12:09:17-07:00*%
%TF.ProjectId,TMC5272-BOB,544d4335-3237-4322-9d42-4f422e6b6963,rev?*%
%TF.SameCoordinates,Original*%
%TF.FileFunction,Copper,L1,Top*%
%TF.FilePolarity,Positive*%
%FSLAX46Y46*%
G04 Gerber Fmt 4.6, Leading zero omitted, Abs format (unit mm)*
G04 Created by KiCad (PCBNEW 10.0.1) date 2026-08-19 12:09:17*
%MOMM*%
%LPD*%
G01*
G04 APERTURE LIST*
G04 Aperture macros list*
%AMRoundRect*
0 Rectangle with rounded corners*
0 $1 Rounding radius*
0 $2 $3 $4 $5 $6 $7 $8 $9 X,Y pos of 4 corners*
0 Add a 4 corners polygon primitive as box body*
4,1,4,$2,$3,$4,$5,$6,$7,$8,$9,$2,$3,0*
0 Add four circle primitives for the rounded corners*
1,1,$1+$1,$2,$3*
1,1,$1+$1,$4,$5*
1,1,$1+$1,$6,$7*
1,1,$1+$1,$8,$9*
0 Add four rect primitives between the rounded corners*
20,1,$1+$1,$2,$3,$4,$5,0*
20,1,$1+$1,$4,$5,$6,$7,0*
20,1,$1+$1,$6,$7,$8,$9,0*
20,1,$1+$1,$8,$9,$2,$3,0*%
G04 Aperture macros list end*
%TA.AperFunction,ComponentPad*%
%ADD10R,1.700000X1.700000*%
%TD*%
%TA.AperFunction,ComponentPad*%
%ADD11C,1.700000*%
%TD*%
%TA.AperFunction,SMDPad,CuDef*%
%ADD12RoundRect,0.250000X-0.262500X-0.450000X0.262500X-0.450000X0.262500X0.450000X-0.262500X0.450000X0*%
%TD*%
%TA.AperFunction,ComponentPad*%
%ADD13C,1.400000*%
%TD*%
%TA.AperFunction,ComponentPad*%
%ADD14O,1.950000X1.700000*%
%TD*%
%TA.AperFunction,ComponentPad*%
%ADD15RoundRect,0.250000X-0.725000X0.600000X-0.725000X-0.600000X0.725000X-0.600000X0.725000X0.600000X0*%
%TD*%
%TA.AperFunction,ComponentPad*%
%ADD16O,1.700000X2.000000*%
%TD*%
%TA.AperFunction,ComponentPad*%
%ADD17RoundRect,0.250000X-0.600000X-0.750000X0.600000X-0.750000X0.600000X0.750000X-0.600000X0.750000X0*%
%TD*%
%TA.AperFunction,ViaPad*%
%ADD18C,0.700000*%
%TD*%
%TA.AperFunction,Conductor*%
%ADD19C,0.200000*%
%TD*%
%TA.AperFunction,Conductor*%
%ADD20C,0.300000*%
%TD*%
%TA.AperFunction,Conductor*%
%ADD21C,0.500000*%
%TD*%
G04 APERTURE END LIST*
D10*
%TO.P,J3,1a,Pin_1a_1a*%
%TO.N,rst*%
X27100000Y-19330000D03*
D11*
%TO.P,J3,1b,Pin_1b_1b*%
X24560000Y-19330000D03*
%TO.P,J3,2a,Pin_2a_2a*%
%TO.N,3vo*%
X27100000Y-21870000D03*
%TO.P,J3,2b,Pin_2b_2b*%
X24560000Y-21870000D03*
%TO.P,J3,3a,Pin_3a_3a*%
%TO.N,/FTHR16_3*%
X27100000Y-24410000D03*
%TO.P,J3,3b,Pin_3b_3b*%
X24560000Y-24410000D03*
%TO.P,J3,4a,Pin_4a_4a*%
%TO.N,GND*%
X27100000Y-26950000D03*
%TO.P,J3,4b,Pin_4b_4b*%
X24560000Y-26950000D03*
%TO.P,J3,5a,Pin_5a_5a*%
%TO.N,/FTHR16_5*%
X27100000Y-29490000D03*
%TO.P,J3,5b,Pin_5b_5b*%
X24560000Y-29490000D03*
%TO.P,J3,6a,Pin_6a_6a*%
%TO.N,/FTHR16_6*%
X27100000Y-32030000D03*
%TO.P,J3,6b,Pin_6b_6b*%
X24560000Y-32030000D03*
%TO.P,J3,7a,Pin_7a_7a*%
%TO.N,/FTHR16_7*%
X27100000Y-34570000D03*
%TO.P,J3,7b,Pin_7b_7b*%
X24560000Y-34570000D03*
%TO.P,J3,8a,Pin_8a_8a*%
%TO.N,/FTHR16_8*%
X27100000Y-37110000D03*
%TO.P,J3,8b,Pin_8b_8b*%
X24560000Y-37110000D03*
%TO.P,J3,9a,Pin_9a_9a*%
%TO.N,/FTHR16_9*%
X27100000Y-39650000D03*
%TO.P,J3,9b,Pin_9b_9b*%
X24560000Y-39650000D03*
%TO.P,J3,10a,Pin_10a_10a*%
%TO.N,/FTHR16_10*%
X27100000Y-42190000D03*
%TO.P,J3,10b,Pin_10b_10b*%
X24560000Y-42190000D03*
%TO.P,J3,11a,Pin_11a_11a*%
%TO.N,sck*%
X27100000Y-44730000D03*
%TO.P,J3,11b,Pin_11b_11b*%
X24560000Y-44730000D03*
%TO.P,J3,12a,Pin_12a_12a*%
%TO.N,mosi*%
X27100000Y-47270000D03*
%TO.P,J3,12b,Pin_12b_12b*%
X24560000Y-47270000D03*
%TO.P,J3,13a,Pin_13a_13a*%
%TO.N,miso*%
X27100000Y-49810000D03*
%TO.P,J3,13b,Pin_13b_13b*%
X24560000Y-49810000D03*
%TO.P,J3,14a,Pin_14a_14a*%
%TO.N,rx*%
X27100000Y-52350000D03*
%TO.P,J3,14b,Pin_14b_14b*%
X24560000Y-52350000D03*
%TO.P,J3,15a,Pin_15a_15a*%
%TO.N,tx*%
X27100000Y-54890000D03*
%TO.P,J3,15b,Pin_15b_15b*%
X24560000Y-54890000D03*
%TO.P,J3,16a,Pin_16a_16a*%
%TO.N,GND*%
X27100000Y-57430000D03*
%TO.P,J3,16b,Pin_16b_16b*%
X24560000Y-57430000D03*
%TD*%
D12*
%TO.P,R1,1*%
%TO.N,sck*%
X33712500Y-44500000D03*
%TO.P,R1,2*%
%TO.N,SPI_SCK*%
X35537500Y-44500000D03*
%TD*%
D13*
%TO.P,JP1,1,A_1*%
%TO.N,en*%
X56700000Y-37000000D03*
%TO.P,JP1,2,B_2*%
%TO.N,GND*%
X56700000Y-39540000D03*
%TD*%
D12*
%TO.P,R2,1*%
%TO.N,mosi*%
X33712500Y-47000000D03*
%TO.P,R2,2*%
%TO.N,SPI_MOSI*%
X35537500Y-47000000D03*
%TD*%
%TO.P,R3,1*%
%TO.N,miso*%
X33800000Y-49500000D03*
%TO.P,R3,2*%
%TO.N,SPI_MISO*%
X35625000Y-49500000D03*
%TD*%
D14*
%TO.P,J10,4,Pin_4_4*%
%TO.N,OB2*%
X119815000Y-55690000D03*
%TO.P,J10,3,Pin_3_3*%
%TO.N,OB1*%
X119815000Y-53190000D03*
%TO.P,J10,2,Pin_2_2*%
%TO.N,OA2*%
X119815000Y-50690000D03*
D15*
%TO.P,J10,1,Pin_1_1*%
%TO.N,OA1*%
X119815000Y-48190000D03*
%TD*%
D10*
%TO.P,J7,1,Pin_1_1*%
%TO.N,CLK*%
X71040000Y-42184000D03*
D11*
%TO.P,J7,2,Pin_2_2*%
%TO.N,GND*%
X68500000Y-42184000D03*
%TD*%
D16*
%TO.P,J24,2,Pin_2_2*%
%TO.N,GND*%
X120047000Y-22058000D03*
D17*
%TO.P,J24,1,Pin_1_1*%
%TO.N,+VM*%
X117547000Y-22058000D03*
%TD*%
D10*
%TO.P,J22,1,Pin_1_1*%
%TO.N,SPI_CS*%
X59432000Y-57676000D03*
%TD*%
%TO.P,J8,1,Pin_1_1*%
%TO.N,DIAG0*%
X56700000Y-49800000D03*
D11*
%TO.P,J8,2,Pin_2_2*%
%TO.N,DIAG1*%
X56700000Y-52340000D03*
%TD*%
D10*
%TO.P,J1,1a,Pin_1a_1a*%
%TO.N,+VCC_IO*%
X79586000Y-20022000D03*
D11*
%TO.P,J1,1b,Pin_1b_1b*%
X82126000Y-20022000D03*
%TO.P,J1,2a,Pin_2a_2a*%
%TO.N,GND*%
X79586000Y-22562000D03*
%TO.P,J1,2b,Pin_2b_2b*%
X82126000Y-22562000D03*
%TO.P,J1,3a,Pin_3a_3a*%
%TO.N,ENCA1*%
X79586000Y-25102000D03*
%TO.P,J1,3b,Pin_3b_3b*%
X82126000Y-25102000D03*
%TO.P,J1,4a,Pin_4a_4a*%
%TO.N,ENCB1{slash}REFL1{slash}STEP1*%
X79586000Y-27642000D03*
%TO.P,J1,4b,Pin_4b_4b*%
X82126000Y-27642000D03*
%TO.P,J1,5a,Pin_5a_5a*%
%TO.N,ENCN1{slash}REFR1{slash}DIR1*%
X79586000Y-30182000D03*
%TO.P,J1,5b,Pin_5b_5b*%
X82126000Y-30182000D03*
%TO.P,J1,6a,Pin_6a_6a*%
%TO.N,SPI_CS*%
X79586000Y-32722000D03*
%TO.P,J1,6b,Pin_6b_6b*%
X82126000Y-32722000D03*
%TO.P,J1,7a,Pin_7a_7a*%
%TO.N,SPI_SCK*%
X79586000Y-35262000D03*
%TO.P,J1,7b,Pin_7b_7b*%
X82126000Y-35262000D03*
%TO.P,J1,8a,Pin_8a_8a*%
%TO.N,SPI_MOSI*%
X79586000Y-37802000D03*
%TO.P,J1,8b,Pin_8b_8b*%
X82126000Y-37802000D03*
%TO.P,J1,9a,Pin_9a_9a*%
%TO.N,SPI_MISO*%
X79586000Y-40342000D03*
%TO.P,J1,9b,Pin_9b_9b*%
X82126000Y-40342000D03*
%TO.P,J1,10a,Pin_10a_10a*%
%TO.N,CLK*%
X79586000Y-42882000D03*
%TO.P,J1,10b,Pin_10b_10b*%
X82126000Y-42882000D03*
%TO.P,J1,11a,Pin_11a_11a*%
%TO.N,SLEEPn*%
X79586000Y-45422000D03*
%TO.P,J1,11b,Pin_11b_11b*%
X82126000Y-45422000D03*
%TO.P,J1,12a,Pin_12a_12a*%
%TO.N,ENCA2*%
X79586000Y-47962000D03*
%TO.P,J1,12b,Pin_12b_12b*%
X82126000Y-47962000D03*
%TO.P,J1,13a,Pin_13a_13a*%
%TO.N,ENCB2{slash}REFL2{slash}STEP2*%
X79586000Y-50502000D03*
%TO.P,J1,13b,Pin_13b_13b*%
X82126000Y-50502000D03*
%TO.P,J1,14a,Pin_14a_14a*%
%TO.N,ENCN2{slash}REFR2{slash}DIR2*%
X79586000Y-53042000D03*
%TO.P,J1,14b,Pin_14b_14b*%
X82126000Y-53042000D03*
%TD*%
D10*
%TO.P,J26,1,Pin_1_1*%
%TO.N,GND*%
X74676000Y-57658000D03*
%TD*%
%TO.P,J9,1,Pin_1_1*%
%TO.N,SPI_CS*%
X56700000Y-44500000D03*
%TD*%
D11*
%TO.P,J2,14b,Pin_14b_14b*%
%TO.N,DIAG1*%
X107526000Y-53042000D03*
%TO.P,J2,14a,Pin_14a_14a*%
X104986000Y-53042000D03*
%TO.P,J2,13b,Pin_13b_13b*%
%TO.N,DIAG0*%
X107526000Y-50502000D03*
%TO.P,J2,13a,Pin_13a_13a*%
X104986000Y-50502000D03*
%TO.P,J2,12b,Pin_12b_12b*%
%TO.N,GND*%
X107526000Y-47962000D03*
%TO.P,J2,12a,Pin_12a_12a*%
X104986000Y-47962000D03*
%TO.P,J2,11b,Pin_11b_11b*%
%TO.N,OB2*%
X107526000Y-45422000D03*
%TO.P,J2,11a,Pin_11a_11a*%
X104986000Y-45422000D03*
%TO.P,J2,10b,Pin_10b_10b*%
%TO.N,OB1*%
X107526000Y-42882000D03*
%TO.P,J2,10a,Pin_10a_10a*%
X104986000Y-42882000D03*
%TO.P,J2,9b,Pin_9b_9b*%
%TO.N,OA2*%
X107526000Y-40342000D03*
%TO.P,J2,9a,Pin_9a_9a*%
X104986000Y-40342000D03*
%TO.P,J2,8b,Pin_8b_8b*%
%TO.N,OA1*%
X107526000Y-37802000D03*
%TO.P,J2,8a,Pin_8a_8a*%
X104986000Y-37802000D03*
%TO.P,J2,7b,Pin_7b_7b*%
%TO.N,GND*%
X107526000Y-35262000D03*
%TO.P,J2,7a,Pin_7a_7a*%
X104986000Y-35262000D03*
%TO.P,J2,6b,Pin_6b_6b*%
%TO.N,OC2*%
X107526000Y-32722000D03*
%TO.P,J2,6a,Pin_6a_6a*%
X104986000Y-32722000D03*
%TO.P,J2,5b,Pin_5b_5b*%
%TO.N,OC1*%
X107526000Y-30182000D03*
%TO.P,J2,5a,Pin_5a_5a*%
X104986000Y-30182000D03*
%TO.P,J2,4b,Pin_4b_4b*%
%TO.N,OD2*%
X107526000Y-27642000D03*
%TO.P,J2,4a,Pin_4a_4a*%
X104986000Y-27642000D03*
%TO.P,J2,3b,Pin_3b_3b*%
%TO.N,OD1*%
X107526000Y-25102000D03*
%TO.P,J2,3a,Pin_3a_3a*%
X104986000Y-25102000D03*
%TO.P,J2,2b,Pin_2b_2b*%
%TO.N,GND*%
X107526000Y-22562000D03*
%TO.P,J2,2a,Pin_2a_2a*%
X104986000Y-22562000D03*
%TO.P,J2,1b,Pin_1b_1b*%
%TO.N,+VM*%
X107526000Y-20022000D03*
D10*
%TO.P,J2,1a,Pin_1a_1a*%
X104986000Y-20022000D03*
%TD*%
D14*
%TO.P,J11,4,Pin_4_4*%
%TO.N,OD2*%
X119626000Y-39118000D03*
%TO.P,J11,3,Pin_3_3*%
%TO.N,OD1*%
X119626000Y-36618000D03*
%TO.P,J11,2,Pin_2_2*%
%TO.N,OC2*%
X119626000Y-34118000D03*
D15*
%TO.P,J11,1,Pin_1_1*%
%TO.N,OC1*%
X119626000Y-31618000D03*
%TD*%
D10*
%TO.P,J5,1,Pin_1_1*%
%TO.N,SLEEPn*%
X71040000Y-45934000D03*
D11*
%TO.P,J5,2,Pin_2_2*%
%TO.N,GND*%
X68500000Y-45934000D03*
%TD*%
D13*
%TO.P,JP2,1,A_1*%
%TO.N,3vo*%
X56591400Y-26862600D03*
%TO.P,JP2,2,B_2*%
%TO.N,+VCC_IO*%
X59131400Y-26862600D03*
%TD*%
D10*
%TO.P,J4,1a,Pin_1a_1a*%
%TO.N,bat*%
X47420000Y-29490000D03*
D11*
%TO.P,J4,1b,Pin_1b_1b*%
X49960000Y-29490000D03*
%TO.P,J4,2a,Pin_2a_2a*%
%TO.N,en*%
X47420000Y-32030000D03*
%TO.P,J4,2b,Pin_2b_2b*%
X49960000Y-32030000D03*
%TO.P,J4,3a,Pin_3a_3a*%
%TO.N,usb*%
X47420000Y-34570000D03*
%TO.P,J4,3b,Pin_3b_3b*%
X49960000Y-34570000D03*
%TO.P,J4,4a,Pin_4a_4a*%
%TO.N,/FTHR12_4*%
X47420000Y-37110000D03*
%TO.P,J4,4b,Pin_4b_4b*%
X49960000Y-37110000D03*
%TO.P,J4,5a,Pin_5a_5a*%
%TO.N,/FTHR12_5*%
X47420000Y-39650000D03*
%TO.P,J4,5b,Pin_5b_5b*%
X49960000Y-39650000D03*
%TO.P,J4,6a,Pin_6a_6a*%
%TO.N,/FTHR12_6*%
X47420000Y-42190000D03*
%TO.P,J4,6b,Pin_6b_6b*%
X49960000Y-42190000D03*
%TO.P,J4,7a,Pin_7a_7a*%
%TO.N,/FTHR12_7*%
X47420000Y-44730000D03*
%TO.P,J4,7b,Pin_7b_7b*%
X49960000Y-44730000D03*
%TO.P,J4,8a,Pin_8a_8a*%
%TO.N,/FTHR12_8*%
X47420000Y-47270000D03*
%TO.P,J4,8b,Pin_8b_8b*%
X49960000Y-47270000D03*
%TO.P,J4,9a,Pin_9a_9a*%
%TO.N,/FTHR12_9*%
X47420000Y-49810000D03*
%TO.P,J4,9b,Pin_9b_9b*%
X49960000Y-49810000D03*
%TO.P,J4,10a,Pin_10a_10a*%
%TO.N,/FTHR12_10*%
X47420000Y-52350000D03*
%TO.P,J4,10b,Pin_10b_10b*%
X49960000Y-52350000D03*
%TO.P,J4,11a,Pin_11a_11a*%
%TO.N,scl*%
X47420000Y-54890000D03*
%TO.P,J4,11b,Pin_11b_11b*%
X49960000Y-54890000D03*
%TO.P,J4,12a,Pin_12a_12a*%
%TO.N,sda*%
X47420000Y-57430000D03*
%TO.P,J4,12b,Pin_12b_12b*%
X49960000Y-57430000D03*
%TD*%
D10*
%TO.P,J6,1,Pin_1_1*%
%TO.N,SPI_SCK*%
X63392000Y-57676000D03*
D11*
%TO.P,J6,2,Pin_2_2*%
%TO.N,SPI_MOSI*%
X65932000Y-57676000D03*
%TO.P,J6,3,Pin_3_3*%
%TO.N,SPI_MISO*%
X68472000Y-57676000D03*
%TD*%
D18*
%TO.N,DIAG0*%
X74692000Y-49800000D03*
%TO.N,DIAG1*%
X74597380Y-52402620D03*
%TD*%
%TO.N,+VM*%
D19*
X107526000Y-20022000D02*
X104986000Y-20022000D01*
%TO.N,OD1*%
X107526000Y-25102000D02*
X104986000Y-25102000D01*
%TO.N,OD2*%
X107526000Y-27642000D02*
X104986000Y-27642000D01*
%TO.N,OC1*%
X107526000Y-30182000D02*
X104986000Y-30182000D01*
%TO.N,OC2*%
X107526000Y-32722000D02*
X104986000Y-32722000D01*
%TO.N,OA1*%
X107526000Y-37802000D02*
X104986000Y-37802000D01*
%TO.N,OA2*%
X107526000Y-40342000D02*
X104986000Y-40342000D01*
%TO.N,OB1*%
X107526000Y-42882000D02*
X104986000Y-42882000D01*
%TO.N,OB2*%
X107526000Y-45422000D02*
X104986000Y-45422000D01*
%TO.N,DIAG1*%
X104986000Y-53042000D02*
X107526000Y-53042000D01*
X101494000Y-56534000D02*
X104986000Y-53042000D01*
X74597380Y-52402620D02*
X78728760Y-56534000D01*
X78728760Y-56534000D02*
X101494000Y-56534000D01*
%TO.N,DIAG0*%
X104986000Y-50502000D02*
X107526000Y-50502000D01*
X79248000Y-56134000D02*
X99354000Y-56134000D01*
X74692000Y-51578000D02*
X79248000Y-56134000D01*
X99354000Y-56134000D02*
X104986000Y-50502000D01*
X74692000Y-49800000D02*
X74692000Y-51578000D01*
%TO.N,SPI_SCK*%
X59854000Y-61214000D02*
X63392000Y-57676000D01*
X72898000Y-48170000D02*
X72898000Y-41950000D01*
X72898000Y-41950000D02*
X79586000Y-35262000D01*
X79586000Y-35262000D02*
X82126000Y-35262000D01*
X48260000Y-61214000D02*
X59854000Y-61214000D01*
X44450000Y-53412500D02*
X44450000Y-57404000D01*
X35537500Y-44500000D02*
X44450000Y-53412500D01*
X63392000Y-57676000D02*
X72898000Y-48170000D01*
X44450000Y-57404000D02*
X48260000Y-61214000D01*
%TO.N,SPI_MOSI*%
X35537500Y-47000000D02*
X37094000Y-47000000D01*
X73298000Y-50310000D02*
X73298000Y-44090000D01*
X43942000Y-57461685D02*
X48202315Y-61722000D01*
X61886000Y-61722000D02*
X65932000Y-57676000D01*
X35573500Y-46964000D02*
X35537500Y-47000000D01*
X82126000Y-37802000D02*
X79586000Y-37802000D01*
X65932000Y-57676000D02*
X73298000Y-50310000D01*
X37094000Y-47000000D02*
X43942000Y-53848000D01*
X73298000Y-44090000D02*
X79586000Y-37802000D01*
X43942000Y-53848000D02*
X43942000Y-57461685D01*
X48202315Y-61722000D02*
X61886000Y-61722000D01*
%TO.N,SPI_MISO*%
X38832000Y-49500000D02*
X35625000Y-49500000D01*
X68472000Y-57676000D02*
X63918000Y-62230000D01*
X43434000Y-54102000D02*
X38832000Y-49500000D01*
X43434000Y-57519370D02*
X43434000Y-54102000D01*
X68472000Y-57676000D02*
X73698000Y-52450000D01*
X63918000Y-62230000D02*
X48144630Y-62230000D01*
X73698000Y-52450000D02*
X73698000Y-46230000D01*
X73698000Y-46230000D02*
X79586000Y-40342000D01*
X48144630Y-62230000D02*
X43434000Y-57519370D01*
X79586000Y-40342000D02*
X82126000Y-40342000D01*
%TO.N,+VCC_IO*%
X65972000Y-20022000D02*
X79586000Y-20022000D01*
D20*
X82126000Y-20022000D02*
X79586000Y-20022000D01*
D19*
X59131400Y-26862600D02*
X65972000Y-20022000D01*
%TO.N,rst*%
X24560000Y-19330000D02*
X27100000Y-19330000D01*
%TO.N,3vo*%
X32092600Y-26862600D02*
X27100000Y-21870000D01*
X56591400Y-26862600D02*
X32092600Y-26862600D01*
X24560000Y-21870000D02*
X27100000Y-21870000D01*
%TO.N,/FTHR16_3*%
X27100000Y-24410000D02*
X24560000Y-24410000D01*
%TO.N,/FTHR16_5*%
X27100000Y-29490000D02*
X24560000Y-29490000D01*
%TO.N,/FTHR16_6*%
X24560000Y-32030000D02*
X27100000Y-32030000D01*
%TO.N,/FTHR16_7*%
X24560000Y-34570000D02*
X27100000Y-34570000D01*
%TO.N,/FTHR16_8*%
X24560000Y-37110000D02*
X27100000Y-37110000D01*
%TO.N,/FTHR16_9*%
X27100000Y-39650000D02*
X24560000Y-39650000D01*
%TO.N,/FTHR16_10*%
X24560000Y-42190000D02*
X27100000Y-42190000D01*
%TO.N,sck*%
X32308000Y-44500000D02*
X32078000Y-44730000D01*
X33712500Y-44500000D02*
X32308000Y-44500000D01*
X27100000Y-44730000D02*
X24560000Y-44730000D01*
X32078000Y-44730000D02*
X27100000Y-44730000D01*
%TO.N,mosi*%
X24560000Y-47270000D02*
X27100000Y-47270000D01*
X27370000Y-47000000D02*
X27100000Y-47270000D01*
X33712500Y-47000000D02*
X27370000Y-47000000D01*
%TO.N,miso*%
X27410000Y-49500000D02*
X27100000Y-49810000D01*
X33800000Y-49500000D02*
X27410000Y-49500000D01*
X27100000Y-49810000D02*
X24560000Y-49810000D01*
%TO.N,rx*%
X24560000Y-52350000D02*
X27100000Y-52350000D01*
%TO.N,tx*%
X27100000Y-54890000D02*
X24560000Y-54890000D01*
%TO.N,en*%
X49960000Y-32030000D02*
X47420000Y-32030000D01*
X54930000Y-37000000D02*
X49960000Y-32030000D01*
X56700000Y-37000000D02*
X54930000Y-37000000D01*
%TO.N,+VM*%
D21*
X109638000Y-22058000D02*
X117547000Y-22058000D01*
X107562000Y-19982000D02*
X109638000Y-22058000D01*
%TO.N,OA1*%
X107562000Y-37762000D02*
X117990000Y-48190000D01*
X117990000Y-48190000D02*
X119815000Y-48190000D01*
%TO.N,OA2*%
X117950000Y-50690000D02*
X119815000Y-50690000D01*
X107562000Y-40302000D02*
X117950000Y-50690000D01*
%TO.N,OB1*%
X107562000Y-42842000D02*
X117910000Y-53190000D01*
X117910000Y-53190000D02*
X119815000Y-53190000D01*
%TO.N,OB2*%
X107562000Y-45382000D02*
X117870000Y-55690000D01*
X117870000Y-55690000D02*
X119815000Y-55690000D01*
%TO.N,CLK*%
D19*
X82126000Y-42882000D02*
X79586000Y-42882000D01*
X79180000Y-42476000D02*
X79586000Y-42882000D01*
%TO.N,ENCA1*%
X79586000Y-25102000D02*
X82126000Y-25102000D01*
%TO.N,ENCB1{slash}REFL1{slash}STEP1*%
X82126000Y-27642000D02*
X79586000Y-27642000D01*
%TO.N,ENCN1{slash}REFR1{slash}DIR1*%
X79586000Y-30182000D02*
X82126000Y-30182000D01*
%TO.N,SLEEPn*%
X79586000Y-45422000D02*
X82126000Y-45422000D01*
X71844000Y-45130000D02*
X71040000Y-45934000D01*
%TO.N,ENCA2*%
X82126000Y-47962000D02*
X79586000Y-47962000D01*
%TO.N,ENCB2{slash}REFL2{slash}STEP2*%
X79586000Y-50502000D02*
X82126000Y-50502000D01*
%TO.N,ENCN2{slash}REFR2{slash}DIR2*%
X82126000Y-53042000D02*
X79586000Y-53042000D01*
%TO.N,OC1*%
D21*
X119626000Y-31618000D02*
X109038000Y-31618000D01*
X109038000Y-31618000D02*
X107562000Y-30142000D01*
%TO.N,OC2*%
X108998000Y-34118000D02*
X107562000Y-32682000D01*
X119626000Y-34118000D02*
X108998000Y-34118000D01*
%TO.N,bat*%
D19*
X47420000Y-29490000D02*
X49960000Y-29490000D01*
%TO.N,usb*%
X47420000Y-34570000D02*
X49960000Y-34570000D01*
%TO.N,/FTHR12_4*%
X49960000Y-37110000D02*
X47420000Y-37110000D01*
%TO.N,/FTHR12_5*%
X47420000Y-39650000D02*
X49960000Y-39650000D01*
%TO.N,/FTHR12_6*%
X49960000Y-42190000D02*
X47420000Y-42190000D01*
%TO.N,/FTHR12_7*%
X47420000Y-44730000D02*
X49960000Y-44730000D01*
%TO.N,/FTHR12_8*%
X49960000Y-47270000D02*
X47420000Y-47270000D01*
%TO.N,/FTHR12_9*%
X47420000Y-49810000D02*
X49960000Y-49810000D01*
%TO.N,/FTHR12_10*%
X49960000Y-52350000D02*
X47420000Y-52350000D01*
%TO.N,scl*%
X47420000Y-54890000D02*
X49960000Y-54890000D01*
%TO.N,sda*%
X49960000Y-57430000D02*
X47420000Y-57430000D01*
%TO.N,SPI_CS*%
X59432000Y-57676000D02*
X59432000Y-47232000D01*
X56700000Y-44500000D02*
X68478000Y-32722000D01*
X68478000Y-32722000D02*
X79586000Y-32722000D01*
X82126000Y-32722000D02*
X79586000Y-32722000D01*
X59432000Y-47232000D02*
X56700000Y-44500000D01*
%TD*%
M02*
